<?xml version="1.0" standalone="no"?>
<!DOCTYPE svg PUBLIC "-//W3C//DTD SVG 1.1//EN" "http://www.w3.org/Graphics/SVG/1.1/DTD/svg11.dtd" >
<svg xmlns="http://www.w3.org/2000/svg">
<metadata></metadata>
<defs>
<font id="OctinVintageBRgRegular" horiz-adv-x="1073" >
<font-face units-per-em="2048" ascent="1536" descent="-512" />
<missing-glyph horiz-adv-x="655" />
<glyph unicode="&#x28;C&#x29;" horiz-adv-x="1292" d="M96 299v223l13 8l-13 7v26h19l-6 15v67l-13 10v21l15 16v19l-15 -9l21 27l-8 29h-7l9 18v15l-7 14l13 6v35l6 12l-6 25l12 12l-6 14v97l-6 12v14l6 6l-6 11v10l-6 6l-5 109l13 69l24 12l7 17l118 119l29 20h20l21 21l12 -7l80 9l29 -9l8 -16l16 -10v18l19 -6v-12l2 26 l33 -4l30 4l11 -8h26l10 4l4 -4l27 4l4 -4h13l4 -6l10 6h108l21 -12h26l11 6h20l6 -6h35l6 6l21 6l22 -12l13 6h36l48 -47l20 -12l41 -49l53 -52l15 -37l12 -6l12 -59l-16 -100l8 -33l-10 -86l-6 -10l6 -11l-6 -10l10 -10l-4 -27l4 -10l-10 -21l6 -6l-6 -14v-27q6 -5 10 -26 l-6 -19l6 -26l-10 -31v-37l8 -29l-15 -90l9 -63l-9 -31v-24l7 -5v-67l-7 -17l7 -47l-11 -10v-51l-24 -27l-13 -20l-20 -10l-10 -23l-21 -14l-20 -4l-4 -21l-6 4l-9 -18l-8 14l-10 -10v-21l-14 -6l-11 -10v16l-18 -6l6 -16l-14 -14h-15v-11l-6 -10l-24 12l-39 -14l-35 8 l-21 -6h-36l-11 6h-14v8l-20 -8v4h-7l-12 -10h-45l-27 12l-28 -8l-21 19l-26 -19l-41 6l-49 -6l-31 17h-35l-20 -11h-37l-11 11q-19 -8 -24 -15l-39 13v12l-8 -4l-43 41l-10 4l-25 26l-27 41l-10 -6v6l-24 33v14l-37 11l-11 37v51zM150 651l14 -6l6 -45l-6 -16v-119l-10 -21 l14 -36l-10 -31v-41l6 -12l-6 -5v-47l12 -10l-6 -4l10 -16l10 -4l9 -25l12 -16l98 -88l12 -17l29 -16h41l21 -6l26 6l6 -10h11l6 -7l24 17h51l33 -4v-11h4l4 15l68 -4v-11l31 5l6 6h145l31 -11l10 5l74 6l8 10l12 4l25 27l4 -4l16 14h17v20l37 35h8q4 20 20 33v6h7l12 -14 l20 18l2 21l13 10v41l6 6l-13 4v6l-8 6l15 15l-15 8l-14 33h14l8 6h19l-12 20l-15 -8v29l-6 10v41h6v68l-12 18l12 96l-8 4l14 47l-10 13l6 49v186l6 6l7 -16v-31l6 -6l-8 -6l8 -8l-6 -10v-37l6 -25h-6l6 -12l-6 -29v-39l-7 -8l7 -16v-21h8v31l6 14l-6 17l18 37l-6 8l8 10 l-8 8l-6 21l6 20v25l8 8l-8 39v41l-33 -6v12l21 8h-21l6 33l13 20l-6 6v15l-13 6v10l6 -6l9 16h-15v66l6 18l-20 29v12l-14 9l-68 67l-20 27l-9 18l-14 6l16 13l-4 8l-32 12l-15 -8v-12h-20l-12 8v6l-9 -6l-8 14l-35 8l8 -16l-22 -10h-18l-19 30h-31l-14 -14l-10 6l-10 -22 l-19 4v12h-8l-6 6l-8 -6h-33v14h-21l-12 -26h-29l-28 16l-8 -16h-35l-6 6l-9 -14l-45 8h-98l-29 6l-18 -10h-14l-27 -37l-29 -31l-22 -10l-15 -16l-10 -5l4 -4l-24 -6l4 -26l-17 -17l-16 -57l8 -17l-16 -22l10 4v-14l-4 -17l4 -4l-4 -16h-16v-27l4 -8v-74l6 -14l-6 -6v-62 l6 -6v-10l8 -16l-8 -11v-28l-10 -11l16 -8l-8 -12l12 -12l-16 -17v-20l14 -6l-14 -15v-24zM385 457l8 43l-8 14l6 49l-6 8v39l6 21v20l6 11v14l-6 6l10 12l-4 19l-12 -6l6 10l-6 8l6 18v33h10l-4 105l4 18l-12 6l8 15l-6 4l6 6v33l-8 20l12 23h7l10 12v16l24 19l17 22l41 33 l43 18v-4h88l8 -16v-10l8 -9l-8 -34l-14 6v6l10 4l-17 6h-14v-10l-12 -12h-21l-8 -4h-20l-27 -25h-16l-43 -59l6 -15l-6 -8l6 -33l-8 -6l8 -10v-10h-8v-11l10 -12l-6 -14v-228l-4 -88l-6 -4v-16l-13 -10l23 -13v-18l10 -16v-15l20 -20l33 -21l15 -14h20l35 -12l31 10l26 -10 l6 -15h7l6 15h14l8 6h39l29 14l63 62l15 22v35l6 12v41l10 8l4 -2l27 15l10 -21l10 -6l-6 -10h-4l-10 -21h6q2 -11 14 -16l-10 -4l14 -21l-18 -57h-12v-16l-27 -29l-25 -6l-4 -15l-6 9l-4 -15l-37 -41h-84l-14 -6h-58l-26 6v15l10 24l-14 8h-10l8 -8l-11 -16l9 -14 q-20 -5 -25 -13l-8 8l-8 -10l-6 21l-7 -19l-34 19l-13 20l19 6l-13 6h-14l6 13l-6 8l-43 4v10l-10 11v10l-25 14zM496 383h6l-6 2v-2zM537 1090h26l4 10h-22v10l-8 -10v-10zM655 1106l7 4v-10zM662 1069v16l10 -8l12 10l-8 13v10l10 -4l10 10h13l6 -16l35 16h14l-6 -10l12 4 l8 -10l33 -4l25 -15v-28l16 -15h20l17 -14l14 -27l-14 -6l4 -6h10l-14 -14h14v-27l-6 -24h8l-8 -17l-4 -51h-41v68l-10 10l-11 55v21l-26 -2l-31 49l-8 37h-12l-11 -15l9 -14l-15 -8v6h-6l-2 6h-12v14l-8 -4v-22h-13v6h-6l-8 -6v16h-20zM702 14h27l-8 6zM750 1376l4 2h-4v-2 zM815 1358v6l6 -6h-6zM842 991l4 -6l22 19zM846 1059h6v-6zM930 1358l8 12h-8v-12zM1130 340h7v4zM1130 350l7 6l-7 9v-15zM1145 475l6 -6v6h-6zM1151 403l12 9v12z" />
<glyph unicode="&#x28;R&#x29;" horiz-adv-x="1167" d="M96 580l8 12h-6v67l6 23l-6 61v103l6 16v88l9 15v135l-7 18l13 12h-8v37l14 -16h14v16h-20v23l-8 8l4 47l41 41l16 25l47 37l14 22l11 4l39 39l22 6v13l14 8h13l8 6h131l10 -6l39 6l80 -8l70 8l20 -10l8 -31l7 12v13l26 12l14 -10l7 6h82l10 -13l10 7h25l51 -35l8 -43 l20 4v-4l15 -8v-9l6 -4v-41l4 -6q1 5 3.5 8.5t9.5 7.5t8 5l10 -4l41 -43l26 -37v-103l-14 -12l-6 -23l14 -6v-35l6 -18l-6 -8v-21l8 -8l-39 -12l9 -14l-17 -9l-22 15v100h10l16 10l-14 8l-16 -10l14 29l10 -6l6 6v10l-28 6l8 76l-27 27v14h-6l-4 6l23 10l-19 25l-14 -14 l-6 6l-9 -6v10l-26 16l-27 25v16l-67 33v8l-17 17l-8 -13h-16l-11 -8h-53l-2 4h-22l-4 -4h-43l-31 4l-4 -4h-21l-8 6l-12 -6v4l-37 -6l-74 8l-41 -6l-76 4l-57 -33l-14 -30l-17 -8l-32 -7l-15 -10v-26l-26 -27l-11 -21l-10 -8l-4 -33l8 -84l-14 -14h-10v-10l20 -12v-125 l-16 -6v-27h18l-6 -96v-187l-20 -12v-6l20 -2l-27 -19h21l10 -20v-21l-4 -8h8v-18l53 -8l13 -25l26 -14l11 -47l8 14l8 -12h6v-27l12 18l9 -12h12l8 -8h41l12 -18l-12 -21h-14v-25h-11l-4 21l-12 -10h6v-11h-28l-13 21h-26v16h-6l-15 15l-6 14h-10l-23 14l-12 25l-16 8 l-11 21l7 12l-7 4l-20 -10l-6 10l-8 37l-13 4v20l-8 -8v-12l-18 16v21zM131 537h14l7 -7l4 7v20h-17l-8 -10v-10zM362 610l5 15l18 18l8 -8l6 10l15 6l6 -12h4l-4 20l4 33l6 10l-6 5v30l10 21l-8 8l8 39h-4v12l10 29l-14 20l14 6v7h-10v24l10 -4l6 14l-12 7v63l10 -6l7 20 l-11 9q1 2 1.5 8t2.5 9t7 3v18l-11 15l11 10v37l-11 4l-61 61v13l29 26h172l18 -20q6 16 23 20h57l6 -6l45 -10l16 -16l15 -31l12 4v-4l12 -6l11 -49l-9 -7v-20l-6 -12v-21l21 -8l-4 -6h-9l-8 -105l-22 -16l-8 41l4 27l6 6v12h-8v23l-7 12l7 8l4 21l-11 12v26l-12 11l19 4 l-19 8v8l-12 -8l-29 29h-14l-19 12l-12 -12h-6v6h-106l-9 -17l-18 -10l-10 -51v-68l-13 -20l-4 -37l4 -37l37 -6l4 12l9 -8l12 8l115 -6l6 -10h10l31 31l16 12h6v-82l-26 -8l-7 6h-14v-14l-14 -17l14 -57v-21l21 -20v-16l8 6v-11l6 -6l-6 -4l12 -6l14 -27v-24h33l14 -17 l11 7l20 -15v-20l-16 -12l-33 -11l-78 6l-6 -10h-16l-27 19v16l-14 6v14l14 17l6 -4l15 14l-11 51l-10 11l-23 45l-8 6v12l-16 29l-8 6l4 18l-17 -6l-20 21h-35l-20 -19l6 -6l-6 -8v-27l-6 -8v-104l10 -11l-8 -6q8 -12 18 -14l12 6l21 -16v-35l-19 -19l-30 11l-19 -13l-26 2 l-15 -6l-35 13l-14 26l-8 -12v18h-17zM401 1407l7 -8l16 6l-16 12zM406 365l24 12h21l32 -15l41 15l35 -15v15h41v-12l27 6h30l21 6l14 -6h47l29 6l29 -8l49 14l10 18l57 43l11 21h8l47 51l20 41h9v-6l10 10l-17 29h13v28h-6l-7 33l23 13v12h-4l-6 -10l-10 26l4 4l-4 17v16 l12 10l-12 23l16 22v13l24 14l7 -6l20 8v-70h-6v-10h6l4 -20l-8 -27l10 -76l-6 -6l4 -6v-20h-4v-48l-10 -8v-12h-8l-11 -25l-34 -16l-9 -20l-26 -31h-12l-50 -62l-51 -39l-39 -14l-41 14l-14 -8h-121l-8 15l-8 -13l-35 8l-8 17l-39 -12v6l-4 -19l-19 13l-6 -9l-6 9l-10 -5 l-4 31h-13l-20 -20l-25 -15l-32 4v11l6 6zM586 889h4l-4 4v-4zM637 336h4v4zM688 330l21 -11l4 11l-4 6h-17zM688 866l4 13l-4 -7v-6zM711 1413l14 -8l6 6v21h-6zM725 336h6v8l-6 -4v-4zM817 1411h10v14h-10v-14zM1020 598h4l-4 12v-12zM1022 1157h22l-10 27zM1024 825v54 l10 20l-6 4v39l23 8l12 13l18 -7v-12h-10l-10 -8v-12l-6 -11v-10l-4 -4v-10q6 -2 10.5 -15t9.5 -16v-33l-6 -6l-4 27l-10 -8l-9 -21h-8zM1044 1004h17v8h-17v-8zM1055 672l6 4v16z" />
<glyph horiz-adv-x="0" />
<glyph horiz-adv-x="2048" />
<glyph unicode=" "  horiz-adv-x="655" />
<glyph unicode="&#x09;" horiz-adv-x="655" />
<glyph unicode="&#xa0;" horiz-adv-x="655" />
<glyph unicode="!" horiz-adv-x="438" d="M145 109l7 24l14 21l24 10l29 -6l29 4l14 -15v-30l6 -17v-61h-8v-21l-12 -8l-35 -6l6 6h-59l-2 49l-6 13v20zM145 1270v45l7 6l-7 6v31l15 10v14l33 15h28l6 -4h43l13 -37v-185l-9 -8v-98l-6 -37l8 -6l-14 -37l6 -33l-6 -14l8 -27l-8 -6v-20l6 -15l-6 -61l-8 -12l6 -9 v-122q-5 -5 -12 -21l6 -6v-61l-12 -41h12l-8 -41h-10l-9 -15h-6l6 -6v-18l15 8l-4 -21l-25 -4h-20v4l-7 5l-18 90l14 14l-4 31l-12 8l12 14l-12 66v63l6 37l-8 25l8 6l-6 12v66l12 10l-6 20h-14v232l-6 -17v25l6 14l-6 6v13l8 8l-8 12v45l6 11z" />
<glyph unicode="&#x22;" horiz-adv-x="491" d="M96 1440l15 51l14 10l20 -6l11 6l4 -6l12 6l8 -47l8 -18l-8 -13v-22l6 -8l-10 -13h-10v-16l14 8v-63l-14 -15v-57l-8 -23l12 -45l-25 -4l21 -6v-14l-10 -6l4 -6l-8 -21l-21 6v31h-6l-12 37h-9v55l7 21v63l-7 6v88zM145 1247l7 6v9l-7 6v-21zM160 1423l6 -4v-6l6 -12v22 h-12zM297 1407l16 76l25 18h29l16 -16l10 -31l-8 -8l8 -6l-6 -47l-8 -21v-63l-6 -4l6 -11l-6 -10v-94h-8l10 -21l-10 -34l-7 10l-12 -6l-6 6l-8 4l8 4l-2 21h-33v53l8 12l-10 18l8 31l-6 6l6 11l-12 59l6 12zM317 1133h2l17 -13l-17 -8zM326 1190h6v4z" />
<glyph unicode="#" horiz-adv-x="937" d="M68 506v24l12 5l20 22h50l26 25l6 36l11 11l-9 14l9 6l4 23l-4 2l4 6v57l10 21v30l-12 13l8 10l-6 41l-41 20l-21 21l-26 6v23l24 26h12l5 6l32 11h15l16 16v25l10 10v26l10 5v57l11 78v47l4 8v27l20 127l25 10l16 -6h25l14 -27l-10 -18l10 -58l-12 -18v-105l-8 -8v-33 l-19 -8l6 -12v-21l-6 -4l6 -4l7 -73l6 -5v-12l8 -8v-8l57 -8l19 -9l18 9l21 -4l30 4l88 -4l6 -7l9 11l41 10l-4 10l16 16v35l8 21v71l14 25l-10 10l8 25v106l11 21l4 61l10 21l51 12l17 -14v-146l-7 -6v-88l-20 -92v-41l-4 -18l24 -39h41v-11h33l19 -18l-11 -23l-8 -6l6 -6 l-6 -2l-12 8l-14 -14h-7v-12h-28l-13 12l-20 6v-33l-10 -10v-41l-15 -47l7 -18l-15 -15l8 -8v-10l-6 -4l8 -8l-8 -11l-6 -63l6 -13l-4 -30l4 -17h39l25 -14l35 -8v-43l-13 -19l-8 7l-14 -15h-54l-18 -14l-16 -68l4 -6l-4 -10v-27l-11 -4l11 -10l-11 -6l11 -10l-11 -31v-68 l-12 -20h-4q-2 -18 -16 -21l12 -14v-16l6 -7l-6 -57l-21 -12v-6l11 -6l-6 -35l-11 8l-10 -16l-20 -11l-17 19l-6 -13l-8 17v82l6 12l2 90l12 43l-10 8l16 84v111l-51 18l-16 -10l-27 6l-14 8l-6 -8h-10l-7 -6h-34l-9 8l-10 -8l-61 8l-45 -16h-17v-12l6 -7q-3 -13 -20 -28 l6 -6v-21l-6 -10v-16l-16 -15v-16l6 -10v-15h-6v-26l8 -13l-8 -92l-5 -4l-6 -102l-14 -17v-30l-10 -11l-27 -10l-26 6v21l-15 14v47l6 14v44l15 55l-6 12l12 49v80l18 10l-18 9l4 6v53l4 22l-4 21h-25l-47 6zM274 598l7 -6l4 -21h10l6 7q7 -12 21 -17l6 -14l8 10l26 4h82v-4 l93 12l6 -8l12 6l8 -6l19 19l16 53v47l6 14l6 54l6 14l-6 26l8 84h-30l-10 15l-9 -6l-6 6l-20 -10h-35l-10 8l-6 -8l-35 10l-27 -10l-68 -5l-12 5l-28 -11l-13 -14l-8 -27v-26l-6 -4l6 -7l-6 -26v-29l-10 -94l-11 -10v-31z" />
<glyph unicode="$" horiz-adv-x="1007" d="M96 449l6 12l15 4l-15 4v20l15 11v18l28 19l15 -21l20 12l17 -18l4 -27l-4 -26l4 -23l-4 -26l10 -11v-14h-6v-6h10l6 -10l10 -5l25 -26l16 -33l31 -14l10 -10l13 -5l20 -16h14l11 -12l47 10l14 -8h21l12 6h49l12 -12l29 -11l6 7v16h6l6 -12l9 6h20l23 6h30l4 -6l13 10 l4 -4l37 8l14 -14l14 6l27 63l27 39h10l14 27l-18 10l12 6l-14 17l10 24l-6 35l6 33v55l6 6l-6 4l-14 37v19l-15 22l-12 11v12l-41 22l-10 -4l-54 13l-14 -9l-29 17l-26 -17h-17l-4 6h-12l-6 7l-14 -9v9l-27 -13l-37 6l-88 -8l-8 15l-10 -7v7l-11 -7l-12 7v-13h-22l-27 11 l-45 -11l-23 13v6h-6l-14 28l-10 7l-13 -7l-14 37h-6l-8 11l-6 -11l-35 41v156l-6 72l8 18l-8 20v50l8 20l53 57l68 62h10l4 6l27 6l10 8h73l5 -8l4 8l8 -10l29 10h20l16 7l11 14l14 63v17h57l4 -37l7 -10l6 -39l51 -15h102l19 -14l2 -14l18 -13h8l27 -24l10 -17l-4 -4 l29 -16l22 -20l4 -11l11 -6l37 -41v-61l-11 -6l13 -25l-7 -27l-6 11h-6l-4 -11h-6v-22l-23 10l-45 8v62l-12 28l-8 7l6 6l-14 12l-23 10l-59 72l-8 -6l-60 22l-22 -16l-11 10h-51l-10 8l-6 -14h-78l-72 8l-14 -8h-27l-32 -20l-9 -11h-6l-26 -30l-25 -46v-63l-6 -41l6 -37 v-72l21 -47l14 -10h8l35 -26h20l9 6l32 -11l9 -10l6 15l8 -15l12 15h53l5 -5h53l37 11q12 -14 12 -21h6q5 11 16 15h82l7 -5l6 5h34l7 -7l26 7l8 6l17 -17h26l15 -20l30 -17l37 -47v-6l27 -14l4 -14l4 -187l-4 -153l-20 -27v-12l-31 -4l-8 -35l-35 -33h-14v8l-39 -59l-29 -4 h-90l-29 20v-26l-6 6l-20 -6l-5 -11l-8 17h-8v-13l-14 -14v-82l-15 -16v-11l-39 -6l-14 17q-7 70 -10 104h-10l-58 21l-10 -6h-16l-4 6l-11 -6l-8 6l-8 -9l-25 13h-20l-37 30l10 7l-28 6l-23 24l-10 21l-23 10l-67 68l-8 20l6 4v12h-6l-7 11l13 10l-13 20l13 15l-6 16l6 10 v13zM262 254l6 4h-6v-4zM557 717l6 6l-6 6v-12zM729 233h6v5h-6v-5z" />
<glyph unicode="%" horiz-adv-x="1415" d="M96 1128l6 74v103h9l6 10l6 -10v-25l8 -37l12 -14v-12l27 28l-6 12h-6l-4 -8l-23 8v23l12 10v10l-6 5l17 6l-4 4l4 6v14l4 6l-4 7l10 4l10 22l37 35l78 6l8 -12h27l18 10l29 -10h26l25 12l12 -12v-8l21 2l8 12h20l39 -12l17 -27l26 -14l25 -33l8 -33v-41l-4 -6l14 -20 v-47l-4 -7l4 -14v-197l8 -8l-14 -63l-14 -6l-15 -21l-10 -4v-6l-41 -41l-6 6l-14 -27h-60l-12 7l-12 -7h-27l-10 9l-25 -4h-20l-29 -15l-12 13l-10 -7l4 -2h-6l2 2l-9 9h-28l-6 10l-21 -12l-16 6l-21 20h-10l4 19h-14l-27 24l-20 37l-6 25h-9v26l7 10v64l-7 8l7 17v16l6 6 l-11 12zM170 1118l14 -8v-94l15 -92l43 -43l47 -17l6 -4l8 4h53l25 10q8 -12 27 -14q16 1 20 17l12 -9l13 13l30 4l-2 6l23 27l22 40v89l4 4v43l9 8l-13 12v143l-10 17l-41 47l6 6v10l-26 -10l-6 4l-11 -4l-6 6l-67 -12l-60 16l-8 -6l-14 4l-41 -14l-17 -16l-10 -5l-37 -26 v-25l-8 -26l14 20v-61l-12 -31l12 -10q-7 -15 -14 -17v-6zM268 6v45l72 131l47 76l10 6l13 39l24 25l6 14l15 6v10l18 33l8 27l21 18l2 21l18 26l25 4l-10 21l10 6l16 47l21 21l4 14l33 47l6 27h18l10 51l27 31l20 16v8l21 41l14 8l6 25l31 61l8 -8l9 15v14h14v18l16 25v14 l15 15l22 45l19 14v14l18 27l2 10l33 47v15h6l8 26l53 68v10l11 4v10l10 6v11l16 24l6 21l43 53h47l17 -12v-21l-21 -35l-12 -12l-12 -33l-19 -16v-18l-20 -29l-25 -51l-30 -37l-7 4l-4 -4v-10l9 -9l-25 -18l-8 -37h-6l-17 -20l-6 -21l-18 -31l-6 -20l-31 -41v-10l-27 -27 l-8 -22l-27 -29l-10 -35l-16 -10v-29l-21 -20l-30 -58l-23 -20l-10 -35l-21 -20l-6 -13l-8 -4l8 -4l-14 -16l-8 -23l-23 -24l-6 -33l-18 -14h-7l-6 -29l-4 8l-6 -20l-10 -9v-18h-10l-5 -21l-22 -41l-21 -20v-10l-14 -31h-6l-12 -35l-15 -10l-14 -33l-27 -30l7 -5l-21 -26 l-51 -99l-27 -26l-6 -14l-8 -7l-14 -26h-27l-19 12zM391 1335h6v6zM795 911l6 -4v4h-6zM811 135v78l6 18l-6 13v118l4 13l-4 49l4 20l-4 19v41l4 4v16l37 37h12l33 45h12l11 10h41l24 9l16 -9h21l12 7h109l10 -13h10l4 13h21l39 -13l41 -41l2 -8l16 -8l25 -35l6 -35v-84 l6 -4l-10 -67v-43l-6 -6l10 -21l6 -2l-14 -33v-14l8 -21l-4 -6l8 -6q-8 -12 -18 -14l6 -10l-9 -7l9 -20v-35l-72 -55l-8 -12l-29 -21l-10 8l-12 -14h-88l-7 6h-22l-6 -12l-13 12h-20l-8 -12l-17 6h-61l-33 20v7l-26 26l-21 8l-25 37l-10 4zM889 236l12 -31l-6 -8l4 -4 l-4 -31l2 -27l23 -10l10 -27l10 -14h18l9 -14h10l4 -7l10 9h10l7 6h55v-27l20 8l-8 11v8h15v-6l16 6h31l57 12v16l31 11v28l10 11l6 16l-6 4v53l12 19l-12 8v72l-6 10l12 14l-6 10v17l6 4l-8 86l8 8l-12 6l-6 25h-15l-8 16h-26l-31 25l-21 -12l-59 8l-2 -10l-12 10h-15v10 l-20 -20h-33l-10 -7h-21l-20 -20h-21v-16h-12l6 -9l-8 -16v-129l-6 -47l6 -47z" />
<glyph unicode="&#x26;" horiz-adv-x="1099" d="M76 193l20 88l-4 14l4 6l-4 14l8 11v41l13 8l-25 26l-8 54l6 10v47l27 27l16 34h8l10 -10l15 6l-10 11l8 28l49 39h6l21 29l16 6l4 12l10 4l47 58v20l-12 10l-8 15l-33 37l-55 77l-17 15l-14 33l-6 4v10l-10 10l-4 27l-7 10l9 20l-9 46v114l7 10v68l20 33l82 82l10 4 l15 16l88 4l6 -4h14v-6l17 10h30l6 -14l11 4l8 -8l53 14l6 -6h27l45 -51l22 -12l27 -37l12 -8v-15h17v-12l-11 -8v-21l15 -16v-57l-4 -11v-30l-21 -11l21 -14v-12h-4v-15l4 -6l4 -43l-4 -67l-17 -13v-14l-39 -25l-12 -24l-96 -96h-10l-31 -50l10 -34l25 -15l-8 -14l16 -6 l47 -64l-6 -16l18 -4l15 -17v-10l10 -4l37 -51l30 -27v-16l15 -16l8 -25h41l39 31l26 57h11l10 31l20 30l7 -4l14 17l-8 6l8 8v10l10 4l17 17h20l37 8l14 -12v-21l-14 -47l-27 -27h-14l-21 -20l29 -4l-14 -6v-10l-35 -58l-12 -35l-21 -20l-10 -23l-21 -20l7 -41l8 -16 q18 -17 46 -53.5t34 -43.5l10 -22l16 -10l25 -41l18 -17l9 -24h8v-58l-31 -10l-25 14h-16l-41 47v17l-10 10l-10 -6l-27 33l-21 41l-20 10l-14 14v10l-37 7l-10 -4l-7 -17l-26 -31l-19 -30h-6q-4 -14 -20 -21l4 -12l-6 -19l-27 -18l-12 -35l-17 -4l-36 4l-15 -10l-28 10 l-11 -12l-8 8h-10l-4 8q-20 -3 -23 -14l-20 6l-39 -12l-70 12h-35l-32 8l-25 27h-6l-31 31v26h-24l-60 62zM94 469l12 -8h9v20l-9 -6v17zM100 414l6 -6l7 -15l8 15v26l-8 21v-21zM141 362h17l16 17q-2 -1 -7.5 -2.5t-8.5 -3.5t-4 -6h-13v-5zM141 383h6v4zM172 334l10 -19 v-82l13 -20v-8l14 -8l6 -21h6l8 -16l31 -13l47 -38l15 -7h18l12 -8l8 4h25l10 -6l37 10l31 -4l37 4l8 7h20l7 -7l20 27l6 16l27 27l-8 4l41 60l8 -9l10 21l10 10l-6 10l10 6l13 21l8 6l-8 8l6 27l-19 6v4l-10 -4l-14 14v27l-33 12v25l-8 20l-6 -12v12l8 17l-19 -11v9h-10 l-20 20v17l-6 10l-9 -10l-20 28l-6 29l-13 4l-14 10l-6 10h-8l-31 58l-20 12l8 8l-10 11h-25l-27 8v-31l-41 -21v-14l-32 -24h-15v-17h-12l-16 -35l-23 -6l-25 -51l-8 -88l-8 -10l4 -6v-25zM242 1067l12 -66l59 -65l6 -21l46 -47l20 -26h21l6 6h10l37 35h6l49 63l41 29l6 18 l6 4l8 52v79l13 21l-10 8l14 27l-4 20h-13v37l-4 14l-4 -8h-12v15l-41 34l-41 27h-6l-4 6q-8 -12 -27 -14h-88l-26 -12l-21 -21l-37 -25l-12 -43l-10 -8l10 -112zM436 1386l6 -6l4 11zM446 1376l13 -6v6h-13zM629 1128l4 -6h10zM643 379h6v8l-6 -4v-4zM686 295h4v27h-4v-27z M694 315l6 -10v17z" />
<glyph unicode="'" horiz-adv-x="282" d="M96 1247l6 8v21l-6 12l6 8l-6 58v133h64l-8 -27l12 6l6 -10l2 -82l-6 -24h6l-2 -27v-102l-12 -11l6 -4v-6h-6v-20l-6 -15l18 9l-6 -21v-20l-12 -21l-7 10l-8 -14v20l-8 11v-15h-6l-14 15v75zM123 1165l14 -16l6 37h-14v-12z" />
<glyph unicode="(" horiz-adv-x="454" d="M96 1073v33l13 31l-7 4v30l-6 13v123l27 30v11l20 20l-6 6v21l15 14l6 -4h18l-8 51l31 43l10 33l16 16l19 11l-13 10l15 20l51 23l20 -6v-25l-8 -12l-20 -68l-6 -2l-11 -18l-16 -8l-4 -33l-10 -8l-11 -23v-20l-26 -52l-21 -20v-21h-16l10 -30l-14 -15l20 -12h-41v-18 l15 10l16 -12v-113l-4 -16l12 -13l-12 -88l14 -12l-30 -31l-7 -33l5 -45l12 -22l10 -4q-19 -2 -22 -17l6 -20v-21l12 21h4v-14h4v-89l-4 -6l4 -14v-57l-8 -4l4 -23l10 6v-51l-6 -10v-33h6v-14l-14 -13l8 -28l6 -6l6 -31l-8 -25l-18 4l-6 -4v-26l6 -11l-29 -16l8 -25h7l8 19 l12 -33v-27h8v-20l6 -6l-6 -6l-4 -25l10 4v-20l-14 -4l14 -21l15 -74l12 -24v-17l8 -4l12 -16l-6 -6l6 -4l11 4l14 -41l6 -4l6 -29l-12 -16l20 -27l17 8l10 -24v-11h10l17 -30v-11l10 -22q-3 -19 -23 -29h-28l-17 15l-16 30h-4l-16 21l-5 16l-12 17l-14 34l6 7v10l14 16h-28 l16 41l-18 -8v-27l-17 23h-6l-41 59v19l-14 16v10l-8 11v213l8 4l6 -4v14h-6l-8 10v94h14v15l-12 10l-2 57l-11 25l11 16v35l8 33v57l6 8l-6 13h14l-2 41l-20 -31l-11 18l19 39l6 -20l18 16l-10 6v13h-22l8 14h14v16l6 17h-8l-27 18v27l9 16v25l-9 20v12l7 -6l2 33l6 2 l-13 8l13 25v14l12 6l-12 11l12 10l-6 26h-12l-9 -12h-6zM131 135l6 -20h6l9 20v25h-15zM131 279l19 -5v15h-19v-10zM143 221l7 6h-7v-6zM143 1094l9 16l-9 -10v-6zM150 444h8v17l-8 -12v-5zM152 578h6v12zM164 522l6 8l-6 7v-15zM199 27h16v8h-16v-8zM225 1432l6 -7v7h-6z M236 1452h6l-6 4v-4zM246 -47l10 -8l-4 8h-6z" />
<glyph unicode=")" horiz-adv-x="454" d="M96 -150l13 11l2 20l20 31v16l23 41l10 11v10l10 10v10l29 45l30 15l-8 8h-10v10l27 16v119l12 76l-12 20l14 33l-4 10l4 21l12 -4v14h-12l-10 10l12 25l-12 12v121l16 8v4h-6v43l6 25l-12 12l12 15l6 16l-18 4l14 41l-10 8l8 19v82l-10 22l10 21v82l12 69l-6 8h-6l-6 11 l12 4l4 26h-16v37l6 21v61h10v47l-12 17l8 20l-12 10l12 4l-22 56l-15 12l5 6l-25 29l-16 33v14l-31 51l-6 53l-4 7l-4 -13h-7l-20 37l6 16l-6 7v14l22 14l9 -8l10 4l12 -4l8 -20v-13l31 -30l16 -31l11 -10l20 -47v-21l27 -27l10 -24l-6 -6l22 -21l9 -24l12 -17l2 -20l8 -15 l-8 -67l10 -59l-10 -35v-37l-8 -10v-25l6 -12v-21l-14 -16l16 -10l-2 -29l4 -8l-4 -13v-57h-17l11 -27h6v-77l-12 -17l8 -14h-8l-7 -10h13v-78l-13 -14h7v-17l-7 4l-8 -28l15 -7v-10h-9v-53l-6 -8l8 -33h7v-14l6 -17v-82l-6 -16l6 -4v-21l-13 -12l7 -4v-57l6 -6l-6 -35v-99 l-21 -26l12 -10l-6 -29l-30 -37l-7 -33l-39 -61l-32 -4v-13l10 -4l-16 -8v-22l6 -13l-23 -35h-4l-22 -40l-23 -11l-18 4h-15v47zM262 549h14l-14 10v-10zM276 678h7l-7 6v-6z" />
<glyph unicode="*" horiz-adv-x="778" d="M96 1157l6 12h9l24 23l43 6l6 12h11l20 11l53 14h25l10 10h6v47l-33 31v6h-8l-22 31l-8 24h-17v17h10v20h-10v37h21l4 -10l22 -10v-11l15 -22h10v-29h10l6 -16l23 -12l26 -39h23l31 20v8l30 33v6l19 29h18v-4h4l6 16h-10v10l19 25h18l14 -6l7 14l14 -22v-17l-8 -4h-21 v-20l-6 -6v-21l-12 -10h-21v-4l19 -6q-1 -9 -13.5 -16t-13.5 -17h-6v-8l-20 -13l6 -4l-11 -47h11l6 -8l41 -12l28 -15l33 -6l8 -10l-6 -14l19 10h34l21 -21l6 -28l-43 -15l-24 11h-27l-29 14h-18l-8 12h-13l-18 8l-53 7l-11 -15l-4 -41l6 -14l-6 -6v-12l11 6l-7 -15v-43 l7 -10q-2 0 -3.5 -1.5t-2.5 -3t-2 -3.5t-1 -3.5t-1 -4t-1 -4.5v-25l-12 -20l-20 -7h-15l-12 35v94l8 76l-16 17l-94 -11l-11 -10l-20 -6l-10 -8h-25l-8 -15h-51z" />
<glyph unicode="+" horiz-adv-x="802" d="M96 723l8 37l46 16l20 -10l43 10l43 -14v12h82l6 31l12 139l9 6l-9 8l9 27l12 16l2 11h39v-11l8 -16v-147l6 -21v-26l21 -21h63l8 -6l62 6l32 -12l56 -4v-21l8 -14l-12 -23l-21 -4l-4 -10l-39 12l-35 -8l-10 6h-37l-8 -6l-10 8l-37 -8h-35l-12 -51v-160l-10 -22l-27 -9 h-27l-8 31v143l6 31l-14 37h-33l-12 10l-66 -4l-10 8l-37 -8l-67 4zM385 526l6 -10v10h-6zM406 485l6 -6v17zM406 526h6v4z" />
<glyph unicode="," horiz-adv-x="356" d="M61 -221l13 20l-6 4l8 54l12 41l8 51l13 4l-13 6l19 10l-13 4l13 23l2 -10h8l-10 30v21l-9 20l23 35l66 6l22 -6v-20l-12 6v-10l6 -11l10 4v-10l4 -4l-6 -18l17 -11l-15 -12l8 -8l-8 -8l12 -21l-22 -16v-25l-10 -24l-17 -13h-12l-12 -67l-25 -25v-24l-12 -13h-8v-24h-6 l-15 -17h-18v17l-8 10l6 6l-13 4v21z" />
<glyph unicode="-" horiz-adv-x="499" d="M25 705v51l28 20l19 -10l8 10h43l57 8l25 -18l53 10h70l22 -6l21 10l4 -4h12l4 -6l45 6l13 -33l-7 -34l-10 -11l-14 -4h-58l-20 8v7l-12 -11h-35l-8 -4v8h-19l-4 -8h-24l-11 -6l-37 12l-16 -6h-115z" />
<glyph unicode="." horiz-adv-x="323" d="M96 72v37l6 8v16l11 25l32 10l19 -10h31l10 -8v-21h6l12 -37l-8 -16l12 -33l-16 -8l-6 -25h-6v10l-4 5l-7 -19l-41 17l-10 -19v6l-14 4l-6 6h-6l-9 11v20z" />
<glyph unicode="/" horiz-adv-x="522" d="M-27 -156l13 23l8 -25h6v15l16 8l-14 22l12 115l6 14l11 56l6 8l10 51l4 -12l4 12v35l13 16l4 -20l18 26h-14l-8 9v16l6 -8l8 12h-6v6h16l10 10l-16 19l6 74l17 6l-11 6l4 35l11 10v35l20 59v39l17 8l4 29l16 33v24l12 27h-12l23 82v18l20 8l-10 15l16 33l-6 14l8 10v21 l12 6l3 47l6 14v29l26 33l-20 6l14 8v18l6 5l6 26l-8 6l8 21l5 30l10 11l6 20l-10 17l20 18l-6 6l6 21l10 10v47l11 20v27l10 27l14 67l23 56l-8 6l24 45h51l9 -10v-35l-7 -17v-22l-14 -15v-30l-8 -21v-20l-12 -37v-14l-11 -23v-14l-4 -6v-27l-20 -20l8 -35l-14 -35l-11 -6 l6 -8l-8 -48l-18 -53l-6 4l-4 -41l-17 -8l8 -26l-14 -31l10 -19l-18 -18l6 -16l-12 -41l-6 -7l-17 -53l-8 -8l8 -8l-8 -6l-10 -33v-14l12 -9l-24 -10l6 -14v-45q-9 -13 -21 -17l10 -18l-16 -6l10 -17l-10 -16v-8l-8 -6l6 -9l-12 -73l-15 -33l-10 -70l-10 -22h-6v-33l-6 -2 v-27l-15 -16l6 -6l-26 -103v-34l-10 -13h-21v-82l-6 -26l-10 -10l4 -5l-4 -26l-4 4l-13 -21l-6 29l-16 -49l10 -16l8 16v-14l-24 -27v-20h-21l-12 20l-6 -20l-8 12zM47 23l4 8v-15l17 13l-7 8v12l11 21l-4 2l-21 -35v-14zM68 -76h4v4zM68 131l2 -4l6 4l-4 4v10l-4 -4v-10z M72 51l4 6h-4v-6zM76 115h6v4h-6v-4z" />
<glyph unicode="0" horiz-adv-x="1107" d="M96 944l10 19l-6 14v207l15 47h6l14 24l27 27h6l47 47l14 8l7 19h10v14h10l4 -20l6 26l15 15v6l6 4l12 -12l14 8l-14 -21l10 -8l10 8l3 31l12 10h55l53 10h78l6 -6h9l8 -6l18 17h47l13 -13l30 15l37 -9l12 7h54l8 -11l41 -4l16 -16l6 -17h11l10 -20l26 -12v-9l23 -10 l18 -37h9l26 -24v-10q14 -18 27 -21v-10l-6 -6l6 -17l14 6v-51l6 -10v-43l-6 -8v-27l6 -10l-10 -4l16 -21v-16l-6 -10h6v-31l-6 -6l11 -10l-7 -107l9 -80l-7 -22l9 -96v-213l8 -109l-19 -70l7 -8l-21 -49l-22 -12l-2 -11l-7 -4v-6l-14 -16h-6l-14 -23l-13 -6l-47 -47 l-26 -37h-9v4h-6l-6 -14l-65 -21h-33l-4 7l-21 -11v11l-12 -9l-35 13l-10 -11h-66l-12 -6h-35l-35 11l-28 -11h-25l10 6l-22 -6l-31 6h-35l-14 11l-8 18l-10 -18l-3 10l-26 31l-17 4l-4 6l-16 6v8l-37 33l-24 31v16l-15 -6l-45 37l-20 41v61l8 51l-8 23l12 4l-12 21v57 l10 33l-10 24l8 6l-8 21v51l8 6l-8 17l8 22l-8 6l6 11v20l-6 12l-2 92l4 21l-11 20l15 11v24l-6 6l6 6v9l6 20h-27v27l6 6zM113 946h8l-8 4v-4zM147 874h7l8 9v20h-15l7 -20zM203 793l12 -7l4 -41l-4 -6l4 -16l-4 -6l4 -2v-19l-10 -8l10 -12v-76l6 -27v-84l-8 -40h12v-13 l-16 -10l6 -14l-4 -25l10 -4l-6 -21l17 -24l-11 -29l11 6v-20l14 -37h6l57 -57l9 -15l26 -18l8 -18h9l10 -15h14l17 -16h36l52 16l159 4l6 -10l11 6l24 6v-6l13 4l8 -4h26l7 8l55 43l10 17l27 14l45 57l12 35l4 -6h6v19l6 4l-6 20l-6 -16l-4 76l4 8v41l-4 14l10 6l-6 33 l-4 -19v84l-4 21v389l-6 10v25h-8l18 33l-10 18v39l-6 22l18 35l-16 -10l10 19l-12 -5v9l-103 98l-10 16l-35 17l-33 10l-34 -4v8l-23 -8h-96l-15 10l-12 -8l-8 8l-18 -8l-93 -8l-12 6l-8 28l-6 -8h-19l-8 -18l17 10v-10l-21 -25l-22 -4l-9 -16l-43 -49l-14 -9v-10l-20 -20 l-17 -31h-4v-63l-6 -21l6 -8h6l-6 -27v-51l-6 -6l8 -29l-12 -10l14 -8l-10 -8l8 -9l-8 -12l10 -33v-14l-14 -12l10 -4v-17l-6 -4zM313 1337h6l-6 13v-13zM354 102h11v27h-11v-27zM381 96l8 -4l6 4l-6 6zM416 1337l6 -2v-12h4v14h-10zM918 1065h4v4z" />
<glyph unicode="1" horiz-adv-x="661" d="M96 1264v10l13 10l28 47l82 62l47 26h10l11 8h47l4 -20l12 6h15l14 -16v-191l-6 -71h6v-7l-12 -12l12 -12v-141l-4 -11l2 -18v-135l4 -27l-4 -72l-12 -41l16 -6l-4 -20v-62l-6 -16h6l10 -25l-8 -4v-73l12 -72l-6 -6l6 -4v-113l-8 -16l8 -4l6 -78l25 -17h45l16 -10l47 -6 l11 -47l-6 -19l-11 11l-14 -13l14 -4l-20 -4l-4 -12l-21 -8l-47 4l-18 6l-15 -10l-49 -6l-39 10l-43 -15l-49 11h-20l-21 4l-26 -8l-21 12l-2 16l-12 11v53l14 8l10 -8q11 9 11 18l12 -4l10 4l31 -6l41 16l16 17l4 -10h10v30l-4 6v50l4 6l-4 12l4 35v145l-12 25l12 4l-4 59 l-6 21l8 12l-8 68l8 49l-8 18v33l10 14l-4 78l-6 4l6 88l4 7l-4 4v114l-10 29l10 27v94l-10 4v12l8 -10l6 14q-2 12 -14 17v14l4 6l-14 8v23h-29l-24 -17l-9 -20l-6 6l-14 -8v14l-14 -26h-19l-6 -6z" />
<glyph unicode="2" d="M96 334l10 41l-6 33l6 12l-6 4v184l23 31l-10 12l41 21l8 16l16 14l27 37h10l10 17l25 20l22 10l9 -10l36 10h99l10 -6h20l19 11l45 -13l43 8l14 -8l33 8l12 -6h21l16 8l45 -12l11 10h57l61 56l11 -8l22 45v22l4 2v105l4 6l-4 24l4 6l-4 5v129l-16 26v10h-10l-52 64 l-26 18l-8 13l-13 4l-8 8l-33 8l-35 -6h-84l-8 12l-6 -6h-47l-6 -6h-31l-28 8l-23 -8l-37 12l-29 -22l-12 -4l-88 -90h-4l-10 -25l-6 -37v-47l-19 -35h-26l-21 -6h-27l-12 12h-6l-8 47v91l6 36l92 88l10 15l11 6l6 14l30 23l7 16l51 25l88 -4l31 10l4 -6l10 6l80 -10l39 6 l37 -6l6 -6h8l-4 6l4 4h53l4 -4h82l12 -13h15l33 -28l4 -13h8l26 -47l17 -2l27 -22v-17l43 -22l14 -33v-22l6 -11l-6 -14v-57l-6 -9l6 -12h4v-207l-4 -6v-76l-12 -20l-33 -27l-12 -26l-33 -13l-15 -26h-24l-10 -35l-19 -6h-41l-8 -6l-6 6l-6 -10l-8 10l-13 -6l-4 6h-141 l-27 4l-14 -4l-45 2l-10 6l-7 -6h-24l-17 6l-10 -8l-20 2v6l-41 -12l-45 8l-17 -16l-34 -17l-11 -20l-43 -33l-10 -76l4 -8v-47l-4 -6v-52l-6 -4v-22l8 -8l-8 -7v-10l-6 -6l12 -10v-62l6 -65l-22 -43v-14l30 -7l37 -20h51l5 -16l38 16l27 -10l19 10l24 -6h57l17 6l22 -12 l29 6h61l13 6h41l10 -6l33 8l14 -18l21 10h34l6 -4h27l8 10l27 10l14 51v56l15 14l-9 43l11 10l-4 13l20 14h21l10 -6h41l10 -15v-122l6 -37l-6 -6v-111l-16 -25h-21l-22 -14l-50 10l-12 -12l-70 8l-12 -6v10l-12 -14l-37 12l-16 -8l-6 10l-17 -8l-18 8l-41 -10l-17 6l-22 4 l-2 4l-19 -8h-41l-28 8l-23 -8h-82v8l-14 -8h-74l-31 4l-10 -4l-6 4l-41 -4l-10 4l-10 -4l-4 8l-9 -14l-65 10l-15 31v139l-8 8l15 41l-9 29h9l-7 16v21z" />
<glyph unicode="3" d="M96 342l8 82l-6 10l6 4l11 27l18 4l12 -4l13 6l47 -6l12 -37v-63l-10 -23l10 -18v-52l10 -24l11 -10h6l37 -45l45 -37l20 -23l33 -4h41l35 -10l16 10l12 -12l9 6l6 -10l22 16h25l4 -6h57l4 -6l33 6h41l8 6l6 -6h47l11 6l-11 8v13h7l30 28l11 21l36 10v12l9 4v17l14 14 l6 39l-4 141l10 74l-20 100l-10 4l-31 37l-10 -6v17l-74 53h-82l-25 10l-6 -8l-61 -2l-21 8l-8 14h-12l-8 -20h-31v26l-14 -8v-12h-21l-6 6l-14 -8l-21 10l-10 49l10 11v16l14 10l27 -6l49 6l33 -6l12 10h66l37 -8l88 10l24 8l37 23l6 14l31 33l16 2l29 35v117l6 10l-6 10 l6 15v32l-6 6v29l-8 33l-29 43l8 14l-12 8l-43 15l-16 28l-19 11l-28 6l-27 14l-33 -10h-24l-11 10l-10 -10h-67l-21 4l-6 6h-14l-21 -10h-63l-19 6l-28 -16h-9l-16 -15l-43 -26h-8v-13l-17 -28h-14l-16 -43l-11 -94h-6l-8 -15h-22l-4 6l-21 -18l-27 12l-20 27v129l8 20 l27 37h12l25 31l88 88l20 10l14 17h13v-13h18l8 21l21 -8h221l12 -9l23 9l10 -9l12 9v-7l13 7l22 -7h90l33 -16l19 -33l30 -12l27 -43l35 -29l12 -32l-10 -19l30 -16h11v-6l-13 -13l9 -39h14v-67l-6 -12l6 -9l-6 -47l8 -16h-8v-25l10 4l-20 -96l-11 -6l-4 -12l-18 -6 l-15 -33l-14 -6l-4 -11l-12 -6l-21 -24l-16 -37l29 -25l8 -30l33 -17l8 -16l12 -10v-9l23 -16l18 -33v-67l-6 -31v-72l-4 -10l4 -16v-64l-4 -8l8 -27h-14v-20l8 -17h-8l-5 -51v-37h-10l-16 -8l-27 -33h-14v-12l-14 -8l-21 -35l-22 -12v-10l-17 -15l-31 -12v-12l-32 -23h-56 l-10 10q-1 0 -5 -1t-5.5 -1.5t-4 -2t-4 -3t-1.5 -4.5l-78 8l-15 4l-16 -4h-55l-27 8v-8h-8l-8 35l-23 -22l6 -13h-82l-36 8l-9 -8l-6 8h-8l-33 21v12l-20 10l-33 31l-4 17l-25 6l-14 26l-14 9l-4 8l-23 16l-20 29v35l-2 -13l-7 54l-6 10v30l6 11zM563 66l6 -15l11 15h-17z " />
<glyph unicode="4" horiz-adv-x="1036" d="M55 516l6 6l9 27v-19l6 -2v35l47 62v6l20 20l27 39v-22l20 14l5 27h16v24l6 8l-8 11l22 24l7 21l18 28l18 -26l21 75l14 15l6 14l15 12v9h6l8 -9l6 5l-14 22l35 35l20 41l21 26h10l10 9v26l23 21l12 -33l8 12v41l-10 8l18 19l13 4l6 20l8 7l6 14l21 20l6 -8l14 15h-12 l6 26l39 29l-15 8l25 43l25 8v19l22 34l12 -8l11 27h8l8 14l8 -6l29 12v-6l14 6l6 -6l9 6v-14l32 -6l15 -21v-41h-21v-20h21l-4 -16l10 -4l-6 -7v-77l6 -15l-6 -108l-11 -25l13 -12l-8 -39l6 -70l-11 -28l7 -13l-11 -10l11 -10v-72l-11 -20v-27l13 -18l-6 -29l-7 -6l11 -8 v-13l-13 -4l13 -26l-11 -4v-31l7 -15l-13 -22l13 -4l-7 -6l25 -60l8 11l8 -7l9 7l12 -25l18 18l29 -8v-10l10 -4h31l-4 -4l4 -6l10 6l-6 -39l-8 -19h-12l-9 -6l-12 17l6 10l-6 14l-25 -24v-9l-16 -8h-20l-13 -6l-32 12v11h-21v-41l12 6l11 -10l-9 -7h-14v-47l-12 -12l10 -6 l-10 -16h6v-7l-12 -12v-8l12 6l-12 -18l12 -9h14l13 -6l-7 -10v-78l13 -12q-3 -7 -25 -12v-6h25l14 -21v-14h109l18 -31v-16l-14 -17h-11l-8 -24h-33l-16 -7l-10 7l-4 -7h-51l-33 9l-15 -9l-14 7l-24 -15l-19 8h-4l-33 11l-4 -13l-57 9h-72l-27 10v45l7 10l6 -4l2 25l24 6 l21 -6l55 4l10 6v-8l15 8v-6h6l12 14l12 -8l17 8v19l-10 14l16 94v25l6 22l-12 -4l6 41l8 8l-4 21l-16 37l6 6l10 -11l4 11l-4 10h-10l14 10l-4 10h-10v-20h-10l-41 14h-27l-20 11v6h-11l-4 -17l-18 -4l-2 4h-94l-58 -10l-20 27l-6 -17l-5 6l-10 -6v11l-26 -5l-9 11l-12 6 l-10 -19l-25 13l-6 -6l6 -11h-73q-2 4 -21 11l-16 -5l-11 13l-14 -13l-24 -6l-33 11l-6 40l-2 -28l-7 14v35zM174 651l6 -6v10h-6v-4zM201 569l10 -6v-26h10l6 -15l9 21v-13l18 11q8 -15 18 -19l23 8l2 7l12 -7v-8h6l9 8h36l5 -8h6l-6 -16l6 -10v-15l10 -6l4 21l-4 6v14 l16 14h41l11 -20h26l6 18l27 4l10 -8l43 8l6 -4l37 2l10 7v-9h21l24 15v8l17 18v45l18 27h17v4h-4v10l16 9v8l-12 -6l-4 6l4 4l-15 12v-12l-6 -4l-8 10v14h8v13l-14 14v16l26 11v8l-6 6v-8h-14v55l8 14h-8l4 6v27l-4 10l10 25l-10 10v37l4 10l10 -6h11v19l-11 8h-14v108l4 6 l-8 7l8 8v47l-10 65h-6l-13 -12l-26 -8l-27 -45l-43 -57h-16v-25h-21l-2 -6h-6v-10l6 -5l-6 -6l-6 -20l-64 -94h-24v-25l-10 -10l-4 -21l-17 -22h-6l-10 -10l-10 6l-5 -4v-13l7 -6l-9 -26l-22 -23l-25 -49l-28 -12l6 -7l-6 -6h-9l-6 -24h-6v-17h-20v-10h6l-12 -14v-13l-9 -8 l-12 -26v-11zM315 500l9 -11l6 7v10zM365 852h6v6zM410 479l12 -18l8 22l-12 13zM502 1116l2 14l-2 -4v-10zM537 1100h6l-6 6v-6zM682 645v17h8l6 -7l-10 -14zM682 1378h8v13h-8v-13zM702 102h15v7h-10zM731 461l6 4h-6v-4zM758 35h14l-8 6zM791 35h4v6zM805 31h6l-6 4v-4z M836 465l10 -4h10l-10 8z" />
<glyph unicode="5" d="M96 254l8 14l-8 15v88l13 22v74l20 8h53l23 -41l10 -31l-4 -6v-30l-10 -5v-6l10 -6v-35h-16l6 -26l4 12l6 -27l10 -6l21 -41l14 -20l27 -10l61 -62l115 -6l10 6v-10l14 10l39 -6l8 6v-6h58l6 -14l27 8h55l20 12l37 8l17 17h14l39 37l10 26l35 25l8 14l6 47l-8 8l12 111 l-10 27l6 6v14l6 6l-12 8l6 21h12v6l-12 6v10l-6 5v12h12v31l-6 4l-8 -4l2 55l14 24l-8 9v6l-31 8l-10 20l-14 17l4 4l-4 12h-6v8l-21 -4l-20 21l-27 -4q-11 2 -16 14h-8l-25 -14l-76 4l-24 -6v16l-6 -10h-5v8l-16 -8v10l16 6l-26 12l-8 -20l12 -8l-8 -4h-60l-45 10l-6 6 l-10 -16l-41 10v10l6 4l-6 6l-10 -10v-10h-31l-18 -8l-27 8v4l-27 -10l-14 6l-10 -10l-8 10l-13 -8q-5 7 -26 14l-19 -10v8h-8l-18 10l-29 -4l-6 37v254l12 25q-1 2 -2.5 7.5t-3.5 8.5t-6 4v94l6 47v82l8 8l-12 25l12 29v22l19 8l4 13h-17l37 2l10 -21h17v19l10 8l70 -12 l55 12h41l35 -8l24 10l33 -8l74 8l35 -16h26l10 6l88 2l7 -19l14 19h125l8 -8l12 6h70l12 -21v-18l8 -12l-10 -39l8 -25v-31l-10 -12l10 -4v-45l-10 -12v-78q-11 -8 -16 -27h-62l-12 17h-8v61l-12 12l6 8h14l-2 39l-6 2l6 7v20l-6 12l6 4l-12 11h-11l-16 16h-45l-20 10h-27 l-33 -10l-43 10l-12 -10l-10 4l-11 -4l-10 10h-53l-8 4l-13 -10h-71l-21 6h-37l-4 19l-16 -8l6 -7h-27l-8 9l-16 -19h-33l-8 -4l-35 8q-5 -4 -10.5 -18t-13.5 -17v-211l-5 -8l5 -24v-109l-5 -4v-33l-6 -4v-22l23 -9l8 7l104 -7l11 -12l-13 -22l9 -23l24 25h10v-21h21v33 l20 12l-4 -12l11 -12l-7 -8l17 14l-4 14l8 6h35l12 -26l8 16l19 4h41l26 -14l10 12l33 12l10 -12l13 8l6 -6h20l11 -6l22 12h8l23 -20l14 14h21l12 -8h24l5 -12l36 -27l5 -14l6 12l37 -47l16 -10l35 -37l8 -23l-8 -14v-41l-4 6l-6 -20l6 -13v-41l6 -32l-6 -13l10 -12v-113 l-10 -10h-17l11 -10h6l12 -12l-8 -25v-45h-13l13 -27v-20h-10v-6l16 -17l-16 -30l-21 -21v-10l-66 -53l-43 -49h-16l-35 -43h-26v-11l-58 -4l-28 15l-6 -5h-21l-12 -10h-31l-10 4l-37 -4v10h-21l-36 -12l-48 10l-18 -8l-31 4l-26 6l-11 -6h-24l-6 6l-35 5l-70 51l-32 47h-9 l-41 47v10l-14 4l-20 33zM129 1169h8l-8 11v-11zM272 1346l11 -7v7h-11zM481 813l15 -6v6h-15zM489 1427l7 7h-7v-7zM670 109h12v8h-12v-8zM750 791h14l6 6l-6 10l8 8l-8 6l-4 13l-10 -21v-22zM795 770l6 -4l8 8l-8 6v6l-6 -6v-10zM831 1376h5v4zM856 1153l6 21l-6 -5v-16z M899 1427l10 -8l15 15l-9 -7l-6 7zM903 444l6 -4l-6 9v-5zM956 543h5v10h-5v-10z" />
<glyph unicode="6" d="M96 313v99h13v26l-13 8v13l13 6v14l-13 6v25l13 20l-13 11l6 6h9l-2 37l-13 -6v10l6 10v47l9 21v26l18 15l-12 6l-6 -15l-15 47l6 50l7 18l-13 45v45l8 31l-8 37v227l13 27l-7 14l9 10v17h18l61 71l9 4l6 13l16 14l10 16l5 -6l10 17h10l20 20l13 4l8 11h33l6 -21h20l9 10 l26 11h62l20 -5l23 5l18 -7l6 13l4 -6h13v-5l14 -6l12 6h29l12 11h76q3 -5 22 -11l9 5h26l54 -31l14 -15h6l4 -22h10l21 -25l8 -18l29 -12l35 -37l20 -37v-51l6 -49l-6 -50l-20 -10l-11 -10l-24 10h-17l-10 -6l-20 12l-11 29v74l-6 6v10l-14 21l-41 41l-16 10l-31 37l-25 18 l-98 -10l-6 6l-17 -6l-26 12h-29l-14 -12l-6 6h-13l-4 6h-10l-6 -12l-4 12l-10 -12h-48l-18 6l-27 18l-94 -94h-16v-16l-29 -29l-6 -22v-183l-6 -86l16 -30l25 -19h10l10 -8l37 8l53 6h283l18 -6l33 10l21 -10l6 12l6 -20l14 14h35l12 -6l39 -6l8 -14l46 -37l12 -21l24 -18 l11 -21l14 -8v-22l-8 -6v-7l20 -4l-6 -10h-14l4 -20l10 8l8 -12l-22 -9l-15 -20h15l8 6v-6l12 6l11 -88l-7 -62l-4 -4l-6 4l-6 -10l20 -6l-8 -8l4 -6v-35l9 -47l-9 -158l-41 -41l-24 -10l-6 -18l-27 -27l-25 -8v-19l-12 -4l-49 -53l-22 -4l-5 10l-20 -14h-47l-17 14h-26 l-4 -10h-21l-10 10h-6v-10l-21 -4l-6 4h-45q-24 5 -26 12l-13 -20l-28 12h-11v-8h-10v6l-26 -12v6l-11 -4l2 -2h-6l4 2l-4 8l-35 4l-18 6l-6 -8l-8 8l-21 -6l-6 12h-8v4h-15l-32 41h-19l-10 21h-8l-96 100v14l-7 15v57zM150 516h8v-16h6v16l-14 10v-10zM154 537l10 14l-6 10 l-4 -4v-20zM199 469l12 -10l-6 -37l8 -41l-8 -37l6 -14v-47l22 -25l9 -33l34 -10v-31l13 6l8 -6v-6h12l27 -20l8 -21l12 6h41l9 -6h12l4 -4h20l13 12l20 -10l33 10l8 -12l8 -10l6 10l39 12l-6 -8l25 -4l22 14l8 -10h15l14 6l23 -10h16l62 51l16 6l20 27l7 -12l8 12h8l18 29 l13 39l8 -6l20 24v6h-10v10h16l-20 25v82l-12 18l20 11l-8 10v41l-6 14v37l6 14l-14 15l14 6l-6 6v10l-6 10v15l-21 74h-4l-4 10l-27 4l-14 16l-22 17l-19 6l-49 -6l-25 14l-6 -4v-6l-51 -4l-33 4l-2 -4q-20 3 -31 12l-8 -8l-4 10l-10 -4h-27l-10 4l-10 -10h-21v10 q-23 -3 -30 -14l-9 6l-6 -6l-59 4l-33 10l-16 -10l-10 10l-7 -14h-20l-16 -6h-21l-4 -62l-12 -6l12 -92l-12 -21v-98zM283 778l10 37h-10v-37zM303 795h6v4h-6v-4zM309 811h4l-4 4v-4zM371 791l6 4l-6 4v-8zM629 1327h4v6zM748 137h24l-20 6zM840 313h6v-4zM872 299l11 4 l-6 6zM877 446l10 -8l10 6l-14 9zM883 406h10v20zM883 567l10 4h-6zM909 449l21 -5v9l-12 6zM918 584h6l-6 8v-8z" />
<glyph unicode="7" horiz-adv-x="962" d="M61 1128v72l7 21l8 53l-8 45v88l14 33l12 6l10 -8l25 10h166l6 -4l8 4l166 -4l21 -12l26 12l10 -4l17 6l29 -10l16 8l68 -4l12 -13h8l12 13h25l-4 -13h10l10 13h15l14 -17l16 11h21l18 8l17 -23l12 -6l6 10h20l15 -16v-27l-4 -8v-41h10v-22h-6l-4 -15h-4l8 -20v-21l-4 -6 l4 -6v-20l-6 -13l8 -18l-23 -21v-28l-26 -13h18v-10h-10l-10 -37h-13v-14l-6 -16v-29l-28 -47v-33l-21 -41l-12 -12l6 -4l-12 -39l-15 -12v-7l-41 -71v-6l15 12l-19 -53l-16 -15l-4 -20l-21 -21l-6 -22l6 -4l-24 -47h-15l-18 16l-6 -6l-4 -27l-6 -4v-6l20 6l12 -27h-16 l10 -16l-6 -8h-10l-17 -47l-20 -17v-41l-10 -30h-11l-8 -47l-12 -4l-4 -17h-12v-43l-33 -86l-43 -72v-16l-37 -68h-47l-6 -8l-25 15l-6 4l-16 -4l-2 34l14 41l6 7l14 26v8l31 74v12l27 50l10 10v20l16 17l29 90l18 8l-6 4l21 27v26l24 49l7 -14h10l6 43l20 27v35l11 41 l14 16v20h27v31h-7v-14h-4v20l11 10l6 27l24 29l31 94l12 16l2 15l13 10l6 22l6 7l14 49l21 41l20 26l15 6v21h-5v25l5 6v14l10 21l6 -9v109l12 12l-6 27l-16 -8l-6 14l-15 6l-37 6l-65 4l-6 -4h-41l-54 4l-10 -4l-14 6l-33 -8l-76 6h-186l-37 -12v-86l-10 -31v-32l-8 -7 l8 -8v-26l-10 -11v-10l-27 -4l-10 -6h-31zM362 180l5 17l-5 -7v-10zM492 434l4 -6h6l-6 12zM559 573l4 -10h10v6l-10 11zM563 496l8 -9l11 19l-19 26v-36zM569 647l4 -12h17v12h-4v15zM715 1047l4 -7l6 11zM848 1268l6 6h-6v-6z" />
<glyph unicode="8" d="M96 1116v27l6 14v47l7 17h-7v6l29 24l6 23h10l29 39l8 -17l9 -6l8 25l10 4l6 20h8v21l17 -4l10 4l4 -4l12 24l-6 -4h-14v10l28 15l-6 8l60 14l35 -10l12 8h31l26 -8l8 8h41l13 6l6 -8l49 11l47 -11l27 13l71 -15l6 10h27l8 -14h35l8 -27l-6 -10h33l22 -18l-12 -19h31 l6 -4l-6 -6l14 -6l33 -29l-8 -10l8 -8h8l27 -21l10 -14v-37l-4 -4l4 -67l-10 -11l6 -6l-6 -6q5 -17 18 -20l-18 -29h16v-27l-16 -6l6 -20l6 14l8 -35l-8 -6l8 -10l-4 -25l-10 -4l12 -8l-10 -33l-35 -22h-14l-12 -31h-15v-27l-20 -20v-21l-11 -16q3 -6 12.5 -13.5t12.5 -13.5 h12v-8l43 -39l-8 -8l17 -6l-5 -4l23 -8l12 -13v-20l-10 -10h10l11 -11v-12l8 -12l-11 -11l9 -24l-9 -59l17 -27l-8 -16l4 -46l6 -12l-6 -43l6 -45l-6 -4l-4 4l-11 -8l21 -8v-15l-10 -20h-6v6l-21 -6l-16 -21l12 -10h25v-16l-21 -21l-6 -14h-19l-8 -8l-8 8l-4 -6v-31l-18 -16 l-3 -8l-32 -37h-11l-43 -54h-38l-17 -4h-92l-27 9l-20 -13l-6 4l-10 -4h-35l-27 8v13h-14l2 -13h-21l-8 7l-33 -15h-45l-30 -12l-64 27h-8l-19 20l-32 21l-13 30l-61 41l-33 41l-20 12l-8 58v108l-9 54l11 24l12 10v11l-12 -11l-2 52l6 8l-13 12l11 31l-7 22l5 15v41l16 20 h18l13 27l6 4l14 26l33 37l20 17l5 -6l6 6l-6 8v24l-15 -8l-28 41l-17 33h-12l-10 -6v14l-23 12l-22 48v45l-9 12l9 18l2 93l6 6zM117 428l6 -20v-11h6l8 27h-8v4h-12zM195 1110h10l-4 -49h10v-37l-6 -6l10 -10v-31l-6 -14l12 -13l10 -28l5 -39l6 26l6 -6v-8l10 6l10 -18 l8 -4l13 -17l-8 -6l22 -25l41 -10l6 -14l31 14l10 -10h17l22 -8l19 14l6 -6l14 6l20 -8l15 8h69l15 4h53l8 -4h64l-4 10h8l16 15h10l17 16l14 31h19l28 35v18l6 4l15 37l6 4v41l-6 12l12 9l-12 6l6 6l-12 8l-5 64l5 4v37l-7 22l7 8v17h-9l-6 6l-26 8v16l-4 4l4 19l-23 -14 l-22 14l-13 35l6 6v35h-18l8 -31l-4 -10h-20l-19 14v18l-18 -8l-4 6l-6 -10h-7l-14 -14l-6 4l-14 -6l-7 6l-22 6l-14 -6h-35l-21 10h-18v-14h-82v8l-14 -8h-37l-15 8v-20l-20 12l14 14h-26l-7 -20h-8v10l-6 -4l-8 -33l14 8v-8l-47 -41l-12 6l6 -16l-8 -19l-33 -22v-41 l-10 -16v-11h-10v-12zM195 1194l6 -4h4v14zM197 391l8 -14v-35l-4 -18h4l-4 -35h4v-6h10l6 -11l-16 -4l6 -6h14l6 -20l66 -66l20 -14l7 -19l16 -14l51 -6v-14l10 -13l7 13l47 4l8 10h18l2 -10h27l-14 4v6h98l4 -6h23l28 16l47 -4l9 -16h12l33 43l14 2l6 18l31 8l6 -6l4 39 l31 8l14 37v27l6 6v8l-8 10l10 19l-8 12l6 6l-8 10l8 17v14l-6 6v47l8 21l-8 4v16l6 4v33l-8 15l8 14v39l-8 8v27h-12v-21l-41 47l-8 21h-19l-22 33l-56 18l-8 10l-6 -16h-27v6l-12 -8l-8 8l-6 -8h-8l-17 14v-12l-6 -2l-8 16l-6 -14l-33 6l6 12v15l-6 6l-21 -21l9 -10 l-13 -10h-30l6 8h-13l-8 -6l-131 -8l-45 -17l-10 4q-4 -15 -19 -24l7 -4l-7 -17l-53 -65l-12 -29l8 -8l-8 -37l4 -20l-4 -17l10 -16l-6 -10v-25zM242 1282l20 -6l8 18h-28v-12zM248 1339h4l-4 4v-4zM743 61l11 -6v11zM750 82l4 -6l-4 10v-4zM780 1323l4 -8v-19l13 27h-17z M821 1288h15v31l-9 -4zM895 1184l8 6h-8v-6zM915 903h5v6zM930 950h6v13h-6v-13zM940 268l6 4h-6v-4z" />
<glyph unicode="9" horiz-adv-x="1069" d="M96 1073l8 8v140l9 20l39 41h6l8 16l86 74l18 39l35 16h53l21 13l4 -6h37l20 -7h21l22 -8l9 15l10 -13l16 -4l8 10l6 -6l13 6h14l27 7l8 6h27l26 -13l6 -22l35 29h25l16 -7h51l33 -34l8 4l10 -23l-10 -8l19 -18l-6 -9l20 -4l4 11l4 -7h15l8 -14v-12l35 -13l32 -38v-7 l17 -16l12 -39v-98l-4 -10v-58l4 -10l-4 -4v-16l4 -5l-8 -12l8 -4l-4 -16l4 -15v-247h-8l-17 -17h11l10 6l4 -26l-4 -4v-64l-10 -20h-21l15 -15h16v-20l-10 -6l14 -7v-133l-12 -14l12 -12l-10 -60l6 -12l-23 -12l13 -13v-18l-6 6l-7 -49l23 -18l-4 -4v-11h-12v-20l-56 -58 h-16l-15 -14v-18l-71 -70l-31 -6h-53l-25 12l-12 -12l-10 6l-19 -10l-26 10l-6 21v40h-15l-12 -14l6 -18l-27 -43l-18 10l-53 -8l-31 12l-41 -10l-31 18v13h-8l-10 -35l-29 14v8l-6 6l-8 -20h-27l-20 20v27h-12l-9 -12l-12 6v6h6v8h-26l-23 41l-25 10l-24 23l-6 14l-8 -4 l-27 31l-6 20l-6 7v20l14 25l-8 6v26l6 9l-12 12v31l14 12l-8 8l-6 20l-2 -10v19l14 8l6 14l-20 10v11l8 -4l12 14l-20 6l28 14h13l-7 -8l11 -22v-21l-6 -12l16 8l10 51l10 11h25l6 -15v-16l6 -6v-25l-8 -29l8 -8l-6 -6v-35l-16 -14l6 -18l-6 -3v-59l35 8l12 -12v-6l6 -4 l-6 -10h22l15 -27h12l8 -27v-24l10 -4v-7l17 11h24l4 -23l27 21v-11l16 9l11 -7h37l22 9l19 -21v-35h26l6 -6l11 8l-11 21l23 18l6 13l14 -7l-2 -26l15 12v6l32 13l19 -11v-20l4 -6l6 6v24l49 13l12 -9l29 9l96 78h11v10l10 10l14 37v248l6 10l-10 80l10 18v31l-6 10l6 4 l-8 19l8 24l-8 6l8 9l-6 6h-14q-12 -8 -14 -27l4 -18l-4 -6l-13 4h-35l-12 6l-14 -6v16l-15 -16h-57l-10 6l-6 -6h-10v6h-31l-4 4l-13 -4l-8 8l-39 -14l-2 10l-6 -10l-6 6l-10 -6l-25 16h-16v-6l-10 -10h-17l-33 20l-14 -14h-29l-18 -10l-47 16l-21 -10l-22 10l-6 45h-11 l-10 -41h-10l4 10l-10 37l-4 -16l-37 4l-39 45l12 8l-6 10l-14 -6v17l-8 8l-11 -6l-8 22l-20 -10l-2 61l-7 13l7 10v24l-7 23l-6 4v109l6 10zM147 852l19 8v41l-10 -10zM152 303l8 -27l16 15l-6 28l6 13l-16 -6zM166 182l6 -6v6h-6zM166 207l6 -4v4h-6zM193 881l4 -17v17h-4 zM197 358h10v21zM201 332h6v14h-6v-14zM213 885l10 -11l10 -36h5v-11h10v-6h10l12 -8v-16l9 -21l6 -4l20 21v-13h21v-8h14l20 8h19l16 -22l19 14h10l4 4l27 -4l14 12l6 -12l14 6l13 -22l6 20h72l8 -8l6 8h16l6 -6l31 6l66 4l16 -4h92l33 4v-4l4 4v21l10 16v78l-6 20v64 l10 27l-10 18v68l6 30l-6 19l8 28l-12 11v20l-10 21v14l-10 -21l-17 9v12l-8 -2l-68 61l-47 21l-24 4l8 16l-10 -6l-25 -4v25h-16v-11l-10 -20h-62l-8 8l-6 -8h-27v20l4 7h-10l-20 -21v10h-11l-6 -20l-24 4l-9 16l-20 -6l8 -12l-90 -8l6 -6l-39 -25l-8 -16l-82 -82v-289z M233 203l5 4h-5v-4zM248 92h22l4 39l-10 25h-6l-10 -21v-43zM291 57h16l-8 -26l-6 -6l12 -15h10l4 27l-4 12l-4 43l-6 -8h-14v-14l8 2zM334 39l6 -8h18l-14 20zM367 51l12 12h-12v-12zM383 59l10 -22h15l12 -10h4v30h-10l14 15h-29v18zM451 23l10 -13v-4l10 21l-6 10l10 6 l-16 27zM498 6l14 10l-6 7v14l-8 -14v-17zM518 43l4 -6l4 6h-8zM547 1370h12l6 6zM559 23h8l13 8l-13 18v8l-8 -8l8 -18zM610 78l4 6h-4v-6zM614 1421h7l-7 6v-6zM760 715l12 4v6l-12 6v-16zM782 743l19 -18v20l-8 7zM827 725l15 6l6 -6l6 14h-20zM842 119h6l10 16h-10v10 h-6v-26zM848 162l6 -6v10zM879 657l6 -10v-10l14 8l6 37l-6 6l-4 43l-6 -6v-68l-10 11v-11zM899 606l6 4v11l-6 -5v-10zM946 641l10 6l5 10h-5zM956 616l5 -6v6h-5z" />
<glyph unicode=":" horiz-adv-x="323" d="M96 963v41l6 16v31l21 16h27l8 4l6 -10v-10q5 -2 10 -17h4v13l12 8h25v-8l-10 -7l16 -6v-10l-6 -4v-21h-14v-16l10 -16h10l-6 -49l-37 -13h-47l-22 13l-7 24v10zM98 393l11 15l-7 6v26l7 9l-7 16l15 33l26 10h60l8 -16v-11l20 -20v-33l-6 -8v-53h-12l-10 -21l-25 -4l-4 4 h-10l-10 6l-15 -8l-30 10z" />
<glyph unicode=";" horiz-adv-x="346" d="M51 -227l12 10v41h15l-12 16v15h26v16l-14 -6l-6 16l6 4l20 37h-16l8 35l8 -8l6 20h-16l16 41l2 99l19 14h14l31 -14l8 8l8 -15l9 17l12 -10h12l10 -41l-12 -17l4 -10v-27l-4 -4l4 -4l-4 -26l-10 -11l-14 -26h-7l-16 -15l14 -14l-18 -53l-23 -39l-14 -39l-45 -37l-6 6 h-15zM76 813l8 25l2 -21h16l7 21l-5 14v35l-12 16l-14 -6v14l33 17l20 -10l-6 -9l8 -6l6 10v11l11 -11l4 11h10l6 -37l6 -4v-11h12l-12 -41l14 -12v-35l-14 -14h-72v27l-12 -23zM78 872v15l14 -4l-6 -4v-17zM84 -156l8 -12l-6 -29v-10l23 14l-5 13v33zM115 90l10 -22l4 -7 l10 7v8zM129 -37v-14h10l-6 4v10h-4zM145 862h5v10zM160 31l6 -4l14 14l-4 14h-10v-20zM190 51l7 4h-7v-4z" />
<glyph unicode="&#x3c;" horiz-adv-x="841" d="M96 760l6 26h9v15l18 6l21 20l40 15l5 -8l34 32l29 8l33 21h24l9 18l32 9l23 22l27 6l12 13l57 24l41 27h23l12 -21h12v11l8 4v28l17 8h24l58 41l51 7l10 -5v-43l-8 -30l-21 -6l-30 -4l-6 -17h-27l-4 10q-10 -2 -17 -14l-10 8l-6 -41h-24l-7 13l13 4l8 16l-27 4l-8 -10h8 l-10 -19l-33 15l-6 -6v-11l8 -10v-26l-20 -17l-29 -8v33q-19 -5 -22 -19h-11v-26h-24l-39 -23l6 -6l-29 -12l-16 16l-4 -16l4 -6l-8 -21l-58 -27l-10 11l-12 -13h-6l-15 -57l11 -10l12 -25l8 8h21l6 -8h8l-4 -32l16 14l21 -2l14 -19l33 -4l72 -37l22 -22l33 -10l26 -19 l88 -35l17 -16l74 -41l8 -22l6 -5l-6 -4l6 -14l-18 -41l-19 18h-27l-34 37h-21l-12 -6l-12 12l-23 9l-25 18l-47 14l-26 29h-21l-10 12l-43 21l-27 20h-14l-61 37l-27 25l-4 16h-10l-11 -12l-16 27l-18 -11l-29 17l-10 26h-8l-9 -8l-30 33l-2 20zM211 688h10l4 8h-14v-8z M211 756h4v14h-4v-14zM221 743h10v23h-6zM483 942h6v14l-6 -6v-8z" />
<glyph unicode="=" horiz-adv-x="802" d="M96 864l23 25l33 14l24 -4l10 -10l11 10h41v-4l16 -12l20 20h31l12 -4l13 6l49 -6l4 -10l4 10h37l14 -14l19 18h8l12 -8l47 8l6 -16l23 12v-8l27 12h36v-4l-10 -4l25 -12l-10 -9v-22l-5 -25h-77l-7 4h-20l-8 7l-6 -11h-17v4l11 7l-7 4l-20 -11h-21l-6 9l-16 -15l-19 13 l-24 4l-6 -11h-11l-4 -4h-67l-6 4l-6 -10l-9 10l-26 -4h-27l6 11l-8 6l-8 -23l-10 6h-66l-6 15zM111 590v31l22 24h27l14 -6l35 8l31 -10l45 8h166l6 -6l14 6h53l8 -4l27 4h68v-20l10 20l4 -4l10 4v-4l37 -10l4 -33l-4 -18l-20 -7h-27l-4 5l-21 -9h-30l-19 -8l-8 8l-12 -6 l-4 6l-17 -6l-2 6l-6 -6h-84l-16 8l-19 -8h-67l-17 6l-24 -6l-43 6l-96 -8l-27 12zM631 860l16 29v12l25 -6l16 -16l-14 -15l14 -6v-10l-10 -21l-29 4z" />
<glyph unicode="&#x3e;" horiz-adv-x="841" d="M96 1044l6 11l21 6v24l14 -16l27 -4l6 6l25 -22l20 -5l4 -6h12l5 -10l36 -10l4 -6l27 -15l33 -8l31 -22h18l21 -23l26 -2l27 -27l61 -20h10l15 -12l12 -4l25 -25h16l20 -23h29l10 -14l37 -16h15l12 -21l-6 -16l6 -4v-45l-14 -19l-39 -4l-9 -16v-10l-26 -11l-8 -8l-7 21 l-6 -17l-30 -4l-21 -16l-26 -6l26 -11h-26l-7 9l-26 -43l-29 -11h-16l-17 -24l-34 -6l-21 -23h-49l-6 -24l-17 -5l-10 5l-6 -5v-16l-31 -16h-10l-4 -11h-6l-10 -10l-7 8l-14 -14h-16l-6 10l-15 -24h-26l-9 -21l-12 6l-2 9l-12 12l-8 24l14 11l8 20l27 -4l8 25l33 12l16 14 l31 17l18 -11l12 15l-14 6l33 14l8 -20l23 45l12 -15l-4 -4v-10l8 -10l25 53l10 8h29l32 31h25l31 33h16l20 20l11 2l4 6l20 7l21 14l6 16l12 11l-74 41l-26 26h-25l-12 10h-8q-2 1 -5 3t-5.5 3.5t-4.5 3.5t-3.5 5t-2.5 6h-16l-23 20h-20l-45 21l-21 20h-10l-10 6h-10 l-54 23l-14 12l-31 13l-55 28v17h-20l-7 16v14zM356 549h9l-9 4v-4z" />
<glyph unicode="?" horiz-adv-x="962" d="M84 1106v86l6 -10v41l27 45l45 32l16 7l8 26l27 29l29 22l34 15l15 16h53l-8 -26h16v26l21 4h84l41 -10l34 10l41 -12l50 12l18 -10l6 6h27l24 -12l23 -27l14 -8l10 -12l11 -2l30 -39v-21h13l35 -28h8l22 -47h10v-113l-6 -68v-73l-8 -21l-26 -12l-31 -45l-17 -8l-6 4 l-16 -41l-55 -47l-35 -37l-21 -10l4 -7l-20 -14h-8l-21 -31h-8v4q-4 -2 -8 -14.5t-12 -13.5v-10l-21 -9h-14v-8l8 -8l-64 -64l-14 -133l-18 -14h-27l-22 10l-19 17v151l4 4v21l17 16l4 -20h6l6 -13l14 27v35h17l4 26l20 17l6 10l39 23l6 22l37 25l11 18l32 37l15 8l20 27 l10 6l11 14l57 47l45 64l-14 16l8 51l-8 9l4 12v70l-25 20l-49 61l-22 17l-11 20h-20l-12 13h-35l-13 -7h-49l-12 7h-55l-31 -7h-59l-37 9l-39 -39l-10 -4l-11 -13h-10v-14l-41 -27v-16l-14 -6l-12 -39h6v-10l-9 -8l11 -21l-25 -59l-41 8l-16 -8l-2 6l-27 6zM369 102l10 21 l6 33l25 8h51l28 -12l9 -29v-88l-13 -25h-45l-28 -10l-25 12l6 6l-12 9zM406 592l12 8l-8 8l-4 -4v-12z" />
<glyph unicode="@" horiz-adv-x="1114" d="M96 807l6 47v47l7 12l-13 25l13 12l-13 13l15 30l-2 11h-11l11 53l-7 35l7 12l2 35l-9 6v29l7 12l2 -12h6l6 16h6v27l25 24l16 -4l4 10h4l19 43l43 45l6 -16l10 6l16 47h21l16 14l17 35l34 19h37l9 -13l32 17l31 -4l10 -6l64 12l22 -12h33l6 6h35v-6l10 6h101l28 -6l17 6 l61 4l31 -6l16 -25l27 -16l6 -11l41 -34l35 -37l-6 -10l10 -11l6 -45l-4 -8l8 -20v-134l-12 -14l10 -63l-6 -17l4 -30l-4 -17v-45l8 -16h6v-4l-14 -11l18 -18l-10 -35l6 -26l-8 -70l8 -43v-68l-6 -55l-55 -10l-13 -6l13 -21l-6 -6l8 -6l-15 -14v-15l-34 -33h-15l-10 -6l-6 6 l-16 -14h-52l-43 12l-10 -18l-2 6h-47l-16 6l-78 4l-11 -4q-16 5 -20 25h-10l-23 10l-14 16l-6 17l6 8h-19l-8 16l-18 15l22 43h-12v20l-12 21l6 10v41l-6 33v82l6 24l-6 12v72l14 47l25 25l14 31l14 6v12l41 12h43l15 6h155l27 -10l72 23v28l12 11v26l-6 10v113l-17 33h-4 l-37 45h-6l-14 16h-27l-32 13l-11 -11l-10 11l-22 -9h-43l-21 13l-10 -13h-27l-10 -4l-4 4h-27l-41 9l-24 -9h-80l-14 7l-7 -7h-41l-6 -14l-45 -14v4l-14 -27l-27 -14v14l-12 -20h-4l-4 -27l-13 -8l-4 -12l-55 -43l-6 -45l-6 -9v-53l-10 -20v-21h4v-16l6 -4v-11l-6 -6 l12 -14l-6 -53l-6 -4l6 -4l6 -158l-6 -60l10 -32l-4 -11l-6 -47l-10 -10l4 -25l6 -10v-33l8 -12l-8 -12l-6 -25l12 -22v-51l-8 -21l8 -20l-12 -7v-16h6l8 -22l-8 -7h-10l-5 -6l21 -10l27 -45l30 -23l15 -30h6l49 -47h6v-17h12l21 -14l24 -6l5 -8l12 4l4 -4l18 6l19 -13 l20 11h17v-25l8 2v-8h12v20h14l7 11l28 -13l33 13h78l6 -4l39 4l12 -13l25 9l-6 -13l12 -6l6 23h45l19 -9l18 9h86l47 -17v-67l-10 -21l-37 -8l-8 -6h-53l-25 6l-10 -6h-146l-10 -6l-31 6l-37 -6l-12 6l-10 -4l2 -2h-6l4 2l-4 4h-186l-9 10h-24l-8 17l-15 4l-6 -21l-6 4v17 l-21 16h-24l-10 20l-11 9l-6 20l-14 -8l-47 51l-55 47l-41 54v49l-9 41l9 14l-7 33l9 20h-9v17l7 10l2 63l-5 17l7 37l-4 22l-7 10l9 11l-9 47v37h7l-7 26v76l7 6l-7 4v21zM111 1149l6 16l-6 -6v-10zM170 279l4 18h-4v-18zM252 203h4v6zM551 84h6l-6 6v-6zM584 772l10 -18 l-6 -15v-20l8 -17l-10 -8l6 -20v-78l18 -37l-12 -6l27 -4l22 -12l-8 -9l31 -4l20 -12h21l12 6h35l12 -6l25 -4v10h10l10 6h47l12 13l13 -13l6 21h4v-13l6 -4l6 25l13 22h14l12 7l8 -7l2 11h13l-13 10v10l-8 -6h-16l10 47v21h-8l2 43l-8 26l12 25l-6 10v35h-6v37l6 10l-6 16 v31l-6 17v22l-31 12l-10 -6l-11 15l-47 -9h-166l-47 -47l-14 -22v-23l-6 -16l-8 -58l4 -4zM991 575h6v5h-6v-5zM991 631h6v-4l9 -11v31l-15 -10v-6z" />
<glyph unicode="A" horiz-adv-x="1292" d="M31 51l6 45l8 27l21 6l12 -12h10l16 18h25l16 -12l11 6v-6h4l6 12l24 2l-4 13l11 6l14 24v8l27 13v41l12 12l-12 4v16l-7 5l29 14l-8 8l6 2l-8 6v6h8l6 9h8l-16 24l18 49v31l11 21l10 -11l-4 23l8 35l16 32v41l17 15v30l4 27h16v47l10 21l-6 6l19 76h8l14 16v27l13 40 l14 76l8 -8l12 14l7 72l8 47l12 21l18 73l23 52v26l6 4l12 -14l11 14l-13 4l11 7l4 38l-4 23l-17 16v-43h8l-10 -20h8l-10 -8l-6 26l-6 2l-4 19l-25 16l-6 -22h-25l-16 26v8l-6 7l-6 -15h-4v8l-21 -8v-12l-10 -8l-21 20v64l15 22h16v-8l10 4h48l8 4q21 -4 24 -12l23 8l63 6 l21 -8l33 6l20 -6l33 8l8 -6l31 -4l14 -16v-11l21 -20v-27l6 -20l-6 -4l16 -19v-20l16 -45l4 -74h5q4 -15 18 -24v-25h8v-39l12 -8l9 -64l6 -10v-10q14 -46 61 -217v-37l10 -29v-39l7 -8v-12h14v-45l16 -17v-16l11 -27l6 -2l8 -53l6 -6l-6 -25l12 -6v-20l-6 -4l10 -37h4 l7 -10l-11 -5v-12l-10 -8v-18h14l13 6v-6l6 -2l-6 -7h-25l-8 -14l39 2l16 -41l-22 -8l14 -23l12 7l13 -15l-29 -12l18 -10h13l6 -11l-8 -14h8v-16l-10 -8l18 -11l-35 -10l31 -14l16 18h21l24 -18l11 6h36l7 -6h26l23 -11l8 -38l-12 -41l-19 -11l-33 9l-14 -15l-6 4l-10 -4 l-37 6l-4 19h-6l-7 -10l-4 6l-18 -21l-14 21l-25 -11l-8 -10l-43 10l-10 -6l-19 13l-24 -15l-25 8v5l-16 -5h-39l-9 21l19 20l-19 -8v8l-14 -6l-6 17l6 37l12 8h29l27 6l20 20l6 -26h11v18h8l6 15v30l-10 10v37l-4 11v38l-17 7l17 8v12h-11v12l-16 15l-4 26l-12 11v34l-15 7 v6l-22 16l-33 12l-12 -14h-52l-14 6l-12 -6l-6 6l-33 -10l-35 14l-65 -10l-23 8l-25 -8h-47l-8 10h-18l-8 6l-15 -16h-39l-16 -16l-14 -62h-11l-8 -33l-12 -14l-4 -24l10 -11l-10 -6v-31l-10 -10v-45h-11l-6 -12l6 -8l31 -19v-22l10 2v-8l15 -17l6 10v21l20 6l21 -6l10 -14 v-41l-6 -7v-26l-8 -10l-37 -5l-11 11h-26v14l-4 6v21l-10 -4v-48l-43 -6l-5 17l-10 -6l-16 8l-10 -8h-41l-11 -5l-4 5l-12 -5l-4 5h-27l-10 -5h-41l-22 11l-9 20h-26zM258 82l16 6l-4 4zM258 274l6 -6v6h-6zM270 51l4 -6h5l-5 10zM311 129h4l-4 6v-6zM326 129h6l-6 6v-6z M336 485h6v4h-6v-4zM383 96h6l-6 6v-6zM397 537l62 -21l-2 -8l8 2l10 -16l17 16h26l14 6l17 -8l43 6l8 -4h105l18 -10l6 8l6 -6l6 12l9 -6h53l6 14h14l6 -6l11 25l-9 8l19 4l-12 4l-15 16l-14 95v26l-16 -8l-11 74l-12 41l-8 57l-6 4v12l-13 13l7 8v8l-21 39l23 14l-7 7h-10 l-20 20l-10 57l-7 4v21l-10 45l-24 57v60l-27 4l-21 -4l-12 -13l12 -10l-12 -4v-20l-24 -27l6 -31l-27 -20v-21l4 -6l-20 -20v-11l-4 -4l6 -8l-13 -24v-15l11 4v-10l-15 -31v-32h-10v-21h-26l10 -14v-21l-10 6l-9 -26h17l-23 -57v-50l-26 -45l-11 11l-6 -17l10 -14v-8 l-20 -21v-63l-6 -15v-20zM436 508l2 -12l11 14zM444 469l7 12l-7 -6v-6zM471 1343l4 -4l10 4v13h-14v-13zM477 1081l15 -6v12l6 3l-6 12l-11 -6zM481 1065h11v10zM492 1110h6l-6 6v-6zM512 1153l6 4v6zM590 1169l6 5h-6v-5zM631 1241l6 6h-6v-6zM631 1282l6 -6l6 12z M956 150l7 6h-7v-6zM956 207h7v4h-7v-4zM963 184l6 6l-6 7v-13zM963 248q8 12 26 14v6l-26 -10v-10zM969 82l8 -10v20zM973 207h10l-6 14l-4 -4v-10zM993 68h4l-4 8v-8zM1030 176l8 4h-2zM1081 51l11 4h-11v-4z" />
<glyph unicode="B" horiz-adv-x="1171" d="M96 66l33 51h14l17 -6l24 6l6 6h27v-14l10 -27h-6l-10 10v-78h-59l-11 47h-12l-14 -12zM117 1358v18l12 8l-8 15l16 16l33 6l10 -10h27l10 10h21l16 -20l25 4l4 12l12 -6l6 8l39 -18l6 16h62l16 -6l37 8l16 -8l12 6v-6l19 -33l8 6v23l37 10l4 -16l-4 -37l-4 -6l14 -2 l15 24l-7 23l27 10l6 -8v-8l10 -6l15 26h33l6 -6h20l14 6l17 -12l37 12l4 -12h4l8 14l14 -14l25 12h43v-26l20 6v-6h27l21 -27l2 -14h12l10 -13l10 6v-6l27 -30v-56h10v21h21l20 -21l6 -16v-14h9l6 -7l-6 -10v-35l12 5v-25l-14 -8l8 -92l12 -13l-6 -59v-68l-17 -30l-36 -37 l-11 -4l-30 -33h-17l-6 -23l-20 -18v-14l12 8l16 -41l31 -15l25 -40l20 -21l8 -16h17l8 -15v-12h4v-289l-16 -30v-17l16 -6l-10 -8v-10h-11v-17l15 -26q-21 -18 -43.5 -39.5t-50 -48.5t-41.5 -41h-9l-57 -48l-4 -8l-12 -6h-191l-26 6l-11 -6h-14l-16 14h-15l-16 -14l-25 27 l-20 4l-6 -21l-37 -4l-14 13l10 16q-6 19 -15 24l9 9v30q-12 -4 -17 -20v-16l-10 -48h-10l-4 48l-11 -5v-51h-36l-25 8v21l-6 12l-14 -26l8 -7h-25l-4 27h-12l-6 -20h-4l-5 -11h-20l-35 15l12 10v33l7 14l-7 23l17 14v10l20 4l-8 8l8 13l-6 18h6l15 -18v43h12l8 -11l21 11 v10l-17 8l8 6l-30 15l-17 -43v-13h-8l-6 21l4 20v78l6 21l-6 26v33l21 2v12l-17 6l12 9v12l-20 4l8 102l-4 19v186l10 103l-6 10v20h14l19 31l8 -4l-2 29l6 8l-6 55l6 25l-6 16l4 14l-4 39h-12v-16l-10 -10l10 -17l-6 -47h-13l-8 43v76l6 41v43l11 10l6 39l20 -14l21 8 l-11 25l15 26l-15 4l-14 -4l-8 25l-14 -17v-41l-5 -10v31l-26 27l-31 10l-10 -4v4h-17v22l-20 -16v18h-10l-17 -14h-14l6 6zM129 1376l8 -12v16zM150 1343l14 7h-4zM156 82l4 4h-4v-4zM160 1358h4v6h-4v-6zM254 1370l4 10h-4v-10zM268 1384h6v7h-6v-7zM270 858l9 -16h4 l-4 16h-9zM289 868h14l-14 4v-4zM301 815l14 -24h7v20l-7 6l7 8zM303 176l6 -63l6 4l7 24l-7 9l9 14l-2 12l8 8l-6 6zM303 1317h6l6 12zM309 1157h6v6h-6v-6zM315 242l7 -11l-7 17v-6zM317 856l13 12l-6 11zM322 1059h8v-10l12 -11v37l-6 6zM336 1004h6v4zM338 190h12l15 -8 l-11 -10l17 -16l-4 -13l10 -6v-14h47l14 -14l17 14h61l14 -14l43 14l23 -10l39 10l6 -6l182 6l27 35h12l27 20l18 8l15 25l24 27v8l25 8v8l-8 -4v4l-13 -4l-6 16l6 66v63l-4 5l4 24v119l-35 63l-8 27l-45 21l-22 30l-49 19v-15h-5l-10 21v-21h-47l-20 13h-37l-31 10l-6 -10 l-31 -7h-119v7l-16 -11l-45 15l-21 -17l-6 6l-20 -20l-6 -20l-9 -7l15 -10l-15 -43l9 -18v-109l6 -10v-121l-15 -14v-21l9 -20v-21l-15 -6l15 -6v-25l-25 -14zM338 1362l8 -6v-6l10 6l-14 -31v-33l20 4l-6 7v14l-6 6v12l21 -6l6 -6l6 12l-6 15v14h-10l-5 6zM346 895l21 -8 v-25h-17l12 -10l9 -21l-4 -10l10 -20l6 10h82l14 -8l29 8l14 -6l47 -4l31 4h76l12 -8l82 8l10 6l21 -6v-4l41 -8q7 22 16 24v21l21 20l4 10l30 19l50 65l-17 11l4 24v72l13 10h14v16l-10 21l-17 16v27l6 2v23l-12 22l-16 10l-25 56h-6l-8 -17l-15 10l5 21l-21 -4l-4 4l4 16 l-12 -12l-31 23h-18l-21 10l-47 -4l-8 6l-6 -6h-33l6 4l-26 4l-35 -6l-6 12h-11l-8 -20h-12l-6 6l-21 6v14l-10 -20h-37v14l-8 12l-12 -6l-11 6l11 21l14 12l-29 8v21h-6v-27l10 -20l-10 -13v-14l-8 -14h-23l-10 14l-6 -14v20l-20 -12l-23 -27l-8 -39h-6l-4 11h-11l6 -9 l-6 -12l-6 4v-14l23 -45l-6 -8v-27l10 -8v-13h-6l-11 -10l17 -30v-15l-15 -12l15 -14l-6 -52l8 -28l-12 -25l-11 -8v-16l6 10h5l10 -15v-12zM367 750h16v6l-6 2zM367 1380l4 4h-4v-4zM377 784h6l4 7l-4 6l-6 -6v-7zM406 1389l8 -13l4 -26l8 32l-12 15zM418 776h10v25h-10 v-25zM461 113l4 4h-4v-4zM469 51l6 4h-6v-4zM496 51l14 4l-8 6zM508 39l2 6h-2v-6zM508 752l8 -9l6 7v14l6 14h-10zM655 741l7 -18l14 35h-14zM735 770h4v6h-4v-6zM760 743h16l-6 7zM862 35l6 4v16l-6 -10v-10zM868 784h15v-14h18v35l-16 29l-17 -13l6 -10v-10h-6v-17z M874 1313h15v-4h14l-2 26zM909 1337h6v19h-6v-19zM936 1210h10l4 4h-14v-4zM940 913l10 -24l13 6v-16l14 14l-21 27l7 4h-13zM963 1245l8 10l-8 -4v-6zM967 231l4 7l-4 4v-11zM967 1266l4 6h-4v-6zM967 1288l10 8h-6zM977 909h6v11l-6 4v-15zM983 246l4 -29h6v31h11v14 l-7 10zM987 1178l10 -21l13 41l-6 6v10h-7l-4 7h-6v-43z" />
<glyph unicode="C" horiz-adv-x="1087" d="M96 403l13 31l4 35h-11v74l7 10l-7 16l-6 123l21 23l6 49v37h-27v88l10 10l-10 25v53l6 10l-6 4v74l21 4l-21 6l13 4l2 23h-15v90l25 49l43 35q26 35 83.5 91t67.5 67l23 8h27l12 -10l14 14h41l6 -8l11 4h30l8 10l37 -10l39 10l8 -10l33 -4l8 4l21 4h33l4 -19l16 15l25 4 l10 -8l6 4h66v-25l6 -12v-14l12 20l-6 6h26l15 -18l24 -15l9 -18l20 -10l14 -27l31 -16l14 -31l33 -31l4 -61v-141l-12 -37h-76l-12 -6l-8 18v51h-6v15l-4 6v30l10 11h-10v12l6 4l-6 16l4 2l-4 7l-5 39l-20 14v20h-12l-9 -6l-18 37h-20l-2 10l-17 6l-10 35v21h-12v-23 l-21 -8l-10 6l-31 4l-4 4l-10 -8l-187 -6h-98l-53 -31l-2 -10l-80 -78l-20 -14l-5 -19h-6l-10 -14h-16v-14l16 -25v-264l-25 -35l9 -8l6 16l10 -43v-69l6 -19v-45l-6 -6l6 -55v-74l-8 -16l8 -35l-6 -16l6 -25l-10 -10l10 -11l-8 -14l10 -16l-8 -82l16 -29l11 6l10 -20 l39 -23l12 -24l12 -13l-18 -18h45l14 -31l29 -4l37 -16h78l4 -4h26v10h88l15 -16l20 10l62 6l16 -16l41 41l21 10l8 16h18l15 31l12 6l20 20l15 46v36l6 15l-6 41l6 12v66l6 6v22l31 -8l8 18h43l20 -22l-10 -25l16 -75l-6 -13l4 -6v-129l-41 -47l-10 -20l-14 -5l-10 -16 l-11 -4l-53 -64h-8l-33 -30h-6l-16 -25l-31 17l-14 -13l-31 4l-82 -10l-6 6l-8 -4v8l-13 -8v14h-8l-8 -26l-31 12h-24l-4 4l-17 -8l-35 18l-10 -22l-37 8h-80l-20 21h-8l6 8v6h-27v6l-33 21l-24 34l-19 13l-8 30v21l-35 -10l-12 24l-8 -4v10h-12l-25 35h-10l-14 21v104z M109 1044l2 11l-2 -6v-5zM143 444l7 5h-7v-5zM150 217h2l-2 4v-4zM170 469h8v12zM649 1378h4v6h-4v-6zM700 1432h7v6h-7v-6zM707 1378l4 6l-4 13v-19zM707 1419l4 -2h6l-6 8zM752 1370l4 -4l24 10l-8 8h-20v-14zM752 1405h12l20 12l-16 15h-16v-27zM897 1106l10 -10h6v14 h-16v-4zM897 1126l10 4l-4 7l-6 -7v-4zM903 1038h10v11l-10 6v-17z" />
<glyph unicode="D" horiz-adv-x="1228" d="M96 63l10 50l66 6l12 6l21 -10l28 14h13l8 16v269l4 6l-4 35l4 24l-6 47l6 6l-6 15l22 22l-16 41v129l6 6v21l-6 10h16l-16 17l6 14v20l-6 7l6 4v26l-6 25l10 18l-10 29l6 10v53l10 9l-4 20h-12v19l6 14v104l-6 15v82l-8 32l-43 41h-14l-7 -6l7 -10l-13 -4l-14 14h-14 l-15 -12l-26 29v63l26 14l23 -6l16 17h82l6 -7l6 7h25l10 -13l6 6h27l47 11l41 -11l20 7l19 -7h61l33 7h68l32 -13l31 11l21 -11h28l21 13h20l15 -13l53 11l63 -46l21 -20v-6l10 -8l4 -17l17 -26l16 -11l8 7v-7l12 -4l52 -47v-6l10 -20l10 6v-6l29 -29l6 -23l27 -24v-43 l-7 -10v-119l11 -19l-11 -18l-4 -72l4 -10v-37l7 -4v-33l-7 -8v-78l13 -39l-15 -133v-233l-61 -74l-57 -51l-41 -51l-37 -19l-29 -37l-25 -16l-12 -25l-28 -10h-21l-6 8h-10l6 -4l-8 -6l-21 8l-8 29h-6v-14l-10 -27h-25l-27 6h-67l-31 6l-41 -18l-119 12h-30l-31 4l-8 -6 l-33 6l-12 -4h-150l-45 4l-20 13l-7 34zM365 156l16 -31h22l21 -6h41l6 -4l82 4l14 -13l13 9l10 -6l6 14l37 -8l37 4l26 -4l76 4l25 -10l26 30h4v-4l11 4l6 13l108 112h19l28 47l11 41v41l10 51l10 11l-6 6l6 20l-6 6v21l10 10h-10v10l10 11v10l-10 10l-10 21v55l8 24l-8 9 v221l6 12l-6 86v80l-13 63l-34 39l-21 11v18l-14 8l6 8l-12 -4l-6 4v7l-17 10l-18 26l-47 29v12l-23 23l-12 -6h-92l-19 -6l-20 6h-31l-12 6l-43 -6h-74l-8 4l-39 -4h-41l-33 -8l-12 -45v-41l-6 -7l6 -88l-10 -47l12 -278l-8 -29v-393l-8 -8l8 -29v-176z" />
<glyph unicode="E" horiz-adv-x="1187" d="M96 31v61l21 23l41 -4l37 8l20 -4l16 4l11 20l4 115l6 25l-6 12v31l6 4v47l4 10v94l-4 10l4 62l6 4v12l-6 4v47l6 27l-6 8l6 6l6 27l-6 47l-6 4v10l18 19l15 29l4 20l12 10l-8 27l-6 -10l-10 10l12 24v27l8 25h-12l-10 10l-7 -35h4l-6 -55l13 -12l-15 -37l-14 30l8 7v30 l8 17h-10l8 24l-6 21v61l-10 17v229l4 41l-10 10v31l-68 10l-8 8l-6 -14l-27 12l-12 12l-8 -12l-8 4l-7 21v51l9 20h26l-6 13h39v-21l8 21h6l6 -13l21 13h248l4 -6l37 6l12 -8l18 8h95l30 -6l11 6h104l21 -6l28 6l17 -6h155l10 6l5 -6h47l6 -7h10l16 -10l15 -37l-6 -4v-114 l8 -41l-8 -103l-21 -20h-43l-24 14l-9 21v36l-6 17v76l-12 32l-21 21h-14l-10 -6h-98l-31 6h-33l-12 6l-37 -6h-78l-27 4l-14 -4h-115l-47 4l-4 6l-47 -16v-11l-10 -18l-4 -178l-6 -15l6 -16v-78l-12 -30v-52l-9 -10v-16h-6l8 -15v-32l13 -11l-6 -4l6 -16l-6 -10l6 -17 l16 29l10 -37v-27l9 15v20l-5 6l15 21h22l8 -8l7 14l6 -6l37 6h55l12 -6l47 10l49 -10h72l53 6l15 14v33l14 45l29 17h20l21 -17l4 -8h6l4 -43v-102l-8 -58l8 -26l-4 -37l-10 -10l-6 -21l-25 -4l-37 4l-10 27v47l-10 20l-17 11l-28 6h-74l-17 6l-57 -10l-37 8h-28l-21 10 l-22 -14l-33 16l-31 -14l-18 12v10l-11 4l-10 -4v-20h-14l-6 16l-15 -26q0 -3 1.5 -5t3.5 -3t5.5 -2t4.5 -1l-6 -10v-10h-9l6 -15l-12 -28l6 -4l2 -31h7v-16l-9 -11l9 -10l-9 -10v-45l-6 -6l6 -6l9 -27v-113l6 -41v-145l6 -21l-6 -14l10 -12v-21l18 19l43 -6l54 8l61 -8h41 l10 -7l27 7l4 -13h10l-8 11l18 6l7 -4h24l15 -9l22 13l59 -11l172 11l27 20v141l14 46l56 6l24 -6v-17l11 -8v-84l4 -16v-170l-15 -17l-10 -4l-6 -10l-4 6l-17 -6h-65l-12 -6l-15 6l-24 -6l-27 6l-43 -6l-31 6l-10 6l-10 -6h-10l-19 -8l-26 8h-27l-8 -4l2 -2h-6l4 2l-4 4 h-99l-14 6l-33 -6h-76l-24 6l-12 -6h-103l-57 6l-10 14l-11 7l-4 -17h-26l-27 -14l-25 14l-20 -10l-41 16l-10 -16zM272 436l4 -26l11 -9l6 29h-10v6h-11zM289 545h4l-4 8v-8zM291 631h6v16zM297 600l12 6h-6zM303 905h6l-6 6v-6zM338 745h12l-12 7v-7zM365 752l6 -7v21h-6 v-14z" />
<glyph unicode="F" horiz-adv-x="1155" d="M96 1382l13 25h12l12 10l21 4l6 -6l69 6l7 -4h20l4 4h12l4 -4l21 10l10 -10l68 10h92l16 -6l11 6h73l35 7h47l21 -17l24 17h21l12 -13h27l30 15l11 -9h86l6 -6l10 13v-17l16 17h27v-13l21 -4l8 10h12l-6 -10l10 -10l21 6l-9 14h9l4 7h18l8 -17v-53l27 6l14 -10v-51l6 -6 l-6 -7v-102l-10 -10v-21l-10 -41l-10 -14h-37l-21 20l-4 15v110l6 43l-6 23l-43 -4l-51 6l-14 -6q-20 4 -21 14h-16l10 -6v-6l-33 12l-18 -10l-25 -4h-84l-33 6l-65 -12h-64l-22 6l-27 -6h-63l-31 -15l-16 -26l8 -8l-8 -7l8 -8l-8 -14l6 -10v-125l-15 -13l15 -14l-6 -8l6 -6 v-78l-6 -4l6 -10v-74l6 -72l14 -47h31l8 8l8 -12l11 4h47l28 6l11 -10l28 10h21l4 -6l6 6l25 -6l45 6l10 -10l37 12l18 -8l45 8l19 -8l63 16v11l17 16v55l20 21h25l26 -8v-19l15 -24l-9 -17l13 -4l-9 -12l7 -27l-7 -26l11 -37l-6 -8l6 -9v-43l-11 -4l7 -28l-4 -9v-24 l-19 -17h-29l-20 17v10l-12 -6l-4 68h-11v20l-10 12l-6 -6h-10l-11 -6h-34l-21 12v4l-29 -18l-12 8h-22l-9 -8l-8 8l-8 -6v8l-16 -8h-37l-31 8l-27 -12h-96l-10 10l-37 -10h-37l-10 -47v-72l-10 -10l8 -14l-10 -9l8 -10l4 -67l-6 -66l6 -4l-6 -17l6 -77v-105l-4 -4v-10 l-6 -10l10 -21v-10h47l4 -6h21l8 8l22 -12h48v-23l12 -12l-10 -60h-33l-17 -14l-8 4l-26 4l4 -8h-15v6l-16 -6v4h-61l-31 -10l-21 10l-20 -10h-86l-8 14l-6 -12l-35 12h-17l-14 17l-12 26l6 21v24l37 13v-13l-4 -4l4 -6l16 23l25 4l12 -13l35 19l10 -23h10l10 23v20l-10 -6 l6 27v98l7 8l-13 13v94l6 8l-6 6v21h6l4 6l-4 4v51l-6 41l8 10l-8 6v15l15 6v27l-9 10l9 10v21h-5l5 10l-9 4v16l9 4v7l-9 6l9 6l-5 4v16l-4 4v25l9 -4l12 10v10l-14 15l-11 -27l-8 8l6 4v37l-6 4l12 17h-6v98l6 6l-6 8v27l10 16l-16 15v10h12v10l-12 6l14 13l-18 18v45h10 v27l6 16v51l-16 43v35l-6 41l-14 27l-11 6v8h-16l-14 -20l-7 6h-14l4 10l-24 -12l-39 8v8h-9zM154 31h4v4zM276 936l19 -8l-10 16zM307 109l12 20l-12 -4v-16zM1006 1149h16v14zM1026 1282h16v12l-6 2l-6 -8zM1030 1339l6 -10v-26h11v40zM1067 1210l6 4v17l-6 -10v-11z" />
<glyph unicode="G" horiz-adv-x="1101" d="M96 270v70l6 45v158l7 61l-9 51l9 21l-9 45l9 16v228l-9 59l9 78l12 -15l-10 43v64l6 31l57 57h10l6 -10l15 16l8 -10l8 14v21l29 43l22 -10l7 24h20l-4 21l12 20l8 -18l-6 -13h15l6 17h-6v20h12l8 15l27 10h41l16 -4l31 4l10 -10l12 12l15 -6l6 -21q6 16 22 25h54v-10 l16 6h41l10 4l66 -4l22 6l68 -12h24l6 -11l11 6v-6l20 -10l21 -35h6l49 -57l23 -10l30 -33l8 -14h9l12 -88l-19 -5l17 -8v-123l-10 -20l-11 -6l-8 -15l-39 11h-26l-17 16l-12 98l8 27v14l12 11l-12 24l-41 37l6 16h-20l-12 21v10l-41 12l-13 29l-28 6l-17 -8l-28 14l-27 -12 h-20l-7 6l-6 -6h-35l-10 6h-37l-10 -6l-35 6l-6 6h-33l-8 8v13l4 2l-4 18h-6v-47h-27l-4 6q-2 -1 -7.5 -2.5t-8.5 -3.5t-4 -6h-10l-11 -6v6h-16l-10 -6v6l-29 -29l-12 9l-13 -11l-2 -26l-20 -25h-27l-16 -16l-4 -11h-6l10 -4l-10 -6l-17 -41v-26l-4 -7v-49l-10 -43v-30l4 -4 l10 -177l-14 -131l-10 6h-11v-20h11l8 8l10 -22l-8 -50l4 -34v-181l-10 -22l10 -88l-4 -10l4 -4h16l78 -74l21 -29l41 -43h49l8 -16l10 12l4 -6l21 6l14 -14l27 10l20 -8l-2 -4l8 -17h7v19l28 10l6 -12h13l4 -4l30 14l7 -6l12 6l25 -6l32 12l11 -10l32 37h13l98 96v6l14 21 l27 14v31l18 18l-10 8v53h12v5l-12 4v32l6 15l-6 6l6 31v34l-8 -4q-1 20 14 23l-6 2v27l15 -7v29l-21 14l-2 31h-6l-17 21l-36 -4l-9 16l-12 -12h-31l-4 -11h-47l-16 17h-15l-8 -15l-6 9h-26l-7 -4h-20l-31 30v17l14 34h17l10 7h25l20 6l21 -13l39 7l8 6l12 -13h55l11 7 l20 -7h21l12 -14l6 4v10l20 7l35 -7h31l16 -6l15 -14v-154l6 -20l-10 -12v-21l4 -6l-4 -45l4 -10l-11 -6v-21h-4l15 -16l-4 -9l4 -6l-11 -26l7 -6v-15h-7l-4 -10l7 -6l-9 -25h17l-4 -98l4 -10l-4 -23l-7 -2l7 -6l4 -27l-11 -10l15 -14l-8 -80l-11 -21h-20l-33 -14l-4 6h-27 l-16 51l8 11l-10 24l2 37h-8l-15 14l-43 -24l-6 -12l-53 -39l-14 -27h-25l-14 -29l-23 -6l-34 4l-17 -4h-47l-20 8l-19 -6l-8 6l-21 -4l7 -4v-6l-54 6v4h-20l-4 -6l-37 6h-51l-11 -4v4l-30 17h-15l-20 32l-37 21l-10 25l-17 8l-106 106zM150 1116l4 -6v-8l4 4v22zM256 1282 h16v10h-10zM268 1309l4 -6l11 20l-15 -6v-8zM268 1335l15 8l-15 -6v-2zM469 1397h6v8h-6v-8zM496 1397l6 8l-6 -4v-4zM909 449h6l-6 6v-6zM918 412l6 -21v21h-6z" />
<glyph unicode="H" horiz-adv-x="1376" d="M96 1378l8 17l-8 16l23 23h12l8 6h64l24 4h111v-12l14 8v-10l97 16l43 -6l24 -25l-12 -69l-21 -15h-43l-16 -6l-39 10l8 -16l-31 -4v-31l11 -6l-6 -4l6 -10l-6 -9l10 -94l-10 -16l6 -6l-6 -6v-72l-5 -4l5 -6v-31l-5 -16l5 -5l-5 -53l11 -8v-78l18 -51l49 14h45l15 -12 l12 6h16l4 -4l13 4v-4h14l10 10l21 -10l8 -10l8 14l17 6l4 -6l16 -4l8 -12l6 12l13 -6l6 18l8 -8l14 6h37l19 -8l18 8h31l18 -18l49 8l9 10h18v-10l12 -16l9 22l14 8h26l46 17l12 -10l4 4v26h-10v17l10 37l-16 14v119l10 26l-10 35v57h12l4 11l-16 6v20h16l4 4l-14 11v22 l6 4v31l-33 41v6h-31l-14 10l-53 11l-6 6l-9 -13l-14 43l8 11l-8 14l14 27l25 12l-16 -27l18 6v-6h8l6 11l-6 4v10q16 -3 17 -14h4l10 14h94l12 8l9 -8h53l4 10l10 -10l10 6h99l4 -10l33 -6l-21 -7l14 -14v-6l13 -4v-21l8 4l-8 -30l-19 -17l-75 -4l-11 -4h-26l-11 -12 l-4 -29v-73l-6 -37l-6 -11l-4 -16l10 -8v-12l-14 -5l20 -20l-14 -12l14 -25l-6 -49l6 -12v-88l-6 -11v-30l8 -9l-8 -28l-6 -6h12v-25l-6 -12v-25l6 -10v-145l6 -15l-12 -57h-14l20 -41v-47l6 -8l-18 -19q5 -12 16 -14v-58l-4 -10l4 -73v-78l5 -56l12 -10v-14l53 10l25 -12 l30 8l25 -16v-50l-8 -47l-21 -4h-73l-27 -4l-84 4l-29 10l-12 -10h-41l-6 6l-14 -6h-37l-8 -4l-27 25h-21v26l9 21l-9 10l7 21h28l17 16h30l17 -6l30 12l11 35v-27h14v37h-8v57l8 11v10l-8 4l8 10l-4 11l10 12v14l-10 17l12 18l-12 66l4 14h14l-16 29l18 22h-10v10l6 6h-26 v17l24 -8l6 12v31l4 10l-14 -17l-6 7h-14v59l14 8l-4 8h-10v33l22 10l-8 17v10h-8l-6 -16l-9 20l9 21l10 10l-4 12l-15 -22l-16 26h-16v-10h-27l-29 12l-24 -10l-19 18l-16 7l-6 -21l-31 -6l-61 6v8q-12 -2 -17 -14l-8 6l-12 -6h-115l-8 14q-11 -2 -16 -14h-21l-14 6h-41 l-8 12l-11 -8l-2 -10l-12 -6l-20 12l-21 -12h-31v16h-10l-16 -67l-6 -6l6 -5l-6 -6v-10l6 -4v-10l-6 -6l8 -43l-8 -13l8 -16l-13 -10l15 -80l-10 -8l6 -7v-32l-19 -9l19 -10v-47l-8 -22l10 -15l-8 -18v-12l-9 -19l15 -6v-10l-6 -6l6 -5v-20l-13 -18l13 -15v-8l6 -6l4 -41 l70 -8l10 -11l18 17l35 -19l8 -32l-8 -47l-10 -11l-21 -4l-14 4v6l-8 9l-25 -27l-59 8h-74l-8 -4h-33l-14 4l-47 -16l-43 20l-15 -6v6l-20 -4l-12 37h-9v25l7 6v20h14l20 21h21l10 -10h17l4 6l41 14l6 -4l22 10l-12 41l4 10v72l6 21v26l8 8l-8 9l-8 22l14 39l-6 16h-6v15 l6 10l6 37v26l-12 5l-6 20l22 16v4l-22 9l6 32l18 11l-22 30l4 23l10 16l-14 15l4 10v47l-4 14l4 21l-6 16l10 23l-8 28l6 11l-6 22v25l4 6l-4 92l4 21h-6l6 20v129l-6 10l6 6l-8 21v78l-23 57l-47 10h-28l-15 13l-6 -17l-20 21v14zM305 254h12v14zM436 739h15v13zM440 766 l4 6v14zM797 739l6 -4l4 4h-10zM823 793l6 -13v13l-6 4v-4zM854 780l4 -14l6 6v25zM963 760l14 -12l12 18v27l-8 8l-8 -15l10 -6l-4 -14zM993 31l6 -4v-7l7 9l-7 6zM1004 1346h6l-6 6v-6zM1016 760h8l-4 12zM1020 549h10l-10 16v-16zM1030 987l33 6l-21 11l21 10l-12 10h-15 l-6 -4l6 -6zM1032 885l12 -21l7 -20l6 4l6 37l-12 -4zM1036 31h4l-4 4v-4zM1065 1153l6 -4v4h-6zM1077 1186l8 -6v6l-8 4v-4z" />
<glyph unicode="I" horiz-adv-x="708" d="M137 1376l6 6l11 29l36 8l3 -4h73l21 4l22 -14l45 10h109l16 -10l45 14l17 -16h10v-51l-10 -21l4 -6l-21 -20l-112 -5v-43l-6 -4v-20l-7 -16l7 -9v-47l6 -12l-13 -8v-33l7 -4v-31l-13 -6l13 -20l-7 -5l7 -6v-20l-7 -6v-15l7 -6v-47l10 -74l-17 -8v-4h13v-190l-6 -7v-14 l6 -6v-113l-6 -6l6 -26v-82l-6 -13l6 -18v-41l-6 -12l8 -111l-8 -6l6 -14v-27l8 -39l20 -14h39l4 -11l17 -4l14 15h16l31 -15v-84l-29 -12l-30 8l-43 -10h-53l-7 6h-61l-23 -8l-22 8l-49 -10l-29 10h-4l-33 4l-8 -4l-18 21l-9 28l21 27v10l20 21l47 -4l66 20l-4 4v240l4 4 l-4 16v25h4l6 10l-10 12l4 2l-4 27v98l14 15l-18 32l8 27v103l-4 24l4 27l6 6l-6 4l-4 47v145l4 25v123l-6 8l6 8l-4 92l-17 33l-20 10l-6 9l-12 -13l-7 9h-12l-8 8l-18 -13l-29 5l-21 20v37z" />
<glyph unicode="J" horiz-adv-x="1058" d="M96 236l6 45l11 18l-4 33l-7 10v102l7 7l2 32l10 -10l8 14h21l8 -10h16l10 6h15l12 -18l8 -53l-8 -17l4 -6v-98l10 -53l6 -2l7 -17l28 -12l13 -31l51 -33l12 -22h35l16 -8l60 8l10 -6h78l10 6l6 -6h27l20 10h14l33 43l19 8l14 21l33 16v12l26 25l9 14l16 15l4 94l6 10 l-6 16v58l6 6l-6 12l12 12l-8 84l8 9l-6 16l6 14v27l-12 20v82l12 13v24l-6 4l8 17l-14 14l12 12v88l7 13l-13 18v37l6 8v27l-6 16v47l-6 10l6 5l-6 18l6 43l6 -8h9l-2 47l-19 8v78l-8 20l4 7l-14 20h-27l-4 -6h-23l-10 6l-10 -6l-31 6l-24 10h-21l-14 -14l-27 31v45l10 37 h35l10 -7l11 7l4 -7l12 7l76 6l6 -13h16l9 13h53l35 -6l12 6h14l6 -6l9 6h133l33 -47l-15 -17h8v-43l-34 -10l-27 6h-45l-21 -14l-16 -17l-4 -77l-12 -39l6 -8v-15l-10 -20v-21l18 -20l-12 -37h-17l-10 -10l31 -4v-60l6 -8v-41l-6 -16l8 -45l-8 -39v-86l6 -13v-41l-6 -28 l6 -54l4 -151l-4 -49v-160l-16 -33l-46 -47l-28 -12l-10 -19l-9 -4l-12 -20h-8l-6 -6h-10v-21l-21 -20l-31 -17l-10 -20l-10 -8l-6 -13l-41 -16v8l-13 10l-14 -12l-86 -16l-33 12h-61l-21 -6h-51l-53 12l-21 21l-14 8l-47 47l-4 10l-21 21v16h-20l-33 31v6l-12 12l-16 43z M791 1253l8 4l-8 5v-9zM799 760h6v6z" />
<glyph unicode="K" horiz-adv-x="1255" d="M96 1356v41l15 20v13l18 8l2 -4h23l4 -7l20 11h12l5 -4l10 8h67l7 -4l67 8l-8 -19l22 15h25l18 6l35 -6l25 6l16 -14h25v-17l12 -16l-6 -10v-31l-6 -4v-17h-21l-8 4l4 7l-4 10l-8 -14l-25 -11l-4 -6l-32 -6l-29 -16v-19l-6 -14v-74l-15 -8l19 -16l-15 -7l11 -10v-155 l-6 -17l6 -20v-146l8 -8l-31 -8l8 -12h9l6 -17l6 17l14 -33l29 14l18 19l17 30l14 -6h20v31l21 33l12 8l21 26h6l10 21l12 -6l21 43l33 14l10 21v12l24 29l11 -5v7l26 36v13l33 20v13l29 10l12 10l-6 6l8 10v21l47 51l27 35l6 18l10 2l10 13h-16v10l6 4l-26 6l-5 6l-34 -10 q-4 12 -19 14v21l-6 6v10l-8 10l6 15l2 26l12 11l15 4l24 -10l13 10h47l10 -8l20 8l66 8l41 -10l35 12l47 -12l22 10l6 -8l11 6q1 -4 4.5 -5.5t9.5 -2.5t8 -2v-17l21 -20l-19 -15l-2 -51l-61 4l-29 -10h-24l-11 -6l-32 -6l-15 -14v-9l-20 -12v-10l-53 -62l-15 -10l-6 -10 l-18 -14l-13 -17l-10 -22l-25 -25h-16l-4 4l-6 -4v-43l-35 -14l2 -6l-16 -27l-19 -14h-26v-9l6 -6v-20l-21 -21l-10 -22h-8l8 -25l-8 -8l29 -29v-30l22 -31l8 -21h8l15 -55l12 -8l19 -49v-12l14 -9v-12l10 -10l4 -17l10 -14l7 -31l16 -16l14 -21l27 -67v-16l10 -9l27 -47 l26 -57l2 -21l11 -8l-11 -8l7 -10v-17l22 -12l10 -27h7l8 -36l6 -4l8 -21h6v-37h10l7 -6h34l13 -12l14 8h27l6 -23h14v13h29v-23l8 -20l-8 -15l6 -6v-10l-27 -27l-41 -4l6 10l-10 11l-10 -17v-8h-37l10 4l-30 4q-13 -2 -15 -14l-6 6h-94l-82 -10v10l-45 8l-12 -4l-27 25v67 l43 23h51l11 -6l12 10h8v47l-12 12l8 9l-10 10v14l-17 33l-12 12l-23 70l-16 16v21l-10 -6v12l-10 27l-17 22l8 27h-8l-6 10h-12l-10 47l-19 31v24l-14 -8l-15 41l-6 6l-22 82l-27 12l-8 39l-14 37l-27 31l-20 6l-15 -25l-47 -22h14v-6l-26 -25l-6 -14l-23 -12l-16 -39 l-19 -11l-18 -32l-21 -13l-10 -20l-20 -8v-23l8 -6l-14 -25l-15 -10q18 -9 21 -26v-41l-27 -6l-6 -15h12l6 10l15 -16v-25l-11 -20v-16h11v-11q-13 -2 -15 -14l-8 6l8 -22l9 -4l12 -21v-94l-6 -14l6 -43l29 -31h26l8 8q20 -10 23 -25l6 7h20l11 6l4 -6h12v-17h-16v-14l4 -6 v-45l-8 -17h-33l6 10v15h-10l-6 -29l-11 8v21l-10 -8v-17h-20l-6 4l-48 -12l-36 12l-7 -8h-69v8h-25l-16 -14l-47 6h-8l-21 12v9l-12 -13l-15 43v41h15l14 17h74v-6h6l10 10l25 10h14l8 37l-12 10v17l12 14l4 -6l-4 32l-12 5l-4 10l4 6v78l6 10l-10 10l4 109l-4 8v72l16 8 l-6 4v10l-12 25l14 14l-8 12v142l6 18l-8 17l8 55l-12 31l6 49l-8 28l8 29l-4 21v51l4 14l-4 27l12 12l-12 14v15l4 6v16l-4 4l10 11v26l-16 8v74l6 6v27h-27l-26 8v6l-15 6l-10 -6h-16l-4 10l-11 4l-12 -8h-29zM170 1335l14 8v7h-6l-8 -11v-4zM258 588l10 -8h8v10l-6 6z M272 842h4l7 12l-11 -6v-6zM289 258h8l-4 10h-4v-10zM303 655h6v7h-6v-7zM317 573h19v13l-12 4l-7 -4v-13zM453 1356l6 -6h4v10zM459 68l20 14l-4 6l-16 -10v-10zM1004 1395l8 -9v15zM1006 180l6 -4v4h-6z" />
<glyph unicode="L" horiz-adv-x="1126" d="M96 37v57l47 17l82 4l15 14l6 27v223l10 4l-12 20l8 7v55l-10 10l18 72l-8 22v41l-10 11l4 16v186l10 4v7l-10 4l-4 22l14 14v11l-10 20l-10 -4l6 25l4 32v35l10 31l-18 6l14 17v34l-10 11l4 98l-10 47l10 10l-4 10v52l-17 16h-10l-10 10l-6 -16h-25l-4 20l-6 -14h-27v25 h-6l-4 -19l-18 19l2 10l6 -4v10l-13 10l13 21h-13l13 24l26 13h27l-12 -7v-6h16l14 17l33 -17l8 19h23v-19h10l-6 13h20l7 -15h14l12 8l6 -8l9 15h26l8 6l7 -6l26 6h94l31 -39l-6 -45l-6 -10l10 -11l-37 -18l-14 8h-41l-10 -6l-6 6l-9 -10h-16l-12 -27h-25l-6 -6l6 -8l10 6 l6 -14l-4 -25v-61l4 -9l-18 -8l8 -18v-37h8l-2 -53l9 -21v-164l-7 -16l7 -109l-7 -10h7l-7 -10l9 -41l-9 -10v-105l7 -16l-9 -6l9 -8v-332l-7 -10l-2 -45l4 -15l-4 -12l41 -6l25 -13l49 13l8 -15l31 7h47l6 -7h41l10 13l76 -6l6 -7h13l-7 -20h5l10 20l6 -12h4v17l45 6 l27 -13l30 13l17 -17l31 13h26v-13l15 13h20l33 34l6 -10l2 31l6 6v10h-6l-10 19l8 6l-6 6l8 16l-8 -6v10l20 11l-14 14l2 33l8 8l-8 12l8 25l45 10l15 -24l6 10l14 -15l-4 -16h10v-98l-20 -21h22l-12 -51v-47l4 -14v-58l-20 -8l-48 -8h-75l-21 -6l-20 12l-29 -8l-18 16h-11 l-16 -16l-18 8v8h-13l-6 -8l-2 4h-27l-36 -10h-129l-13 10l-8 31h-12l-2 -14h-6v-21l-17 -6l-55 10l-37 -14l-22 14h-21l-8 -10l-6 10l-15 -16h-73l-41 8l-21 -8l-31 6h-59l-2 10l-6 -4h-17zM262 1278l6 -16l4 6v14l11 12v11l-7 4v6h7l20 20h6l-12 15l16 28l-16 23h-8v-15 l-6 -10v-47h-21v-51zM297 545l12 4l-6 4zM324 1335l12 -10l2 10l-14 6v-6zM324 1366l6 -6l6 6h-12zM469 31l4 -8l16 14h-16zM965 10h12l-12 6v-6zM965 31h6l-6 6v-6zM977 111h6l-6 14v-14zM1026 223h6l8 8l-8 7v-9z" />
<glyph unicode="M" horiz-adv-x="1470" d="M96 51v41l33 33l82 4l12 14l8 -14l11 10v27l6 14l-6 6v35l6 21l4 178l-6 33l8 43l-6 12v45l10 37l-8 8l12 12v11h-10v77l-8 29l8 8v156l4 10v25l8 8l-8 8l-4 51v166l4 47l-4 78l-10 10v15l6 10l-27 -4l-26 4l-7 8l-26 -12l-45 20h-8l-7 17v55l9 20l63 13h47l12 -15l29 15 h27l8 -6h80v-11l14 -16v-10l31 -13l-4 -18h10v-10l-6 -4v-17h6l4 17l6 -17l15 -14l6 -27l10 -10l14 -27v-10l19 -10v-29l14 -8v-10l27 -16l8 -35l12 -21v-20l8 -6v-17h-4v-20l-4 -8l4 -7l21 21l6 -6h12l29 -62l20 -30v-17l11 -8v-12l16 -15l8 -26l12 6l9 -27h6v-24l26 14 l11 14v13l16 10l25 51l22 31h14l11 14h10l6 45l25 35h-11v8l11 6v11l12 16h8l15 10l-7 23l29 24l-6 4l27 58l10 10l41 78l26 12l9 47l16 6v17l33 30l26 -14v-6l4 16l17 4l8 -8l14 13l6 -9l13 4h45l6 -4l14 11v-7l27 -4l14 15l51 -19l23 -22v-60l-14 -6h-33l-8 -20l-39 12 l-8 -8l-43 -6l-25 -68l10 -4l6 -8l-16 -15v-8l10 -6v-41l4 -14v-264l-16 -19l6 -14l-4 -4l14 -8v-60l-4 -10v-51l8 -64l-8 -139h-33v-10h33v-180l-14 -21l8 -16v-43l6 -21l-10 -8l10 -12l4 -66l27 -16h27l4 -10h4l6 10l8 -6l8 8q1 -1 6.5 -2.5t7.5 -2.5t4 -4t1 -8l20 9 l21 -13l6 -22l-4 -60l-29 -18h-37l-33 14l-10 -8q-18 2 -26 14h-11l-4 -14l-33 4l-8 -8l-39 8l-22 -10l-21 6h-84l-10 4l-10 -4v4h-35l-6 17v73l14 9h47l11 10l51 6l28 -10l11 22l-8 8v15l12 6v27l8 4l-8 10v14h-6v17l14 10v10l-20 8v45l6 11v81l6 5v16l6 8l-6 8l2 11l-8 10 l10 26l-4 15l-6 -15v25l8 10v10l-8 13v86l6 20l-6 23v194l6 6l2 27l-8 14v58l6 6l-6 35l6 57h8v-37q5 15 16 21v37l-24 -7v17l-6 10l6 16h-12v11l6 6v14l6 10v41l4 7l-4 16h-21l-6 -23v-20h-12l-14 -16l-7 -25l-20 -31h-14v-20l-27 -31l-4 -12l-6 -4l-13 6l-12 -10l15 -31 l-11 -17l-10 -6l-4 -26l-27 -25l-14 -47l-23 -21l-57 -102l-4 -16l-10 -11v-10l-43 -41v11h-15v-23h-20l-12 6h-17l-12 21v10l-16 6l-9 12l11 11l-6 8v10h-7l-8 -14l-22 45l-35 51l-6 20l-17 27l-10 31l-14 20l-11 47l-16 -8l-6 14l-6 5l-21 36v15l-14 26l-20 21l-17 31 l-14 16l-10 20v11l-11 10v18l-20 -10l-17 -90v-27l-8 -8l8 -6l-4 -16l9 -11v-10l-15 -6v-16l12 -13l-14 -14l8 -55v-62l-6 -4l6 -43l-6 -31l-8 -8q17 -15 18 -22l-4 -11v-63l4 -14h-10v-11l12 -6l-6 -16l-6 -4l-6 -25l-6 -6l18 -6v-8l-6 -6v-15l6 8v-14l-6 -6l6 -25l-6 -10 h6l-6 -16l6 -4l-14 -27l8 -20h6v-31h-12v-6l12 -11l4 -30l-8 -15h8l-4 -26v-78l-10 -16l14 4v-45l-4 -4l9 -54l6 -4l6 -26l14 -5l17 15l4 -4l6 10l10 -10h70l12 -27h10l-16 -20l6 -7l-8 -12l-6 8v11h-7l-14 -17l-16 -4v-12l-4 -4l6 -15l-12 -10l-27 6l-14 -6l-17 14v11 l-6 10v31l-10 14l-15 -18h11v-7l-21 -10h31l-16 -31l-5 7v14l-24 -21v-14h-60l-4 4l-16 -4l-35 10l-10 -10l-6 8h-8l-7 27h-12l-8 -14h-20v20l-19 -16l-10 -23l-17 17zM215 31h10v16l6 10v15h-16v-41zM274 158l9 -13l12 21v10h-19l7 -10zM403 33l9 -6h16v14h14v16h-10v11h-4 zM428 82l21 16h-17zM432 1268h6v6zM463 72h6v6h-6v-6zM522 1020l8 -6l13 10h-21v-4zM530 1034l13 21v12l8 4l-8 10l-13 -14v-33zM662 797h8v4h-4zM676 729l20 6l-6 4h-14v-10zM758 745l6 7h-6v-7zM801 766l4 6h-4v-6zM805 801h6l-6 6v-6zM944 78h6v10l-6 -6v-4zM950 1075h11 l-5 6h-6v-6zM991 1112l6 -4v10h-6v-6zM1028 1262l10 12l4 -6l13 16v10h-6l-7 -10l-8 10l-6 -6v-26zM1049 1214h6v7zM1102 285l8 -17l6 6v11h-14zM1102 301h14v21h-14v-21zM1104 332l33 4v6l-21 25h-12v-35zM1104 387h12v6h-12v-6zM1110 952l6 -14h10v14h-16zM1116 1004 l10 10l-10 6v-16zM1122 379l4 4h-4v-4zM1122 1380h8l-8 6v-6zM1147 332l20 10v25h-4v20h-16l4 -20l-4 -15v-20z" />
<glyph unicode="N" horiz-adv-x="1353" d="M96 1333v31l6 10l7 31h41l18 6l14 -14l39 18h96l27 -10l14 6l58 6l33 -33l14 -63h10l23 -27v-14l20 -47l8 -8v-21l-4 -6l10 -10l7 20l14 -26v-21l20 -20v-6h9l8 -29l12 -14l12 -45v-21l13 6v-20l8 6l6 -12l10 -9l-16 -6v-16l33 -4l-7 -6l11 -21v-14l-4 -6l10 -4v-13h10 l16 -8l-6 -12l13 -6l16 -21l-14 -14l32 -29v-33l15 -14h6l14 -12l13 -25l-7 -6l7 -14v-17h12l33 -57l10 -8v-6l10 -13l16 -61l33 -37l13 -65l12 4l8 -9l6 -18l21 -20v-15l20 -26l14 -46h29l10 52l4 180l7 14l-7 13l-4 34l4 33l-6 96l6 43l-4 33l-6 2l6 6v136l6 16l-6 8v16 l-8 17l8 29l-6 12v98l-8 33l8 22h-6v74l-14 31l-25 6l-22 -10h-21l-10 8h-16l-17 -6l-14 26v58l10 16l27 -10q9 16 26 20l8 -6h19v-8l14 8l6 -8h25l16 14l15 7l8 -17h18l11 10h10l8 -8l6 15l10 -7l41 9l6 -15l13 -4l8 10h27v-41l14 31v10h20l17 -10l4 -16l10 -17l-10 -41 l-21 -20h-34l-13 -8h-41l-6 6l-39 -47v-19l4 19l9 -29l-15 -31l12 -22l-6 -19v-24l13 -25l-11 -67l11 -33l-13 -21l6 -4v-12l7 -4l-7 -16l-16 -4l8 -15l-8 -26l10 -7l-10 -10v-16h6l10 20v-35h-10l-10 -12v-61l-6 -8v-17h14l6 17q5 -14 17 -21l-4 -70l-13 -10l6 -45l11 -6 v-27l6 -6l-6 -39l-11 -4l11 -22v-25l-4 -6l8 -21v-51l-6 -53l6 -14v-129l8 -58h-12v-61l4 -27l10 -8l-14 -27v-24l-27 -12h-35l-8 6l-20 -11l-33 46l-19 16l-22 41v10l-23 43l-10 8l-26 58v10l-9 14l-12 -4v21l-31 67h-10v15l-25 59l-16 4l-18 49l-15 15l-10 40l-20 15 l-11 55l-18 8l-6 21h-6l-6 33l-15 8v14l-20 21v18l-23 33l8 16l-6 10v11l-20 4l-4 12l-9 6l9 8h8v13h-15v8l-10 6l-10 -6l-10 14v12l-23 31l-2 17h-12v14l-12 33l-23 24v27l-16 14l-4 35l-23 12l-10 27l-23 22l-8 39l-14 21l-12 4v12l6 4l-15 4l-6 17l-14 16q-4 -13 -19 -20 v-27l7 -6l-15 -10l8 -4v-7l7 -4l-15 -10v-16l6 10l6 -43l-6 -8l2 -94l-10 -50l8 -6l-6 -16l12 -27l-6 -8v-12l-6 -4l8 -11v-26l-8 -8l12 -15l-4 -6v-104l7 -17l-7 -10v-14l9 -8l-9 -13h-4l4 -26l7 -13l-9 -16l9 -8v-47l8 -82l-15 -29l7 -24v-25l8 -12l-8 -13l12 -12l-6 -14 v-27l-13 -4l13 -20l-19 -11l19 -6l-13 -4v-6l13 -6v-21l-9 -8l11 -31l-8 -8l12 -14l18 -37l25 -12l33 8l6 -17h10l4 7h23l20 -27v-47h-16l-4 -4l8 -4l-8 -6h-13l-14 -15h-57l-62 -8l-12 12l-21 -10h-106l-27 6h-30l-31 21v8l6 6l-6 6v45l6 -4l21 21l28 4l8 -6l13 6v-4l16 8 l21 -15l24 13l8 31v40l4 7v174l4 10l-4 4l4 21l-8 53v82l15 16v6l-11 -6l-10 21v20h10l-4 14v39l4 8l-4 21h-6v6l10 10l-4 4v17l-10 10l14 21l-10 16v14l6 6v15l6 16l-6 4l6 25l-6 22v33l-12 4v21h16l-4 10h-12l12 16h-6v15l-6 6l-4 41l4 35l-4 20l4 6v98l-4 27l4 6l-8 17 l8 8l-6 14l6 37l-10 12l-96 2l-7 6l7 7h-41zM358 238l7 4h-7v-4zM612 997h6v4zM999 303l13 -4l14 4v6h-20zM1053 465l6 -6v10h-6v-4zM1053 784l6 -6h14v13h-10zM1059 1307h8v14h-8v-14zM1073 1094l6 6v10h-6v-16zM1094 1151l6 -10v10h-6zM1104 1114l6 12l-6 -6v-6z" />
<glyph unicode="O" horiz-adv-x="1107" d="M96 596l8 14l9 84l-15 15l15 12l-11 33l9 10l2 33l8 12l-10 22l2 52l8 8l-8 18v62l6 12v31l-8 8l8 6l-8 27v145l8 31v16l20 21l17 4l20 31h4l6 12l7 2l22 33l35 26l20 10l13 27l34 25l7 -8q16 14 34 18l45 -6l7 -21l4 21h16l4 -4l23 4h82l20 6l53 -12l13 8l6 -6l6 4h88 l23 -4l38 4l31 -15l41 -30l41 -47l19 -35l28 -12l27 -35h6l14 -27l8 12l9 -39l10 -4l-6 -6h-8l-13 -26v-35h11l6 -15v-63l-6 -4l-5 -17l21 -10l-16 -8v-12l6 -6l10 -37l-6 -4l6 -33l-6 -66v-145l6 -6l-6 -15l-4 -40l-6 -15l14 -14l-8 -23l4 -73l-6 -7l6 -22l-13 -16l9 -37 v-105l-6 -6v-106l-31 -50l-29 -14l-6 -14h-6l-35 -43l-16 -4l-7 -17l-51 -51l-26 -14v-8l-25 -13h-47l-12 10l-35 -10h-62l-10 10l-8 25l-8 -14l6 -11l-16 -10l-11 4l-10 21v10l-14 -31h-21l-6 11l-20 -11l-27 -4l-49 4l-19 11l-4 6l-12 -11h-29l-6 -6h-33l-20 21l-20 10 l-29 47l-17 4l-26 27v12l-19 12l-8 13l-8 -4l-6 24h-10l-43 37l-9 35v78l7 6l4 45l-17 16l6 11l-6 6v14l13 10v11l-7 6l7 14l-11 8l11 10l-7 9v12l15 2l-15 8l11 23l-4 32zM152 1004l14 4v10h-6zM156 956l10 7h-10v-7zM195 881l12 -19l18 -8l-8 -23v-61l-4 -14l6 -41 l-10 -10l8 -95l-6 -8l6 -8l-8 -19l8 -45l-4 -10l6 -49l-6 -33v-47l-6 -4l6 -20v-43l4 -9l-4 -16l10 -10v-15l13 -8l16 -28h6l53 -54v-8l35 -26l8 -19l8 6l25 -2l12 -6h62l18 -10l43 12l4 -22l13 6v14l6 -6l8 6h16l4 -6h43l5 -6h43l41 12h34l58 51l18 27l29 14l24 19l23 43 h14v6l-14 6v20l20 7l-14 2l-6 18l8 8l-6 8l12 13l-6 6l12 20l-6 11v16l-8 4v16l6 7l-6 10v69l12 9l-10 14v207l12 10l-6 6l-6 41v125l6 21v24l13 21l-21 -4l14 24v41l-10 37l25 10l-6 12l-15 -8v70l-14 14l6 10h-18v11l-9 -4l-16 10h16l4 4l-16 6v6l-8 -6h-10l-15 31l-18 4 l-47 47h-15l-10 6h-16l-6 -6h-45l-11 6h-20l-6 -6l-21 12l6 4l-16 4l-4 -8l-23 -6l-4 -6h-20l-10 12l-33 -6h-49l-33 14h-23l-10 -20l-37 -12l-14 -15h-35l6 7l6 20l-20 6l-6 -6l6 -8v-47h-12l-6 -13h12l-33 -16v-8h12l-20 -17l-17 -30v-15l-10 -16v-98l-14 -29l8 -8v-103 l-14 -14zM250 1282l4 -10h4v-10l14 12l-8 14zM414 1370l6 -6v6h-6zM471 1421l14 6h-14v-6zM580 96l6 -4v4h-6zM596 51h4l-4 4v-4zM885 1235h12l-6 12l-6 -6v-6zM918 1241l2 -6v12zM932 647l6 4h-6v-4zM932 1110h6v6zM932 1145l35 12l-4 6h-23l12 31l-6 10l-14 -4v-6l10 -10 l-10 -21v-18zM932 1241l6 6v8zM938 817l8 -10l6 4v10h-10zM967 1116h6l8 8l-8 9zM973 1075l6 -6l4 6l-4 6zM973 1090h6l4 12l-10 -6v-6zM973 1241h6v10h-6v-10zM989 336l4 -6l-4 12v-6z" />
<glyph unicode="P" horiz-adv-x="1183" d="M96 63l19 60l28 10l9 -22l8 18h33l10 6l4 -12l10 6l6 -6l10 6l11 27l10 51v55l10 80l-8 31h8v20h-6v31l6 4v100l-6 29v70l6 20v25l6 4l-12 18v41l6 8l-8 9l8 18v27l-6 4v57h6l-6 10l6 15l-6 6l6 33v49l6 6v20l-10 9l10 38v130l-6 16v20l6 4l-6 7v61l-10 21v14l-10 -21 l-11 7h-10l-20 12h-27l-16 -6l-8 8h-27v12l-6 6l6 72l20 10l19 -6l16 6l64 4v-4h30l11 4h26l35 -4l12 -10l33 16l23 -22l10 10l27 -4l10 10h45l12 -10l29 12v-12h22l25 10l6 -6l6 6h21l4 -6l59 8l15 -12h20l8 4h21l-9 -14q9 2 15 14h6l6 -10h4v16h47l17 -20l14 14h41l23 -20 l28 -15v-12l17 -8l41 -47l10 -6v-15h16l14 -16v-10l-10 -11l6 -4l7 6l18 -6v-12l37 -25v-36l-4 -5l4 -59l-4 -20l-13 -3q7 -21 17 -26v-6h-10v-27h6l8 -10v-10l-12 -15l12 -6v-65l-12 -9l12 -12l-4 -59v-51h4v-27l-8 -8l-6 -21l-15 -20l-18 -10l-8 -17h-11l-32 -33l-25 -14 l-8 -25l-12 -6l-58 -57l-41 4l-26 -4l-4 -10l-7 6l-26 6l-25 -6l-18 8l-27 -14l-43 10l-14 14l-6 -18l-4 8l-33 -4l-4 -4h-27l-6 4l-43 -6l-45 16l-8 -10l-27 4l-14 -4h-37l-10 10l-31 -24v-31h-17v-27l-6 -8l15 -29l-15 -28l6 -10l-4 -13l-10 8l-14 -22l12 -6l-6 -8l8 -39 l12 14l7 -18l-9 -13h-12v-6l8 -6l-16 -18v-25l8 -12l12 6l11 -33l-7 -29l5 -57l16 -14l4 8h12l25 12v-39h14l8 23l19 4v-8l12 8v-14h8v-13h7l12 15l20 -19v-41l-26 -4l6 -16l-12 -11l-50 -8l-32 8l-7 7l-6 -17l-35 10l-22 -6l-21 6l-8 -6h-139l-33 13h-28zM319 258l7 -10h6 l-6 10h-7zM340 180h6v6zM352 621l6 -7h4v7h-10zM352 729l6 -12l9 6l6 -8l6 -43h8l8 -23l19 -12v14l24 8l25 -10l45 10l18 -12l27 8q5 0 8 -1.5t4.5 -6.5t2 -6.5t1.5 -9.5l11 20l6 -4l20 8l31 -4l-6 -16l6 -14q1 10 20 14l-6 6v10h74l6 -4l8 4h74l14 4l17 -14l88 94l26 19v6 l35 47v14l8 23l-8 14l-6 43l8 19l13 4l-15 32v27l13 53l-7 8v17l23 6l-10 20h-19v97h-26l-9 20l-18 6l-2 11l-6 4l-12 24l-29 23v4l-12 -4l-25 24h-10v7h-10l-19 -9l-92 19l-35 -10h-119l-4 6l-12 -6h-27l6 6h-55l-26 12l-9 -18h-28l-31 -9v-45l-16 -39l12 -41l-6 -41l10 5 v-23l-10 -8l10 -21l-12 -34l10 -9l-8 -14l6 -6q-13 0 -17 -21l5 -34h6l-6 -21l6 -6l-6 -6v-47l-9 -9v-36h9l8 -21h-13v-31l5 -6v-37h-9zM403 51l7 -10h10v14zM471 41h6v10z" />
<glyph unicode="Q" horiz-adv-x="1107" d="M96 311v21l33 8v12l-33 -4v21l6 12l-6 18v43l6 2l-6 23v51l6 6l-6 11v67l6 8l-6 41v131l6 52v57l7 14h-7v43l9 10l-9 5l7 8l-7 22v37l7 17v170l34 47l25 10l12 41l31 10l10 27l15 4l16 16h10l10 21l37 34l27 -6l49 19l14 -15l35 11l15 -9h30l21 -8l10 21h27l6 -13h35 l10 -4l10 11h72l10 -7l-4 -8h8l6 15l12 -7l54 11l28 -11l15 -14h12l20 -10l5 -10h6l24 -37l11 4v-4l57 -66l37 -33l14 -30l14 -6l7 -25v-98l-15 -15h8l7 -32v-68l-7 -10l7 -21v-143l-7 -61l7 -13v-45h-15v-6l15 -6v-113l-11 -12l4 -14v-47l-10 -23l10 -25l7 -2v-32l-7 -7 v-51l11 -22l-11 -23v-71l-41 -41l-32 -43l-29 -21l-25 -37l-10 -4l-10 -12l-14 -6l-47 -49l-33 -13l-6 6l-23 -6l-20 8l-19 -8h-45l-37 -35v-30l-10 -17l8 -24l-8 -21v-26l-6 -7v-20l-14 -14l-7 6l-22 4l8 20l-35 9l15 -19h6v-14h-19l-14 20v56l6 16v45l21 29v8h-17l4 33 l-8 -6v20h-12v-27h-8v54h-17v-50l-16 -10q-12 4 -14 19v34h-21v-34h-10l-6 20l-11 -20h-20l-4 8h-12l-9 -14h-53v20h-14l-21 14l-14 25l-43 33l-16 32l-25 11l-12 18l-17 10l-32 52v53zM190 176l5 -4v4h-5zM205 922l6 -4v-17l4 -4v-33l-8 -24l8 -115l-4 -6l4 -8v-109l6 -90 l-6 -45l-4 -4l4 -19v-133l-4 -20l10 -10v-17l33 -16l14 -25l15 -6l-7 -14h-8v-6l41 -9l35 -36l47 -21h41l10 -10l33 4l25 27l4 112l8 43l-8 15l6 6l6 34l8 13h39l29 -17v-10h12v-67l4 -5v-40l-4 -13l4 -67l17 -15l37 -6l10 -12l8 8l8 -8l8 8l6 -6l37 8l31 29l35 18v17l14 6 l27 26h6l20 29l15 39v160l6 92l6 8l-12 25v24h10l16 17v14h-16v14l6 6v17l6 16l-16 15v20l-6 6l8 25l-8 12l10 41l6 4l-10 10v68l4 10l-4 4v33l6 23l-6 8v24l10 11v20h-10v43l4 4v27l6 14v27l-6 10l-4 20l-10 7l-15 28l-53 43l-10 21l-41 30l-8 17h-13l-8 8l-10 -10l-39 10 l-16 -8l-33 6l-16 -8l-37 12l-39 -6h-56l-20 -4l-88 4l-51 -29l-41 -43l-21 -10l-18 -29l-19 -8l-10 -31v-20l-6 -4v-27l-4 -6l10 -8l-14 -23l8 -82l-4 -6v-41zM428 1335l4 -4l10 8zM516 53l14 17l-6 4l-8 -11v-10zM524 -76l6 -6l7 -10l6 10l-6 6h-13zM893 678l4 6v-6h-4z M930 250h8v10l6 4l-6 6h-8v-20zM950 844l8 -23l7 -8v25l-11 18zM979 457l6 -6v6h-6zM985 301h6v6z" />
<glyph unicode="R" horiz-adv-x="1196" d="M96 1346v26l6 21l7 -33l2 33l6 14l12 -6l47 18l49 -8l51 8h275l6 -6h27l26 6l29 -12l45 12l25 -8l47 10l49 -8l20 6l6 8q2 -6 15.5 -7t15.5 -7l10 6l25 -22l37 -21l8 -26l29 -15l20 -20l6 -21l25 -12l14 -25l27 -20l12 -27v-123h-6v-40l-6 -19l12 -8l-8 -16l8 -5l-6 -6 v-71l-10 -7l4 -34l10 -29l-10 -18v-21l-98 -94v-6l-15 -8l-47 -48l-31 -10l-10 4l-10 -10h-21l-12 12l-14 -6v4l-21 -16h-34v-70l14 -16h6l23 -41l8 -33l-6 -4l10 -6v-4h16l10 -10v-23l11 6v-14l10 -17v-16l16 -14l15 -31v-10l14 -17l-2 -4l29 -43v-22l26 -17v-28l21 -25h6 l16 -41h8l9 -8l37 -10l12 8l10 -6l10 6l4 -6l13 6l6 -16l14 6l6 -6h8v-27l-6 -10l9 -15l-9 -43h-34l-11 -4l-4 4h-33l-4 -8l-22 23l-19 -23h-16l-4 4l-21 4l-20 -8l-39 6l-47 -10l-19 18l-10 -6l-6 6l-14 -14l-8 4l-15 -4l-24 12v74h-17l13 12l28 15h23l4 -4h20l6 10h17v31 l-12 30l-52 99l-12 39l-8 8v14h-8l-19 37l-8 25l-20 26l-7 37l-6 -10l-26 51v27l-25 16l-16 45l-11 10h-6l-14 21l-14 10l-21 -10l-6 4h-33l-8 12h-27l-6 -6h-34l-11 -6l-6 6l-10 -10h-41l-19 -37h-12v-8h15v-13l6 -4l-11 -30l-10 -17l10 -10l11 -20l-6 -21l8 -20l-8 -7v-10 l-9 -10l15 -8v-115l6 -12v-133l10 -52l33 15l51 -4l8 -17h31v-37l-8 -20v-31l-74 -10l-20 10l-31 -10l-8 8l-17 -10l-57 10l-8 -8l-31 6l-23 -8l-12 12l-10 -10h-74l-20 20l-8 31l18 51l23 13l4 -6v-17h18l6 23h27l28 -6l23 36l6 35v135l-6 27l6 4v115l6 18l-6 8v45l6 17 l-12 10l6 6l-6 49v60l12 8l-12 12v269l6 10v20l-10 21v47l31 31h-11l-4 6l4 4l-20 6v98h4v41l-14 31l-17 16v11l-10 20h-10l-12 -22l-15 6v-11h-41v7h-8l2 20l-22 27zM131 1372l12 4l-6 4l-6 -4v-4zM274 1167l15 -14v-4l8 4l-14 21zM283 760l10 -4l10 20l12 10l-12 7v4h-6 v-21zM289 129l4 -4l10 10zM293 1081h37v21h-15l-12 10h-10v-31zM336 1139h29v-41l-7 -27l9 -35l-9 -53l13 -31v-37l-13 -34l13 -33v-35l6 -27l-6 -14l14 -31l78 -12h26v-20h13v10l-6 6l20 4l-8 -14h16l13 10l30 10h90l11 -22l10 16l8 -10l10 6l35 6v-12h19l8 6h16l10 10h7 v-6l14 8v-8l43 23h14l33 45h10l33 47l18 10l9 35v104l-4 15v110l-7 6l-14 66v20l12 25l-16 6l4 16l-27 -24l-28 20l-8 21h-5l-4 8l-12 -4l-45 20h-57l-25 13l-12 -6h-62l-20 -7l-57 7l-9 8l-6 -8h-39l-28 -7h-33l-8 -4l-6 4h-21l-20 7l-29 -21l-14 -84l-15 -6l-6 6l-8 -20 v-41zM350 1159v15h6v-9zM649 565l6 8l-6 -4v-4zM971 1210l6 4v13h-6v-17zM991 821l17 -4v4h-17zM1090 31l6 4h-6v-4z" />
<glyph unicode="S" horiz-adv-x="1058" d="M88 1204l8 13v18l15 22h6l12 23h21l8 20l37 48v6l26 18l21 29l28 8l13 21l14 6l12 -9l29 13l12 -4l4 4h17l10 -19l25 15h22l8 4h21v-17l-8 -8v-18h20l8 12v21h19l20 10h25l-4 -10l20 10h14v-68h27v23l-10 35h10l4 10l41 -4v-17h25l8 17l6 -21l14 21l15 8l6 -4l10 4l4 -4 h37l27 -25l4 -26l26 -7l4 -10l15 -6l12 -18l12 -7l29 -26l8 -62l17 7l32 -7l11 -43v-61l-4 -4l6 -12l-6 -19v-20l-11 -23h-37l-30 -4l-29 27l8 24v23l6 14l-12 6v8h12l2 7l-24 20l-4 12l-13 9l-4 16l-20 24h-10l-11 13h-10l-16 14l10 10l-16 6h-15l-26 27h-29l-12 25v16h-21 l6 -12h4v-8h-8l-8 -17l-25 -4l-34 23l-23 -23h-24l-15 -8l-71 16l-15 -14h-30l-25 10l-27 -4l-16 -16h-8l-19 -11l-4 -14l-49 -22l-8 -31l-21 -23l-20 -41v-55l6 -20v-31l-6 -6v-125l-4 -10l10 -4l-10 -7l10 -10l27 -41l20 -10l8 -14l27 -21h6v-12h72v-6l16 -4h41l27 14 l18 -19h12l27 21l62 -6v-6h10l30 12l5 -16l6 4v12h41l8 -8l45 8l10 -25l-6 -32h16v30l21 11v-17l4 -4l6 4v21l-6 6h27l4 -6l10 6l27 -15h14l39 -36l20 -11v-20l9 -16l26 -7l29 -26l-8 -8q6 -18 16 -21v-78l10 -10v-213l-16 -14l-10 -17l10 -6l16 -20l-12 -23l14 -24l-12 -21 l-14 -6l8 -18l-10 -5v-12l-21 -14l-14 -21l-33 -30l-8 -19l-33 -14v8l-14 -8v6l-6 -6v-39l-50 -31l-18 8v15h-20l-17 -29l-8 -6h-39l-35 -6l-6 6h-154l-92 -6l-82 14l-6 6l-26 15v12h-7l-14 14h-6l-20 19l-29 16l-19 39l-20 6l-64 66v245l33 15h64l14 -41v-33h8l-8 -41l4 -4 v-27l-4 -10l8 -8l-8 -17l-6 9l-4 -9l4 -18l18 -8l9 -21l43 -36l30 -39l35 -23l14 -16h37q12 -1 17 -17h4q4 16 20 17l27 -11v-6l16 11l96 10l7 -15l26 7l4 4h11l8 -6l45 10l18 -19l8 15l3 -4h18v-21l14 29l31 26l10 -10h17l4 31l-4 6l14 21h12l49 71v55l27 13h-27l-4 30 l11 21l-11 31l13 18l-9 25v47l7 -12l12 30q-3 13 -21 23l2 57l-20 21l-4 20h-10l-9 35h-12l6 -8v-19l-12 19h-4l-17 20h-14l-16 15l-6 -7l-27 -4l-29 4l-6 7l-8 -7l-8 19l-12 -23h-44l-30 6l-19 -8l-12 13h-27l-6 -11l-55 -4l-37 8h-26l-17 11l-8 -11v-8l-10 4v4l-33 -8 l-4 4l-4 -4h-33l-8 8h-13l-6 7l-8 -11l-14 15l-23 6l-61 61v17l-23 6l-45 57v102l21 5l-6 6h-21l12 12l-8 18l10 11l-8 12l15 6l-9 29l-8 12l8 14h-6v31l-6 16l6 39zM102 901l2 27l-2 -6v-21zM195 1321h14l-10 14h-4v-14zM205 229l4 -6v13h-4v-7zM338 72l6 -9h6l4 9h-16z M612 1415h23v15h-23v-15zM662 63l8 -14h12v14h-20zM664 37l6 -6l6 6h-12zM676 90h6v4zM764 711l12 24l-8 6l-4 -6v-24zM774 1311l14 4l7 12h-7zM805 1317l4 -17h6v35h-6zM846 119h4l-4 6v-6zM856 643h12l6 8l-12 13l-6 -7v-14zM862 623l6 6h-6v-6zM870 1243l13 10v11 l-13 -11v-10zM877 217l14 12l-14 -6v-6zM891 1210l12 13v10zM897 322l6 6h-6v-6zM944 1237h6v6h-6v-6z" />
<glyph unicode="T" horiz-adv-x="1087" d="M49 1307l10 77l15 23l41 10l28 -8l23 10l37 -14l45 12l12 -6l88 8l37 -2l14 6l31 -6h31l18 6l43 -6l13 2v-2l8 6l6 -6h20l13 8h30l4 -6l9 11l8 -11l4 6h16l11 -6h20l10 6h119l31 -6l28 11l19 -11l24 15l27 -15l21 13l12 -13h31l14 -41l-4 -35l8 -14v-33h-14l12 -18 l-12 -43l20 -6v-31h-6l8 -24l-8 -11v-33l-4 -4l4 -4l-8 -26l-21 -11h-53l-14 31v135l-8 6l16 17l-39 37l-47 6l-23 8l-39 -12h-38l-33 8l-17 -8l-20 4l-74 -10v-15l-10 -10v-37l-8 -8l14 -12v-6h-12v-27l6 -14l-6 -15l12 -12v-35l-12 -16h-4l-4 -10l20 -21v-10l-8 -6l12 -25 v-57l6 -8l-6 -54v-57l-10 -10l10 -4l-16 -7l-4 -14l4 -6l6 10h6l12 -30l-8 -56l6 -6v-33l-6 -4v-10l10 -8l-10 -39l8 -45l-8 -6l6 -95l4 -14l-12 -31h8l4 -41v-73l-10 -29v-27l6 -6l6 -35l-10 -10l15 -12v-55l10 -13l26 -8l5 -18l10 12h10l10 6l11 -6h36l9 6l36 -18l9 -21 l-9 -57l-18 -19h-41l-12 7l-10 -7h-68l-25 7h-30v14l8 20l-8 -6l-27 -35h-35l-18 -6l-45 17l-21 -11h-37l-4 11l-20 -11l-13 7v14l-6 8l11 19h-13v-13l-12 -14l-4 31l16 8v12l-8 14l12 11l19 -17l12 9l14 20h60l18 -33l19 43l2 21l14 35l-8 36l6 31v66l21 8v6l-17 16l10 19 l-20 20l6 11l-12 16l16 14l-16 23l6 8l6 39l6 2l-18 18l18 15l2 30l-20 11l-8 -6v47l6 47h8l-14 16v76l6 20l-6 33v66l8 12l12 -6l6 10l-26 12l-7 117v164l7 12v27l-7 4v10l-10 6v35l-31 31l-45 -14l-32 14l-21 -10l-155 -4l-15 -11l-6 -10l-10 -6v-150l-6 -16l-4 -35 l-11 -10h-41l-34 18l-7 60v69zM385 47l4 8h-4v-8zM545 377l20 10h-20v-10zM549 662l12 -21l4 14l10 17l-10 -6l-4 10zM563 508l12 -12l19 12q-9 7 -12 20h-13zM565 549l10 -6v14zM565 1032h10l-6 12zM582 1049l4 6h-4v-6zM596 109h6l4 6h-4zM596 129h6l4 6h-4zM664 109h4v6z M995 1286l4 10l-4 -4v-6z" />
<glyph unicode="U" horiz-adv-x="1259" d="M35 1382l8 15l-6 6q2 7 13.5 13t12.5 14h54l-6 -21h14l10 14l17 -4l14 17h47l16 -6l27 6h113l18 8l51 -19l8 -26l-20 -21l10 -26l-18 -33h-45l-4 6l-11 -6v39l-16 -6l6 -37l-31 -12v-19l-30 -43l10 -8l12 -21l-12 -22l14 -35v-104l-6 -4l6 -23v-72l6 -67v-187l-12 -20h-4 l16 -14v-27l-8 -12l13 -15l-5 -45l-6 -10v-31l-10 -6l10 -10v-10l-6 -11l6 -4l-6 -12l12 -4l5 -10l-7 -13l7 -28l-17 -6v-11l-4 -4v-20l23 -13l-19 -10v-20l12 -15l9 -36l6 -5l14 -36l27 -17l51 -45v-10l20 -23l54 -24h51l49 -6l12 6h19l8 -17l20 11h35l6 -4h27l27 10h63 l19 24l63 64l2 8l53 53l6 27h5l-5 10v35l5 6l-5 6l5 35l-5 6v27l-6 2l6 31l-6 28l9 19l-9 6l6 6v61l5 15h-5l5 53l-11 27v28l9 11l-19 102l10 45l11 21h6v4l-11 4v20l-16 25v45h16v8l-6 6v68l-6 6v106l-4 17v63l4 8l-8 21v20l-6 13l-33 24l-8 -4l-6 4l-15 -6l-20 6l-8 8 l-19 -18l-30 31v63l20 21h45l6 4h54l8 6h78l47 6l20 -6l82 8l37 -14l16 -14v-74l-32 -13l-21 13v10h-4l-4 -20h-6v6h-6l-5 -17l-63 -10l-21 -10l-4 -10l11 -11v-41l6 -4v-6h-6v-26l-9 -9l15 -104v-47l-6 -6l6 -4l6 -177v-206l6 -17l-6 -10l4 -29l-4 -12v-104l8 -29v-101 l6 -10l-6 -4l10 -80l-10 -8v-10l-6 -6v-8l-8 -7v-14l-17 -22l-51 -52l-20 -30l-6 4l-15 -27l-37 -18l-6 -19l-26 -20l-41 -2l-4 -13h-21l-10 13l-19 4l-8 -23l-4 6l-16 -6l-25 6v15l4 6l-6 20h-14l-10 -20v-27l-78 -2l-11 -6v21l-14 -21l-20 16l-7 19h-10l-6 -14h-4l-6 -13 l-19 -10l-32 8l-33 -12l-35 12l-37 23v12l-10 10h-14l-37 41l-21 17l-6 10l-49 51l-25 16l-22 48v116l-10 80l10 25v51l-10 8l14 12v21l-8 16l8 17l-4 24l-6 4v111l-6 4l6 6l6 62l-12 10v82h16l-16 33v98l12 8v18l-12 -6v27l20 4l-14 10l-10 21v14l-7 6l7 17l-7 6l7 14v55 l-7 7v57l-16 35l-45 6l-27 16l-8 -16h-31l-22 16v41l6 10h-8zM115 1366h4l-4 16v-16zM229 844l4 -8h5v14zM301 442l4 2h-4v-2zM317 1341l9 -6l6 6l-10 5zM352 1366h10l11 10zM410 1372h6v4zM643 78l4 12h-4v-12zM684 37h6l2 6h-2zM745 49l7 4h-7v-4zM772 49h10v-12l11 6v10 l-17 6zM793 70h16l-16 4v-4zM834 1419h16v11h-16v-11zM864 115l13 10l-13 -4v-6zM983 838h10v12l6 10v17h-16v-39zM991 571l8 -6l5 10l20 -12l6 12l-8 9l8 39h-6l-12 -13l-8 -24zM1001 629l9 -19l8 19h-17z" />
<glyph unicode="V" horiz-adv-x="1292" d="M31 1354l16 8l-16 18l16 21l29 18l84 2v-20l4 -4l8 16l55 6v-26h6l3 14l32 -6v12l47 6h35l23 -12l8 6h41l12 -12v-25h8v-37l-28 -24l-6 -12l-39 12l-13 -21h-10l-10 -12l4 -49l18 -53l19 -111l4 -2v-18l12 -21l4 -24l-4 -11l4 -20l17 -17v-14l-13 -6l7 -6v-15l20 -20v-14 h12v-54l21 -41v-20l10 -35l-10 -10l24 -25v-34h11v-15l10 -57l16 -33l10 -49v-33l41 -108v-31l7 -6l10 -51l24 -58h7l12 -12l14 22l15 -4l-11 -16l6 -6l11 22l-11 23l15 29v24h16l6 39l8 8l-12 8l19 35l4 51l10 21h6l10 10v14l6 7l9 57l6 16l-6 4l12 11v10h4l4 -14l12 -7 l7 11l-7 6v10l9 10l-9 25l-6 6l13 10l2 23l12 20v35l6 10v27l25 82l4 26l12 21l6 -14l14 20l-6 4v17l-6 4v10l27 6v35l-6 27h12l4 63l29 90l12 -8v10l21 62l6 -7l12 21l-18 6l6 14l-13 17l19 8v14l-6 4l12 11v6l-27 -17v-10l-26 15l-21 22h-10l-21 -22h-20l-12 36l6 58 l39 14l28 -18l17 14h33l8 -14l8 8h31l-11 -25l-24 15l4 -19h12l15 -10l26 14l-6 17l21 14h65l16 -35l9 25h8l16 14l4 -25l13 21l20 -14l14 6l21 -8l6 -56l-18 -37h-23l-18 7l-23 -11h-16l-10 9l-11 -9h-20l-10 -6v6h-11l-10 -12v27l-10 -6l-6 -41l6 -7l-6 -2v-20l-6 -12v-47 h-9v-21l-12 -31l-4 -26l-4 -4v-17l-19 -28l-2 -23l-18 -31l-12 -67l-13 -35l5 -8l-15 -2v-31l-14 -23l-12 -51v-16l-17 -51h-8l-6 -7l10 -6l-10 -2v-12l8 -8l-18 -27v-12l-11 -21l9 -6l-29 -100h-10l-31 -90l6 -25l-18 -16l8 -15l-10 -6l8 -6l-15 -8l7 -10l-19 -10l-4 -27 l4 -12l-8 -21v-31l-16 -14l-5 -49l-26 -12h10l4 -6l-12 -15l10 -10l-8 -8v-21l-12 -45l-19 -26l-20 -15h-88l-4 4h-21l-10 41h-12l-9 -6l-12 12v54l-4 2l20 26h-16l-4 7h-12l-15 34v23l-24 61v68l-19 16l-14 45l-8 52l-6 6v32l-13 9v41l-8 32l-12 4l-4 27l6 8l-6 6v17l-12 6 l-19 82v67l-27 31l-10 43l-6 8l-29 162l-12 -6v23l-8 28v29l-18 24v31h-7l-41 135h-8l-8 9l-29 6l-16 -6l-51 6l-25 12l-10 25zM346 1069l4 12h-4v-12zM358 795l19 6l-10 12zM367 760l6 -4v14zM408 786l6 5v6zM543 72l4 4h-4v-4zM553 164l6 -4v-49l14 -9l7 7v34l-7 21l-20 6 v-6zM563 72l4 -4l6 4v10l-10 6v-16zM629 123l6 -14v34h6v7h-12v-27zM719 414h10v10zM774 516h19v27h-19v-27zM821 696l6 -14l11 6l-4 6l8 8l-15 7zM821 719h6v4zM885 1380l4 13h-4v-13zM973 1329l6 14l-6 7v-21zM1020 1241l4 -6l4 12h-8v-6zM1024 1298h10l-10 17v-17z M1034 1214l6 -4v11h-6v-7zM1075 1366l6 14l-6 -8v-6zM1081 1356l11 10h-11v-10zM1126 1309l7 20l6 -4v21l-13 10v-47z" />
<glyph unicode="W" horiz-adv-x="1992" d="M31 1362l14 39l29 -4l26 10l13 -12l8 12l41 6l22 -6h49l27 6l8 -8l13 8v-6l12 -6l41 16l31 -16l16 -4l14 4l4 -4l13 4v-8l14 14l12 -21l2 -61l-14 -16h-31l-18 6l-19 -10l-4 -11h-16l-21 -20l11 -27v-26l10 -21v-35l-4 -6l10 -6l10 -29v-37l11 -6l-9 -30l19 -17l10 -55 l6 -16v-41l12 -15l-8 -6l23 -22l18 -78l4 -41l13 -21v-41l6 -14l2 -22l10 -9l-10 -6l6 -16l14 -15l-8 -16l14 -14l13 -27v-20l-6 -11l6 -6l8 -24v-25l27 -65v-25l10 -16l16 -52v-51l17 -16v-47h20l20 26l15 9v28l12 41l2 27l23 55l4 41l12 23l8 57l13 20l4 45l16 41l10 13 l-6 4v26l10 11v16l7 4l4 17l-11 4l11 6v14l18 55l14 9l-6 4l6 10l-6 10l6 10h4v21l-4 6l4 31l17 47h8v35l18 8v24h-6v5l15 8v22l6 6v52l6 10l2 37l6 6l12 41l5 24l10 11v26l-8 8l8 19v20l-6 4l-9 -4v11h-100l-4 4h-10l-27 30v27l6 6l8 27l25 20l25 -12l49 12l20 -10l43 16 l56 -12l43 10l12 -4v-6h45l16 10h15l10 -10h20l11 10l8 -8l55 8l49 -16l10 -51l-20 -41h-80l-16 -10h-37l-10 -21l10 -10v-47l18 -27l8 -55l31 -78v-33l6 -14l-6 -16l10 -11v-6l7 -4l20 -61v-41l6 -7v-14l8 -16h13v-37l8 -51l14 -17v-14l13 -20v-31l6 -17l4 -36l10 -27v-25 l20 -20l13 -51l8 -17l10 -61v-33l10 -8v-17l7 -4l4 -12l6 -4l14 -37v-37l12 -4l5 -22l16 -29l6 4l2 -4h10l17 35v16l6 4v21l10 12v35l17 31v53l8 8v12l16 15v37l10 10l-10 10l6 10v10l10 7l5 75l6 39l14 9v16l6 6v41l10 20v41l11 41h6v-6h4l8 76l8 14v52l41 129l-8 14l14 22 v17l9 14v15l-7 8l17 24h-12l18 41l-4 21l4 -6l4 26l-8 6v11h-21l-18 14v6l-14 10l-27 -4l-12 -16l-19 39l6 59l41 6l17 -6l8 6h22l41 8l7 7h55l8 -15h19l32 19l15 -15l14 -4l33 8h30l11 -8h14l8 -33l-8 -34l-10 -21l-15 -6l-6 6l-22 -16h-56l-14 -10h-16q-1 -2 -2 -8 t-2.5 -9t-5.5 -4v-16h-7l-8 -11l8 -4l-22 -16h8l10 -10l-4 -17l-16 -16l4 -4l-14 -8v-37l8 -10l-8 -17l-9 -37h-8l-4 -47l-10 -14v-47l-10 -51v-21l-7 -16l-20 -105h-4l-23 -92l-10 -10v-21l-6 -51l-21 -84v-14l-8 -10v-27l-12 -20l-4 -52l-10 -6v-26l-6 -45l-21 -21v-12 l6 -10l-10 -15v-43l-6 6v-34l-4 -33l-11 -25v-26l-6 -5l-4 -22l-6 -4l-10 -27v-20l-21 -21h-26l-21 10h-20l-6 -6l-33 -4l-33 10v11l-6 4l-6 18l16 8l-10 7l-10 20l-17 16l-8 41l4 11l-4 4v24l-16 9l8 6l-12 14v25l6 8l-17 10l-10 45l-6 10l-16 51l4 25l-8 6v21l-13 10v27 h-8l-27 122h-6l-8 41l-10 11l-12 69l6 4l-6 7l6 4h-11v30l-18 17l8 16l-6 4l8 21l-16 14l8 6h-14l-15 37l-12 104l-14 15l4 10l-4 25l-19 16l13 6l-15 4l-18 37l-2 16l-6 5v38l-21 31v19h-12l-4 -15h-10v-16l6 -4v-17l-8 7l-15 -27l-4 -68l-10 -10v-22l-16 -15l8 -8l-8 -27 l-11 -12v-35l-10 -20l-4 -53l-16 -17h8l-19 -24v-17l-6 -18l8 -8l-16 -19l-6 -61l-12 -33l-3 -20l-6 -7v-8l6 -8l-26 -66v-20l-10 -8l-7 -39l-10 -31v-47l-30 -86l-7 -6l-8 -53l-14 -43l8 -6l-10 -7v-14l-10 -12l-13 -45l-4 -54l-14 -6l-14 -39l-17 -16h-59l-8 10h-17 l-6 -14l-25 24h-22v15h-4l-17 37l-26 104l-8 10v35l-33 105v41l-4 12l-4 49l-13 12v11l-14 6l-6 71l-10 11l-13 86l-8 22l-4 72h-6l-4 -14v20l4 4h-16v27h-5l5 57l-9 8v33h-12l-8 14h4l-4 23l-12 -6v20l-9 62l-12 20v37l-8 8l-12 45v15l-9 57l-12 10l-20 68v35l-29 36h-23 l-20 11l-27 -17l-26 13v10h-6l-2 -10h-27zM1063 999l10 9h-6zM1300 129l7 6h-7v-6zM1311 129h6v6zM1477 387l4 6h-4v-6z" />
<glyph unicode="X" horiz-adv-x="1193" d="M31 49l14 60l16 6l7 -17l18 17l8 -4l12 12l37 -8l86 108l7 25l16 22l2 11l12 16v8l29 33l-2 4l14 10l29 72l39 53h10l4 21l6 6v14l11 10l12 41l28 17l-6 4l6 12h11l6 33l18 39h13l28 55l-22 88l-21 8l-12 19v12l-31 62l-10 8l-27 63l-20 21l-21 37l-6 30l-10 10l-4 25 l-37 41l-20 43l-7 4l-14 37l-63 70l-35 8l-31 4l-45 -4l-18 16v55l6 11l-6 10l18 16l49 7l12 -11h25l23 6l51 -12l6 -6l2 12l20 8q2 -1 7.5 -1.5t9 -2t4.5 -4.5l80 4v-4h37l14 6l27 -12h10l10 -27v-34l-29 -41h-45l-4 4q-8 -20 -28 -25l12 -26l-6 -15l16 -16l27 -74h16v-29 l23 -10l18 -37l6 -39l23 -24l-2 -21l8 5v-5l12 -6l8 -20h7l8 -37l28 -31l15 -20l-6 -25l53 -4l26 25l9 41l12 10l8 20l19 27l8 25h12l8 20l-6 8l19 19l8 20l20 37l15 -12l12 37l10 20v16l10 21h11v-45h12v31l8 10l-6 6l6 14l-10 13l16 34l6 -16l13 14l-9 17v16l9 10l-19 4 l14 7l-8 41h-18l-29 -35h-39l-22 28l14 41v17l16 16h35v-20h11l6 10l6 -10h20l-16 4l4 6h12l4 10l78 10l17 -16l24 6h131l23 -27v-49l-19 -8l13 -12l-39 -19h-37l-35 7l-43 -41l-14 -9v-12l-11 -10l5 -6l-27 -41l-21 -10v-17l-8 -14l-24 -25l10 -8l-12 -8l-23 -37h-12 l-15 -27h15v-10q-14 -6 -17 -14h-16v10l-25 -10v-23l-6 -10l23 -14q-3 -5 -23 -11l-8 7l-6 -7l4 -6l-6 -6l25 -12l-19 -16l-4 -13l-12 -14l-4 -21l-25 -45l-20 -8l4 -12l-17 -19v-14h-8v-61l8 -21v-26h15l12 -48h6l8 -10l13 -4l4 -37l24 -41l19 -10l-7 -6l5 -10h10v-27l-4 6 h-6l14 -26h12l21 -27l6 -21l55 -98l27 -37v-16l18 -10l-10 -6l18 -11v-10l21 -22l4 -31l18 -8l9 -19l4 -31l16 -24l-6 -6v-11l6 -6v-34l-6 -21h-78l-16 16l-19 -16l-28 12l-23 -22l-80 10l-8 -6l-6 6h-27v29l-4 6v16l4 4l-4 13l19 41l30 6l-10 -31l21 -14l8 12v27l22 4 l27 -13l12 13v61h21l6 21l-13 20l-8 -8v-21l-12 -12l-8 6l8 21l-20 -10l-21 43l-41 69l-4 64h-12v-17l-4 -4l-4 10l-17 17v24h-4l-6 -10l-8 19l12 10l-18 12l-9 21h-10v12h12v8h-12l-2 6l-12 6l-10 29l-31 33l-10 30l-11 11v10l-6 6l-10 -6l-4 31l-17 -17h-14l-16 -14 l-4 -10h-6l-11 -31l-22 -20v-17l-15 -20l-8 -33l-18 -14l-45 -93l-23 -12l-12 -45l-39 -65l-14 -13v-6l-15 -29v-20h-6l-12 -12v-19l33 -6l6 -10l20 -6l21 6l31 -10l6 -13l8 6l6 -34l10 -7l-16 -14l-6 -33l-25 -8h-10l-10 -6h-82l-13 8l-22 -10l-59 8l-23 -10l-39 10l-84 2 l12 6l-16 11zM526 739l9 -14h10v14l-10 6zM528 698l17 -4v4h-17zM756 416h12v4h-6zM788 424h5v20l-5 -8v-12zM823 250h6l17 20v11h-23v-31zM823 1108l17 -4v8h-17v-4zM834 223h12v6l-12 7v-13zM840 1380l6 -4h8zM846 238h4l-4 6v-6zM870 31l4 -2h13zM874 1393l7 10l-7 -6v-4 zM913 131h15v10h-13zM915 29l7 2h-7v-2zM915 43h21l12 -12h6l-6 18l-14 4l14 17l-20 -13v21l-6 -4zM963 111l12 4l-12 20v-24zM977 12l12 -4h10v23l11 6l-15 20l-12 -20zM1036 16l4 41l15 -12l8 8l-8 21l10 22l-8 8l6 9l10 -9l8 9l6 -9l11 7l4 -13h39l12 -20h-12l6 -12 l-6 -9h-13v-26h13v-8h-13l-20 -21h-55l-6 8zM1047 37l6 -6l4 6h-10zM1077 16h21l10 13h-21zM1087 37h7v6h-7v-6zM1102 84l6 6h-6v-6z" />
<glyph unicode="Y" horiz-adv-x="1146" d="M31 1356l8 8l-8 8l12 21v14l29 16h32l15 4l10 -4l57 -4l119 4l6 -4h21l12 6l23 -12l26 8q20 -6 25 -24v-45l-12 -41h-44l-8 -8l-28 12l-15 -10v10l-14 -25l18 -10v-27l17 -26v-17l4 -4l-4 -6l8 -31l6 -4l10 -20l17 -17v-24l12 -14l10 -43l39 -54v-20l10 -47l7 -4l8 -31 l12 -10v-17l18 -18l9 -37l14 -16v-7l8 -8l-8 -6l20 -20v-21l11 -20v-17l14 -12l23 23v24l24 16v17l6 4v16l13 29l14 12h6l8 27l6 4l5 37l10 10v21l14 30l12 11l21 61l35 68l6 26h10l27 78l10 14l14 64l8 8l-22 16h-33l-55 29v70l8 10l6 -4l33 10l41 6h72l22 -6l31 6h96l6 -6 h10l5 -6h30v-14l17 -17l4 -16l-4 -39l-17 -6h-30l-21 -15l-74 -6l-14 -20l-8 -31l-19 -20l-8 -27l-12 -16l-8 -41l-27 -52l-10 -10l-10 -20v-13l-31 -55v-16l-16 -10v-23l-17 -22v-9l-20 -12v-20l-9 -7v-36q-13 -10 -20 -25h-12v-12l-6 -4v-17l-9 -4l9 -8l-9 -8l-6 6l-6 -6 v-37l-24 -25h-11v-43h-6l-8 -28v-21l-14 -12l-13 -55l8 -27h-14v-25l6 -12v-27l-6 -14h6v-35l-6 -12l8 -16l-12 -19l4 -6v-31l-4 -6l4 -4l-4 -10h10v-129l-10 -21l4 -26l29 -15l18 11h47l15 -13l6 6h29l6 -26l6 -4v-25l-6 -6v-27l-21 -20h-76l-6 6h-57v27h-14v-27l-19 -8 l-14 14l-8 -6h-17l-4 6l-12 -12l-21 6l-6 14h-14v-8l-12 -16l-50 10h-47l-20 21l4 73l33 15h20v-7l62 11l22 12l15 -6l10 82l-6 28l4 19l-8 8v59l6 19l-6 6l6 10v37l8 10h-6v11l12 14h-12l-11 20l9 19l2 29l6 12l-14 4v16l8 11v20l-8 -6l-15 61l-18 39l-8 8v13l-11 6l-6 39 l-16 20h-4l-4 27l-13 20l9 15l-23 12v14l-16 31l-15 51h-12l6 17v16l-10 -12l-4 16l-13 21l-4 30l-16 11l6 6v30h-20v11l-15 36h-6l-12 17l-8 35l-37 82v32l-17 17l9 39l-21 -39l-22 35l-93 6l-24 22zM197 1315h6l4 10zM455 690h10l-10 4v-4zM506 535l6 4h-6v-4zM614 10 l11 6h-4z" />
<glyph unicode="Z" horiz-adv-x="1056" d="M57 45v29l6 10v27l9 10l20 10v25l14 14l11 29l35 45l34 61l17 17l41 61l10 27l16 12l-6 2v6h12l3 14l14 15l6 24l23 25l8 24l20 15l12 35l37 47l21 35v14h20v20l11 13l8 22l18 19l6 14l9 6v10l14 27l12 4l6 23h8l27 49l23 30l18 7l21 57l6 4l30 64l27 30h8l41 82l12 10 v11l21 22l6 17l25 18l10 37l8 14l-8 6l6 11l-20 6l10 4l-19 6l-24 -6l-68 4l-2 6l-20 8l-23 -8h-26l-9 -8l-6 8l-8 -8l-53 10l-8 -8l-25 6l-8 6h-21l-16 -8l-23 8l-12 19l-22 -25h-58l-28 14l-27 -14h-59l-9 10h-26l-10 -10l4 -10l-25 -31h-8l16 -33l-14 -14l8 -6l-16 -17 l14 -18v-84h-27l-18 -18l-37 12l-12 12v27h12l4 22l-4 13l-20 8l8 14l6 -12l6 6v21l-12 16l-6 20l6 41h12l-6 17h-12v24h12v4l-14 9l8 59l12 25l47 10l21 -8l26 6l13 -6l10 6l6 -6l10 6v-6l10 -4q2 1 8 2t9 2.5t4 5.5h22l3 -6l12 6l31 -10h30l21 10v-6l10 6l6 -10l25 4l6 -4 h16l21 10l41 -6l8 -11h12l6 11l4 -15l17 15h98l21 -11l20 11h21l32 -17l37 19l19 -6h98l6 -11l8 15l70 -17l12 -14l6 -27v-24l-30 -68l-19 -27l-6 -24l-12 -10l-47 -78l-25 -27l-20 -31l-31 -63l-10 -8l-7 -12l-16 -9l-18 -43l-13 -14l-6 -16l-41 -62h-4l-10 -24l-21 -13 l7 -10l-27 -41h-6l-15 -27h-6q-12 -16 -14 -26h-8l-8 -35l-48 -82l-14 -16l-20 -41l-33 -33l-12 -25l-17 -10l-12 -41l-14 -14l-9 -23h-8l-10 -10v-12l-16 -8l-5 -27l-30 -37h-8l-7 -24l-12 -5v-26l-29 -53l-6 -4l-6 -17h-8l-12 -35l10 -26h37l26 -11l9 7h57l41 4l10 -9 l37 9l8 -15l27 11h178l8 -7l39 7h123l31 14v20l6 17v31l6 22l-6 8v41l6 12v35l21 21h28l41 -10v-21l6 -10v-197l-6 -63l-4 -2v-13l-14 -14l-31 -6h-100l-11 6l-10 -6l-6 8l-10 -10l-27 8l-26 -10l-58 10l-12 -6h-35l-27 6h-104l-82 -8l-37 8l-10 6l-12 -14l-13 14h-16 l-10 -6l-47 -6l-103 6l-30 6h-66zM84 1237h6v16l14 11h-12l-2 6l-6 -6v-27zM389 70l4 8h-4v-8zM461 1430l16 -11v11h-16z" />
<glyph unicode="[" horiz-adv-x="522" d="M8 1395l6 20v103l-6 10l6 14v33l9 47l12 -6h14l14 14l7 -4l20 10q12 -12 27 -14l6 8l20 6l15 -6h26l13 -12l12 12h88l14 -8v-33h-41l-8 -20h-47l-6 10h-4v-14l-45 12l-13 -14l-57 -4l-4 -52l6 -18l-10 -25v-55l4 -14v-80l4 -35l6 -10v-27l-6 -4l12 -6v-10h-16v-52h10v-45 l8 -8l-12 -22l10 -17l-6 -6l-6 -41l6 -6v-8l-10 -12l10 -5v-36l-6 26l-4 -6v-35l4 -6v10h6v-14l-6 -6l6 -6l-6 -8v-21h12v-20h-8l8 -31l-12 -10v-19l12 -8v-41l4 -6v-119l-4 -6v-76l4 -6v-27l-4 -4l4 -4v-94l7 -16l-7 -29v-27l-10 -6l10 -4v-63l9 -7l-13 -28l9 -10v-11 l8 -12l-8 -25h-5l5 -14h6v-6l-11 -10l5 -4l6 -33v-113l-6 -30l10 -29l-10 -6l-5 -27l11 -20l-6 -7l12 -6l4 -8l20 -6l7 -10l14 -6v-5l10 5h37l10 6h17l12 -15l12 15h45l6 -6l21 -5v-30q-5 -10 -27 -17h-35l-28 15l-6 -8v-13l-17 6h-26l-6 -6l-23 6l-12 -4l-62 4h-14l-6 11 l-13 -4l-2 4h-12v10l-6 6l12 39l-20 43l6 53v86l-14 25l14 63l-6 17v61l6 8l-6 17v26l6 11l-12 10v47l6 -6v12l-12 8v119l6 41l-9 27v186h9v41l-9 10l3 86l12 12v15l-15 8v70l15 10h-12v16l-9 -6l6 16l3 52l16 -13l6 17l-4 6v22h-8l-17 41l13 25v20l-11 23l5 18l6 7h-13 l7 24v51l6 6v15h-15v12h9l-3 21l-6 6zM29 1012l6 6v14l-6 -6v-14zM29 1270l6 -6v6h-6zM86 1151l4 -4v4h-4z" />
<glyph unicode="\" horiz-adv-x="514" d="M96 1419v51l15 15h30l29 -45l14 -37l31 -105v-24l10 -21l6 -63l23 -55l8 -33v-31l19 -18l-11 -9l13 -14v-16l32 -121l13 -23l12 -63l-8 -16l12 -15v-10h10l11 -82l6 -10v-17l14 -30v-33l6 -8v-27l15 -8l12 -33v-20l10 -11v-43l10 -4v-37l-10 -16l4 -25l10 -4l7 -16l14 -8 v-19l-14 -4l18 -8l12 -24v-15l-4 -6v-20h8l13 -17l-9 -24l15 4l6 -23l-6 -6l6 -8l-6 -8l6 -19l-19 -8l15 -8v-12l12 10l21 -51l-13 -21l13 -16l6 -35l20 -8v-23l19 -80l-11 -24v-21h-47l-14 15l-14 47l-7 10l-8 33l-6 49l-12 26l8 15l-12 12l6 6l-14 23l10 20l-23 23v47 l-10 31l-10 4l20 6l-10 14h-6l-14 23l4 4v10l-15 8v35l-12 21l-6 57l-8 14v41h-6l-5 10l5 21l12 6l-12 10l-11 -6l-10 17l-4 61l-16 33l-7 20l-8 -6l-20 94l-6 11v20l-7 14l-8 41v27l-12 20v21l-14 16l-6 27l-5 35l-6 6l-4 47l-6 14l-4 37h-16l-5 57l-6 15v26l-6 5v12l-8 -6 l-6 10l-14 72l-7 12v14l-6 6l6 4v11l-20 43l-6 4v16l-6 15v26zM408 285h4l8 16h-12v-16zM428 291l4 10l-4 -6v-4z" />
<glyph unicode="]" horiz-adv-x="708" d="M96 -154l10 25h25l12 -12l33 26h17l8 -14l43 14h35l26 13l14 14v37l7 10l12 49l8 6l6 27q-1 2 -2.5 6t-2.5 6.5t-3.5 4.5t-5.5 3l-16 -4l10 25v68l-6 16l6 10v37l6 8l-10 25l12 12v21l-8 -11l-8 8l14 29l-8 29l8 18l-6 10v78l10 23l-2 33v206l14 35l-14 6v37l6 4v27l6 10 l-6 6v27l-6 8v37l6 4v21l6 53l6 10l-12 10l-6 27l12 10v41l-6 31v92l6 6l-6 10v31l6 10v54l-6 14l12 6l-6 8v80l6 4l-12 21v20l12 11l-6 51l-6 12v35l-41 10l-47 4l-22 -6l-39 18h-25l-10 -10l-25 17l8 14l-10 8l25 12h37l4 -6l47 21l57 -8l6 -13l21 6h35l6 -6l35 6 q13 -2 16 -26h10v-35l-6 -12l6 -25l-6 -88v-109l-4 -14l10 -37l-12 -12l6 -18v-27l-4 -10l4 -6l-4 -93h-4v-118l4 -17v-49l-4 -6v-41l4 -12l-4 -66l-19 -55l19 -23v-24l-14 -8l8 -11v-28l-6 -6v-31l6 -10l6 -82l-6 -11v-32l-11 6l-4 -15l15 -6l6 -47l-21 -41v-10l9 -10v-37 l6 -10h-6v-17l-7 -12l7 -29v-55l-7 -8l13 -25l-6 -149l-5 -17l5 -4l-5 -4l-8 -39l8 -8v-61l-10 -33l-14 -15v-20h-19l-6 8l-14 -14h-29l-8 -4l-29 4l-34 -8l-17 8h-10l-6 10h-6l-6 -10l-33 8l-8 -8l-41 6zM360 1376l27 8l-27 -6v-2zM387 -68l12 7h-6z" />
<glyph unicode="^" horiz-adv-x="899" d="M0 1038v21l14 31v20h13l14 12l12 43l8 6l13 27h14l6 -6l-6 -2h14v14l-24 8v19l10 14l6 -6h15l6 6l-13 10l7 5v26l10 21l4 -7h6l23 72l16 14l8 25l41 4l4 4h12l9 6l20 -20l6 -16l15 -11v-14l32 -47h7l20 -37l4 -16l-8 -19h12l19 -18l8 -56h20l35 -69v-17l6 -6v-45h-47 l-8 10v11h4v4l-16 8l-23 45l-26 31v24l-13 4l-8 21l-12 6v21l12 6l-6 6h-12l-25 41v14h-12l-13 21h-16l-6 -21l-16 -8l-62 -127h-10l-4 -4l10 -10l-31 -19v-12l11 4l-11 -20l-20 -11v11l-17 -5l13 -10v-16l-19 -31l-6 8l-14 -14l-27 8zM20 1079l7 -4l6 15zM94 1151l15 -6v6 l-15 12v-12z" />
<glyph unicode="_" horiz-adv-x="688" d="M96 -135l6 12v8h9l12 19l47 8l4 -6l-4 -2h174l27 8l20 -6h62l10 6h16l8 -8l52 12l12 -18l6 8h51l10 -8l7 8l77 -2l25 8h104l11 -6l84 8l24 -10l15 -23l-13 -24l-18 -7h-78l-12 7l-25 -13l-35 6v7l-12 -7h-82l-10 -6l-4 6h-10l-17 9l-4 -15l-27 13v4l-20 -4l-29 -13 l-39 13h-26l-8 4l-7 -4h-16l-10 -13h-51l-31 6l-10 -6l-35 13l-19 -7h-34l-33 -8l-45 15l-27 4v-19l-69 11l8 8z" />
<glyph unicode="`" horiz-adv-x="514" d="M39 1462l10 29l37 12l12 -12l78 -10l31 -17h10l25 -10l59 -10l8 -17h60l10 -14h35v-16h6l8 10l6 -4h15l12 -10l31 -7l14 -24l-17 -29q-20 7 -30 21l-13 -13l-59 9v26l-8 -20h-27l-12 12l6 8l-10 6q-12 -5 -14 -16l-13 20l-28 -4l-13 4l-8 -4v4h-12l-21 11h-41l-30 16h-27 l-31 14h-24zM289 1434l6 -7v7h-6zM414 1356l14 6l-2 4z" />
<glyph unicode="a" horiz-adv-x="1292" d="M31 47v25l6 16v21l26 26h107l27 25l10 37l20 20h23v37l-12 -6l-7 6v29h19v18l-8 16l8 19l4 26l10 9l15 37l-9 8l15 39v14l14 39l12 -6v28l4 7l4 47l13 20v27l14 31l6 -7l4 7l-4 10l4 24l9 9l-9 10v8l11 12v25l20 71v17l10 10v21l6 -5l7 5v20l24 98l10 21l17 45l-8 8l6 10 v15l24 57l11 49l6 8l6 31v31l6 10v14l-6 7l8 8l-14 12h-8l-7 -10l-55 20l-33 -12l-20 8l-21 21v65l29 19l10 -11l70 15h82l16 -13l6 13h72l12 -6l29 6l16 -13l9 7l14 -13l-8 -8l20 -20v-13l17 -14v-8l41 -146l6 -59l14 -21v-34l10 -11v-16l10 -20v-37l17 -25l-4 -4v-12h4 l20 -47l31 -113l-8 -10l2 -37l12 6l21 -74v-28l10 -13v-20l16 -31l9 -82l6 15l26 -72v-21l11 -20l-7 -10v-31l7 -6l-7 -15l11 -12v-14h10l10 -14l16 -60l-10 -8l25 -33l-4 -10q11 -9 16 -25l-6 -6l6 -4l4 -16l-4 -4l8 -17h27l20 -10l52 8l49 -8l14 -27v-61l-16 -14h-37 l-23 -15l-110 17l-27 -15l-20 6h-31l-25 9l-16 -9h-25l2 7l-20 -7l-8 7l-6 -7h-21l-37 35v47l19 25l18 8l74 4l20 21v16h-6l-14 35l4 16h-4l4 27l-16 14v21l12 6l-27 16l-20 86l-33 39l-39 8l-12 -10h-25q-3 5 -22 10h-21l-4 5h-16l-29 -15l-6 6l-33 4l-6 -8l-33 8l-22 -10 l-4 6h-62l-12 9l-6 -7l-8 7l-7 -5h-20l-8 -4h-33l-10 -6v6l-11 -6h-10l-8 -24l-18 -17h-11v-6l17 -14l-21 -31l-12 -53l-6 -53l-19 -35l-4 -21l-6 -4v-12l10 -8v-6h-10v-7l10 -8l21 8q18 -2 26 -14h56l16 -33v-47l-16 -22l-15 -7h-57l-12 -8l-119 11l-14 -9l-35 6l-33 -8 l-45 8h-4l-12 7h-21zM299 197l6 -7v7l-6 4v-4zM410 543l4 -27l10 6l10 -6l4 12l41 -12l6 -14h13l8 8l39 8l20 -10l35 8l21 -8l24 14l12 -12l27 6h29l20 -14h8l9 14h10l6 -8h20l31 8l12 25l9 -11v27l-11 57v31h-6v6h-10l-10 21l-31 149l-10 10v11l6 6l-6 4l-15 47v16l-12 52 l-20 24v27l-8 20v27l-13 25l6 6v14l-12 12l-20 62l-4 37l-35 28l-23 -24l-20 -11l6 -4v-20l-17 -6v-35h7v-21l-33 -84v-26l-8 -6v-29l-21 -41l-8 -8l-16 -105l-15 -12l10 -16h-10v-21h-8v-24l-33 -21l19 -12l-13 -8v-53l-14 -48v-20l-16 -21q4 -19 12 -22zM485 475l7 -10 l8 14l-15 6v-10zM547 1225h12l-12 6v-6zM580 1198l4 -4v10h-4v-6zM600 1255h25l6 17l-27 -6zM786 510l5 6h6z" />
<glyph unicode="b" horiz-adv-x="1171" d="M96 1315l6 6l-6 6v8l13 13l-13 8l6 20v27l15 16l6 -4l8 4h90l4 -4h31l18 8l48 -12l34 12l23 -14l8 6l-6 4l49 11l41 -11l72 4l14 -28h6l6 20h15l20 8l4 -4v-10h17l10 10l41 4l16 11l31 -11l6 -6l31 13l4 -7h31l6 7h30l11 -11l26 -4l56 -67l26 -21l27 -10v-6h4l47 -51v-7 q1 -2 5 -4.5t6 -5t3 -6.5v-150l7 -10v-149h-15l-6 -17l8 -12l-18 -29l-62 -61h-14l-12 -51l18 -25l19 -10l45 -51l22 -19l15 -22l6 -2v-19l8 -8l-8 -6l6 -10v-115l8 -8v-146l-6 -12l6 -4v-92l-39 -49l-31 -17l-6 -18l-22 -21l-21 -26l-20 -8l-27 -27l-29 -16v-11l-12 -10 l-67 -4l-11 8h-51l-4 6h-12v-6l-8 -8h-19l-14 8l-21 -12l-28 20l-13 -12v-12l-30 8v21l-33 -13v-8h-62l-26 -10l-55 14l-11 -10l-8 8l-8 -8h-16l-15 31l-14 -17v-14h-39l-27 10l-18 -10h-16l-27 -8l-14 14l-17 4q-5 -11 -24 -14l-33 8l-12 27l2 10l-5 14l11 39l14 14h12 l7 -12l34 19h47l17 8l8 26v68l6 49l-6 66v164l-4 22v109l6 26l-10 29l12 29l-12 14l6 59l-8 8l6 76l-4 58l4 6l-4 6v67l6 31l-12 15l6 4l-6 16v115l-6 8l6 39l8 8l-8 16v21h-6l-5 6l5 4l-21 14v9l-14 14l-11 -10h-6v4h-6l-8 -8h-33l-6 4zM113 1346l16 -15v23zM272 16h4l-4 7 v-7zM272 131h11v14l-11 -10v-4zM272 145l11 11v6h-11v-17zM295 389h14l15 -6l-9 16h-20v-10zM332 1268l8 -8l-4 -11l14 4l-10 -10l16 -26v-103l4 -20l-16 -25v-100h12v-15h-6v-12l-6 -4v-20h-8v-11h14v-10l10 4l5 -14l-5 -10h-20v-7l25 -8l8 -53h45l10 -6l35 6h53l10 -6h37 l4 -6h17l14 12v-6h37l14 6l19 -12l-13 -9l7 -6l20 21l20 6h27v-6l12 -6l13 6v-8l26 2l15 18l26 8l15 13l6 -13l32 47h9l32 41l5 17l16 6l4 10l-4 176l-8 15l8 14v20l-6 21l-15 22h-12l-35 37l-34 49l-13 9v4l-12 -6l-18 10h-21l-27 -4v4l-10 -4l-4 4h-88l-27 6l-10 -10h-24 l-17 24h-16l-25 -20l-20 -4l-21 4l-6 12l-12 -12v6l-14 -14h-41v14l-7 6l-4 -12l-16 -15h-16zM354 285h11v-9h-5v-32l5 -6l-9 -9v-20l9 -12v-25l8 -18l-8 -9l6 -4l8 -20l-8 -6h110l8 -11h7l8 -10l6 17l6 -13h6v13h56l10 -7l35 15l22 -10l25 6h26v-11h6l11 11h51l-4 -11 l20 11h47l27 37h8v-11l12 11v14l50 57h10l12 21l17 71l-7 7v36l5 4v13h-5v88l-6 4l8 14l-8 6v48l6 14v16l-18 35l-23 10l-16 27l-22 20l6 7l-21 10l15 4l-23 12h-12l-15 15l-98 8l-6 -8l-35 8l-18 -8h-29l-20 6l-23 -6l-31 6l-10 -6h-20l-7 6l-8 -11h-110l-33 -12l-14 -51 v-242l-5 -6l5 -10l-7 -19l13 -8v-4l-15 -6v-10h9l6 -10zM387 125v10l4 -10h-4zM614 776l15 19h-15v-19zM811 63h4v21l-4 -6v-15zM1018 891h4v6zM1042 342h19v10h-6z" />
<glyph unicode="c" horiz-adv-x="1087" d="M96 360l10 27v27l9 73l-4 13l8 10l-17 33h13v325l6 13l-8 2l2 47l6 12v86l-6 6v15l6 12v20l-6 6v103l18 31l21 6v14l8 10l10 -8l6 29l17 8l22 35l29 20h30v21l33 45l39 20v-4l12 10l41 11h52l20 -6l10 6l4 -17l13 6l4 -6l37 17l26 -17l8 -10h13l6 16h35l-6 -6h20l16 11 h68l4 -5l19 9l18 -9h20l31 -16l25 -4l16 -10l10 -21l105 -108v-13h8l27 -24v-170l-6 -21v-36l-41 -21h-45l-29 35l8 31l-6 20v59l-4 15l4 6l-31 72l-37 26l-8 27l-27 20h-12l-20 9h-15l-10 6l-51 6l-25 10l-12 -8v12h-6v-12h-137l-31 6l-80 -14l-31 -27h-10l-6 -10l-23 -6 v-25l-53 -45l-26 -43l-11 -51v-68l-10 -47l10 -57l-4 -4l4 -4l-4 -7v-20l4 -6l-4 -146l-6 -28v-223l-4 -31l4 -21l-4 -6l4 -31l-4 -4l4 -14l-6 -14l6 -19l-4 -6l4 -45l10 -6l19 -43l28 -14v-17h21l18 -35h7l-3 -20l15 -10l28 -11v-18l44 -12v-6l40 18l29 -12l41 8l23 -10 l30 6l84 -6l17 6v-4l65 4l21 10l6 10h6l35 41l12 6l27 35h18l6 6l-6 11l17 22v55l16 35l-12 12v66l12 39l27 10l14 -8h35l14 -25h6l6 -16l-6 -4l6 -21l-12 -20l14 -12l-14 -39l12 -10v-74l-12 -10l6 -11v-26l-24 -17l-23 -39l-29 -20h-8l-43 -57h-6l-33 -21l-10 -24l-45 -23 h-47l-6 20h-4v-20h-21l-6 8l-14 -8v6h-17l-4 4l-12 -10l-14 6l-15 14h-12l-8 -10l4 -4l-4 -6l-53 10l6 4l-27 -8h-35l-33 8v6l-14 -10l-24 -6l-54 6l-35 19l-12 22l-31 17l-4 10l-12 4l-6 16l-25 17v24l-22 23l-12 -6l-17 20h4v10l-49 31l-20 41zM127 268h6l2 17h-8v-17z M147 242h7v6h-7v-6zM659 51h15v10h-4l4 11l-15 -6v-15zM989 1034l6 -6v6h-6z" />
<glyph unicode="d" horiz-adv-x="1228" d="M96 68l6 28l15 6l26 27l15 6l8 -18h12l33 14l18 -10l17 16v39l6 8l10 95l-8 38l14 19l-6 8l6 6l-14 12l14 15v20h-12v15l12 16h-12v6l12 10v21l-16 16l16 23v18l-12 21v108l-4 11l4 10l-4 10h4v27l-6 20l18 35h-12v27l6 10l-10 4v33l22 59l-12 12v15l-6 6l12 6l-12 6v14 l12 29q-1 2 -2.5 8t-3.5 10t-6 5v20l6 10v47l-8 50l8 16h6v6l-12 12v35l12 10l-14 15l10 45l-8 8v21l-4 6l4 4q-11 2 -14 16l-13 -14l-41 12l-12 -12l-18 14h-8v21l-13 8h-8l2 -29h-20v80l20 10l6 -28l37 34l8 -16l8 8l35 8l15 9l6 -17h6l6 -8l14 12l17 4l8 -26l18 18l15 4 l6 11l4 -9l16 9q9 -5 15 -21l30 14v-4h11l8 6q13 -3 18 -22l-6 -12l6 -15h15v-35h-13l-8 -22l-76 -27l9 -8l-7 -22l21 -11l-14 -14l8 -27l-25 -47l8 -14l9 -2l6 -23v-20l-6 -4l6 -27v-98l-6 -14l12 -21l-6 -33l-6 -6v-8l6 -6l-6 -29l6 -8l-9 -68l11 -24l-17 -10v-13h15v-49 l-6 -18l10 -23l-15 -6v-16h5v-27l6 -8v-281l-6 -14l6 -12v-15l-11 -10v-31l5 -6v-57l-27 -12v-17l18 -6l9 6h20l-6 -45l24 8l9 17l20 14l64 6l82 -6h77l68 -6l27 6h45l34 33l7 -6l10 2l-4 12l24 20h17l6 -10l4 21l10 20l47 53l27 7v8l12 12l8 23v12l9 47l-5 4l11 25h6v12 l-17 4l5 10l6 68v65h26v27l11 20l-17 -8v15l-14 -35l-8 67l12 -12v-14l16 10h11l4 14l-11 11l-10 43l-4 -7l4 -14l-4 -6v-27l-10 17v41l-14 12l10 16l-8 23l6 27v81l-6 27v78l6 20l-11 37l17 15l6 -21l8 27v24l-4 11h-6l-6 -39l-10 8l-5 63l-20 15v12l-16 8l-29 53l8 9l-6 6 l-8 -6h-17v6l29 10l-10 39l12 12l-14 17l-8 -21h-25l-4 -27l-4 -4l-6 11h-6l-9 18l-18 -8l-35 45v12h-31v41l7 6l8 -26l6 20l6 6l-8 25l28 20h15l20 -16v-6l11 -2l-21 -13l14 -24l-24 -10h16l15 14l16 -8l6 18l10 -10l21 -8v-6l-12 -13v-20h12l8 8l25 -16l-7 -17l9 4l20 -4 l33 -30v-13l14 6v-10l21 -26l10 6l6 -21l10 6l4 -18l25 -18l12 -23v-82l-6 -33l6 -12l-4 -6l4 -33l4 -8l-4 -12v-228l4 -20l-4 -21v-200l4 -27l-4 -41l-4 -4v-33l4 -14v-33l-4 -14v-43l-26 -35l-89 -88h-10l-20 -29h-13q-6 -13 -22 -20v-13l-53 -57l-31 -20l-16 -5l-15 -10 h-139l-43 10l-21 -10l-4 4h-26l-10 -4v4h-21v11l-49 -13l-49 8v15l-10 10l-7 -4v-21l-14 -10h-111l-24 4l-4 6l-13 -6l-4 6l-10 -6l-16 31l-8 -14h-17l-18 8l-13 -29l-6 4h-10v9l-16 -9v11l-25 -7q-9 15 -24 19v8zM137 1370l6 6h-6v-6zM150 45h8v16h-8v-16zM190 1399l5 12 l-5 -6v-6zM272 778l4 6l-4 7v-13zM283 434l6 -6h14l-6 6h-14zM289 383l4 -12h10l10 10l-12 29zM289 471l20 -6v57h-12v-20zM297 1178h6v12l-6 -6v-6zM297 1376l18 8l-6 7h-12v-15zM338 1171l6 -2l6 9zM344 102l6 -10v10h-6zM459 1395l4 10h12v16l14 -4v-12h7l4 20h63v-20 l-6 -6v-21l14 -14q16 4 17 20l-4 7l4 6l-4 20l4 4l4 -4l6 8l10 -8l25 6l6 -6v-47l27 6v15l-7 8v26h58l12 7h55v-33l-6 -15l-4 -41l-20 -26l-25 -4h-33l-10 10l-6 -8l-14 8h-11v6l-32 6l-9 -18h-16l-10 12v14l-25 -6v-20h-33l-6 20l-4 -22l-10 8l-6 -6h-8v6h-17v10l-16 17z M471 37l8 -6h21l-19 18zM489 1337l7 6v13h-7v-19zM506 1413l16 -29v21zM557 1356h6l-6 2v-2zM604 51l4 -6h6zM682 1339l25 11l-9 6l11 24l-27 -4v-37zM690 1391h12l5 6l-11 2zM831 109h19l6 14q-12 6 -14 14l-6 -2zM842 1384l4 15l-4 -8v-7zM846 1358l6 6h-6v-6zM956 1225 l2 14l-2 -4v-10zM1012 1118l10 -16l10 4v4h-10v20l-4 7zM1028 506l4 -4v8zM1038 1149l11 2h-7zM1079 852l4 -4l7 10h-11v-6z" />
<glyph unicode="e" horiz-adv-x="1187" d="M96 68l15 10l2 -55q-3 9 -9.5 25.5t-7.5 19.5zM111 1372v29l10 26h18l25 9l12 -15h17l4 13h20l6 -7h31l10 -6h15l6 6h10l12 9l37 -17l16 8v-6h27l12 13l4 -7h21l8 -8l39 8l21 -8l55 8l6 -6l12 6l6 -8l13 13l65 -15l13 4h77l13 -16l22 16h88l68 11v-11l10 6h21l26 -8l29 8 l59 -14l10 -12v-25l11 -61l-11 -6v-56l13 -69l-8 -35v-25l-15 -32h-41l-33 6l-14 22v107l6 14l-6 6v27l-14 14l-33 21l-4 -4h-78l-24 4h-146l-16 6h-84l-29 -6l-20 16l-27 -16l-10 6h-82l-37 -12l-4 -19v-145l-8 -9l8 -38v-140l-6 -71l-11 -27l11 -27l20 -20h31l6 8l21 -8 h75l6 -4h89l8 8l30 -10l35 10l25 -8h20l6 10l15 -10l41 22v45l6 4l8 35l12 9h47l21 -21v-131l-6 -10l8 -15l-8 -71v-43l-10 -21l-23 -16l-41 10v23l6 4l-14 6l-12 37l6 20l-8 4l-17 21l-16 4l-10 -8l-35 16l-17 -12h-26l-25 4l-8 -6l-41 8l-16 -6l-15 14l-8 -14h-156 l-24 -13v-12l-12 -20v-54l12 -79l-12 -127l-7 -21l-2 -47l9 -10v-74l-7 -29v-61l15 -45l12 8v-10l12 4v-4h9l6 -6l26 6h35l8 -6l15 6h20l8 -10l13 4h28l6 -4l37 10l31 -6h72l26 6l15 -6l61 -4l43 4l4 -4l8 4l41 -9l17 17l39 -8l16 32l-6 48l6 22l-6 41l16 59h6l13 15l22 -15 h31l20 -14l-4 -100l-8 -6l8 -9v-12l-6 -4l10 -10v-121l-20 -33h-10l-13 -12h-75l-37 6l-4 6l-11 -6h-10l-8 -6l-39 6l-37 -6l-14 6h-57l-41 6l-9 -8l-30 8l-13 -6h-110l-103 8l-14 8l-6 -10l-16 -6l-5 6l-57 2l-6 6l-21 -10h-116l-78 4v19l8 20v35l10 8l-12 6l-12 -4l-6 4 v13l6 4l6 -4l20 10h48l8 -10l22 10l-6 4q16 7 21 20h10v23l6 8l4 88l6 12l-6 35l-4 6v170l4 5v47l-4 10v115l8 43l-8 131l4 129l6 20l-6 23l6 4l-6 10l12 23l-14 6l8 161l6 7l-6 12v70l-20 6l-11 -4l-6 4l-26 6h-49l-27 12v12zM172 78l4 -4h4v4h-8zM291 477h4v6zM315 465h11 v18l-7 4l7 11v20l-11 -6v-47zM352 182l6 6v15l-6 -10v-11zM393 16l6 13h-6v-13zM600 782l6 -10v10h-6zM635 1346l12 -7l4 7h-16z" />
<glyph unicode="f" horiz-adv-x="1155" d="M96 1360v65q18 10 21 19l6 -4h31l4 -17h26v17l37 4v-17l23 -16l26 33h19l8 -10h27l12 6h72l10 4h37l8 -4l39 6l8 -6l6 4h82l10 -4l35 4l59 -4l27 4l8 -4l64 4h67l19 -6l33 6h41l12 -4l67 4l11 -21h28l4 -30l9 -9l-9 -12v-33l11 -28l-13 -21l9 -33l-7 -51l-8 -6l12 -12 l-12 -14v-15l6 -6v-12q-21 -7 -26 -23h-56l-8 27v65l-4 17v41l-6 6l6 4v16l-12 19l-31 6h-29l-45 16l-34 -10h-56l-16 6l-92 -10l-25 14l-18 -10h-115l-25 14q-23 -3 -30 -14h-51l-21 -14l-10 -21v-26l-17 -47l-4 4l-12 -15h12v-26l4 -6v-15l13 -10l-8 -21l-9 -4l15 -16v-37 l-6 10l-7 -14l13 -10v-27l-6 -6v-14l-9 -11l4 -16l5 10l8 -80l-15 -30l11 -25l-13 -20l25 -52h20l11 -10h37l18 -6l14 12l21 -10l39 4l10 -10l22 10h41l45 6l17 -10l-10 -12h16l27 12l45 4l6 -14l-17 -17l27 -8v15l-8 4l8 16h10l4 -20l7 8v16l30 -4l31 14h16l6 -6l9 64 l-9 28l23 23h33l10 -4l4 -10l14 -9l9 -28v-170l-11 -6l11 -6v-15l-6 -6l6 -20l-9 -37l-14 -15h-35l-20 21v16l-6 8v37l-15 23l15 6v14h-15l-18 -20l-25 39l9 26h-19l-6 -49l-18 19l-11 -4v4h-8l10 -21h-92l-8 10l-39 -18l-25 8l-6 6l-26 -12l-29 23q-17 -7 -20 -17h-62 l-35 -6l-30 8q-15 -5 -19 -16l-10 4l-12 -25l8 -6l-10 -8l-11 -117l9 -20v-58l6 -14l-6 -6v-123l6 -10v-115h-11v-10l11 -10l-6 -21l12 -10h20l25 -27v-26h12l8 43l21 6l39 -6l24 -17l4 -10l-4 -61h-10l-10 8l-4 -21l-8 19l-13 -23l-47 -6l-6 6l10 21l-4 26l-12 4l-14 -43 l10 -12h-17l-6 6l-24 -12l-11 6h-30l-6 8l-11 -10l-16 6l-14 17h-21v-21h-47v14h-10l-8 -14l-23 -6l-27 8l-38 23l14 10v10l-12 10l-9 -4v35l15 17l73 10q13 -2 15 -15l31 15v16l20 4l-8 13l20 20l-6 25l-10 4v110h12l-14 58l12 24l-6 10l-4 78l6 29l-6 8l4 4v23l-6 22 l24 21l-22 6v12l24 12l-14 29h-10v47l-4 21l8 4l-8 29l8 28l-4 129l6 15l-6 18l10 8l6 17h-6v16l6 -6l6 8l-20 14l-6 62l4 47v102h4l6 11q-1 2 -2.5 6t-2.5 6.5t-3.5 4.5t-5.5 3l4 10v27l-10 41h-6l-11 10h-24l-11 10l-32 -4l-19 19l-8 -15h-8zM137 1382h6v4zM201 35l10 6 h-10v-6zM356 860l4 -6v6h-4zM391 41l6 -6l4 12zM543 1407l6 -14l14 20l10 6l-16 15h-14v-27zM584 1376h20v27h-10l-10 -17v-10zM649 760l6 -4v10zM743 719l21 -21v21h-21z" />
<glyph unicode="g" horiz-adv-x="1101" d="M96 477l8 39l-6 19l15 26l-9 49v56l7 24l-9 15l9 12v26l-11 9l11 10l-7 18l7 11v47l-13 20v57l6 5v45l7 36l-13 7v47l6 16l-8 57l8 21v57l15 8l26 41h7l8 21l43 29l-10 -23l4 -6l10 10l10 31l21 20v6l73 78h15l14 17l37 6l47 -6h108l21 4l20 -17l13 7v-7l8 13h104l29 -17 l6 17h80l6 -21l25 -6l14 -14v-6l33 -15l70 -73l14 -27h8l25 -31v-41l-7 -39l11 -28l-8 -41l4 -11l-9 -6v-30h5l4 -11l-29 -26h-21l-12 -8l-31 14l-22 24l6 17l-4 10l6 23l-6 14v92l-16 16l-9 19l-22 8l10 4l-22 8l-23 23l-10 18l-31 17v12h-84l-20 6l-41 -6l-6 6l-11 -6 l-20 6l-17 -6h-149l-31 6l-26 -16l-27 -27h-21l-8 -10v-21l-37 -36l-20 -15l-31 -53l-6 -236l-4 -12v-31l-16 -14v-57l10 -4l6 -13l-10 -8v-33l-8 -24l12 -23l10 -4l6 -10l-6 -68l6 -10l-6 -35l-4 4l-6 -4v-39l10 -8v-63h-20l-4 -21h10l4 11v-21h-14v-31l10 -14l-19 -37 l17 -14l-19 -10l11 -7v-26h24l6 -6h15v-9l6 -6l8 -30l27 -11l-9 -6v-10l9 -10l12 4l4 -4l10 4l21 -21l-7 -8h13l18 -14l-12 -10l8 -9l-20 -14l12 -12v-21l-10 -16l10 -8l20 63h35v-20l17 -6l20 8l10 12h21l10 -12l-6 -8l47 20h35l6 -12l12 6l35 6l10 -12l6 6l48 6h45l4 6 l18 8l29 33h26l15 8l12 17l-8 14l8 6l23 35l28 6l21 41h10v80l6 23l-6 100l10 10l-16 111l-17 35h-18l-8 -9l-23 9h-131l-41 4l-10 6l-10 -6l-4 10h-6l-5 -10l-10 22l-10 6l12 33l23 16h41l20 7h68l26 6h31l6 -6l17 6l14 -13l37 13l24 -6h52v-13h37v-20l10 -21v-65l-6 -6 v-31l-15 -16h13l8 -35v-115l-6 -37l-4 -61l4 -8l-4 -7v-77h-11v-7q3 -1 5 -3.5t2.5 -4.5l1.5 -6t2 -6h4v-41l-7 -39l9 -39l-23 -14l6 -10v-13l6 -4l-6 -10v-21h-41l-22 -8l-10 19v20l-15 17v47h6l-16 55h-4l-6 -14h-11q-21 -4 -26 -21l-4 15h-6l-17 -48l-35 -26l-14 -4l6 -9 l-24 -8l-9 -26l-26 -9h-21l-6 15q-15 -1 -22 -19l-6 9h-17v-15h-61v25l-6 -4l-7 -23l-34 17q-16 -4 -27 -15h-61l-11 4l-16 -4l-29 8l-10 35l-12 8l-6 -10v-20l-9 -11l-20 21l-19 -10l-14 30l-14 15v6l-12 -6l-21 39v8h-4l-6 12l-4 -20l-17 14v8h-10v27l-4 16 q-3 0 -5.5 -1.5t-4 -4t-2.5 -4.5t-2 -6t-2 -6l-17 6l-8 16l-33 31l-6 27h-8q-15 7 -14 30l2 88l14 -6l-8 21h-8v12l8 4v41zM113 455l6 -6v10zM156 776h10l14 15l-8 10h-12zM203 258l10 -10v31h-10v-21zM248 1317h10l-10 20v-20zM279 96l6 -8v14zM295 92h4l-4 10v-10z M299 137l6 -2h12v8h-12zM379 76l4 6h-4v-6zM399 82l4 -10l7 4v12l-11 4v-10zM465 55l6 -4v21zM467 104l10 -22l6 8zM600 20l10 5l-4 6l4 4v16l-10 -10v-21zM772 115l8 -13l6 15v20h-14v-22zM911 496h21v6h-21v-6zM920 383h6v4zM946 51l12 10l3 11h-15v-21zM952 96h6v6h-6v-6 zM954 252l7 -10h20l-8 16zM961 164h6l20 33l-8 -7h-18v-26zM967 201h6v4h-6v-4z" />
<glyph unicode="h" horiz-adv-x="1376" d="M96 1364l13 12l-11 23l39 22h33l4 -4l10 4v-10l27 10l4 -4h21l22 10l35 -6v-4h-4v-8l35 18h32l19 -20l28 20h76l17 -16l4 -47l-11 -8l11 -13l-11 -14v-10l-20 -4h-92v-19l-6 -8l6 -6l-6 -10l-6 -144l-7 -16l11 -8l-9 -8l5 -11l-5 -24l11 -27v-41l-6 -12l8 -18l-8 -60h-9 l9 -2v-22h-15l-6 -31l14 24l7 -18l16 -16v-11l-8 -10l28 -6l21 10h57l23 -4l20 4h123l12 -12l54 12h192l19 -4l43 10l20 21l12 35l4 -4v36l-10 21v47l10 45l-4 6v160l-6 27l-6 10v45l-4 20l-10 19l-62 2l-47 18l-16 15l6 26l-8 6l8 9l-8 6l8 14l55 21h37l6 -11h21l10 11h16 l41 -11l45 19l23 -10l31 10l6 -21l18 11l4 -9l13 11h30l17 -15l10 4l12 -4l10 -33l-8 -41l-20 -8v2l-25 -8l-20 -12l-31 8l-10 -10l-35 -10l-8 -17l6 -14l-10 -39l4 -31h4l-4 -30l4 -5v-245l-4 -19l4 -10l-4 -98l-4 -6l14 -31l-6 -10v-27l6 -8l-6 -13l-4 -40l-4 -7l8 -8v-33 l6 -4v-16l-6 -4v-103l-8 -47l18 -10l-12 -22l14 -5l-12 -10v-16l6 -10v-64l-8 -49h12l-10 -43l-14 -4v-6l10 -4v-11h8l35 -63l2 16l12 -4l8 4l6 -10l13 6l4 -33l20 21l-4 12h51l13 -43l-8 -20v-17l-15 -4v-16l-6 -4l-4 16l-6 -12h-10v8l-15 8l-8 -20h-33l-16 -8l-41 8 l-10 -11l-39 15l-19 -8h-32l-15 14l-6 -6l-27 -4v20h-14v-20l-14 -4q-12 2 -21 14h-20l-12 10l-9 -4v8l-6 6v21l6 10l-10 8l25 29h14l8 -14l19 8h28l6 16l7 -4v-20l20 -13v-14h12v14l-8 23l8 31v159l4 21v51l9 16h-9v62l-4 10v135l13 13l-13 12l-12 74l-27 14l-8 -6l-32 6 v12h-21l-6 -10l-45 10l-8 -8l-7 8l-16 -12h-31l-10 6l-4 -6h-33l-18 -8l-17 8l-53 6l-20 -8v14l-41 -6l-10 -12h-48l-30 6l-17 -6l-92 -2l12 -8l-20 -13l-6 -73l-8 -9l10 -43l-8 -16h-6v-10l12 -6l-19 -9l11 -8l-13 -12l-6 8v12h-12v-26h39v-88l-15 -52l17 -14l-8 -33l-6 -6 l12 -41l4 -129l10 4v-8h101l8 -16l16 -17v-69l-27 -13h-30l-27 -8l-63 11l-21 -13l-76 15l4 6l-8 4v12l-12 -6v-27l-41 6h-45l-8 -8l-33 15v8h-18v41l6 6l12 37h41l14 10h35l6 -20l6 6v14h17l14 41v37l21 20v27h-21v20l8 -16l27 45l-6 -6l-17 16l-6 23h-6v61h6v11l-6 10v47 l6 16l-6 15v77l10 11l-10 20l-6 111l-4 2l4 53v201l-4 12v125l6 6l-6 8v178l-21 15h-6v-6l-8 -9l-12 15l-31 8l-4 6l-16 -14l-23 2l-2 6h-12l-15 14zM254 51l18 10l-8 11zM268 123h13l10 27h-8l-11 14l-4 -4l4 -10l-4 -11v-16zM268 1401h4l-4 4v-4zM285 442l8 -18h10v25h-10 zM285 569l28 -8l-16 23zM289 315h4l16 33l-12 29l-4 -6v-45l-4 -4v-7zM309 651l29 17h-29v-17zM315 553l21 4l6 -14h8v10l-12 16l6 15v41h-14v-35l-13 -21zM338 662l12 6l-6 4zM743 780l9 11l-9 -5v-6zM1006 96h6l-6 6v-6zM1012 51l6 4h-6v-4zM1038 51l11 4l-7 6zM1042 625 l7 -15v-6l4 10l10 7l12 20v14l-10 9l-16 -17v-12zM1049 41l4 10l-4 -4v-6zM1059 1014h10v4h-6zM1188 51l4 4h-4v-4z" />
<glyph unicode="i" horiz-adv-x="708" d="M137 1397l10 16l11 -12l-13 -12zM139 1354v14h15l20 10l-14 31v16l-6 11l16 6l4 -6l12 10h72l4 -6h23l10 6l135 6q13 -3 19 -22h12l20 20h41l21 -20h14v-48l8 -28l-12 -6h-16l-15 -15l-59 -6l-39 25l-10 -39v-142l-6 -14v-31l-9 -12l-6 -27l15 -2l-7 -6h-8l-24 -24l12 -8 l20 12l13 -27l-6 -6l6 -4v-31l-6 -10l10 -10v-463l4 -12v-109l-8 -20l-6 -5l14 -12v-164l-8 -10v-16l14 -15l8 -16h25l4 -6h72l34 -12l13 -29q-3 -15 -21 -23v-32l-16 -17l-4 4l-11 -8h-51l-24 10l-13 -8q-19 5 -22 17l-14 -25l-52 6h-71l-25 10l-12 -10l-47 -6l-8 10h-7 l-14 17l-12 -7l-8 21l2 57l20 21h33l41 10h31l18 21l8 36v27l25 10v15h-25v63h17l-7 21l4 8l-4 41l-6 16v16l-10 41v113l12 51l-12 31v74l-4 4l4 53v207l-6 6l6 18l14 15l-12 24l23 23l-15 4l-4 18q6 2 10.5 12.5t10.5 12.5l-7 10l7 27l4 4l-4 51l-17 -8v-37l6 -27h-16 l-4 52l6 8l-6 8v72l4 4q-1 2 -1.5 7.5t-2.5 9t-6 3.5v33l-10 8h-11l-10 -8l-4 8l-12 -2l-6 6l-15 -12h-28l-46 8zM352 1110l8 -10l-4 -15v-20l17 8l4 41v33l4 14l-8 27l-17 -17zM381 737h18v6l-18 9v-15zM461 1403h4v6z" />
<glyph unicode="j" horiz-adv-x="1058" d="M96 242v32l15 15l-9 16v49l15 8v5h-6l-2 16l14 16v15l-6 6l8 12l-16 17l2 22l6 -16h6l8 26l-4 6l8 19l23 8l6 -18h43l-17 -52l5 -28l16 -8l4 -140l33 -30l8 -17l59 -45v-10l21 -10l14 -21h27l16 8l15 -28h10v14l28 14l29 -8l96 4l62 23l10 31h6l21 14l51 55l8 -16l8 16 l27 27l6 20l-6 13l6 14v47l-12 16l12 21l4 -12l10 12v29l-6 12v26l-4 25l-8 8l12 12v41l-6 11l6 26l-4 17l10 24l-18 19l8 8l-4 47l8 16l-8 19l4 20l-4 13l4 14l-4 6l4 4l4 72l6 6v78h7v26l-13 21l6 14v27l-6 6v35l6 6l-10 10v21h17v71l-7 4v7l-10 12v61l-20 33l-47 -16 l-37 8l-37 -8l-60 24l-10 33l8 39h11l6 18l61 9l19 -15l14 15h41l20 -13l23 -4l25 10h51l10 -6h37l8 6l18 -6l39 2l11 -10h12l22 10l9 -10l10 8l10 -14h4v-35l8 -33h-22l-10 -10v-14l-105 4l-10 -10l-4 -68l-12 -8h-15v-21l21 -12v-20l-11 6v-27l11 10v-20l8 -6l-14 -72 l-5 -4l-4 4v-24l-6 -13h10v-6l-16 -14v-10l12 -11l9 6v-26h-11l6 -37l5 20l6 -36l-6 -35l-11 -13l6 -12v-12h-16l-4 -62l4 -6l-4 -10l4 -25l-4 -6l4 -71l12 -13l9 -20l-5 -4h-10v-17l12 -24l-8 -37l8 -4l-8 -29l6 -24v-47l-4 -5v-71h-12v-6l16 -15v-51l-20 -6l6 -39l-16 -29 l-17 -14l-28 -6l-6 -14l-17 -11v-22l-84 -72l-6 -16h-27l-16 -41l-33 4l6 12h-6l-10 -16l-16 6l-15 -6l-4 4h-12l-4 6h-10l-7 -10l-18 -13l-43 9v8h10v80h-10l-8 -9l14 -14v-10h-6l-10 10v-65h-62v8h-20l-12 -8h-9l-14 12l-12 -12h-27l-45 28l-6 23l-10 -6l-21 26h-6l-6 27 l-14 -6v10l-41 43v8h-17l-33 39zM592 82h6l6 -4v10l-12 4v-10zM801 905l10 -10v-53h10l6 18l-6 25l13 12l-9 12v64h-8l-6 -31l-6 -10l6 -6zM803 791l12 -25l6 6v29l10 12l-14 23l-14 -17l8 -22zM805 539l12 24l-6 6l-6 -6v-24zM809 983l12 4l-6 -8l16 6v35l-6 4v98l-4 -4 v-10l-10 -12v-56l4 -12zM821 549l4 -6l6 6l-10 4v-4zM825 532h6l5 7zM829 1149l7 -6l-5 -4v-6h17v47zM852 1118h4v15l-4 -5v-10zM856 651l6 -4v4h-6z" />
<glyph unicode="k" horiz-adv-x="1255" d="M96 68l6 4l-6 10v14l15 27l20 20h23v-20l6 -17l10 37l6 -6l14 6v-8l46 4l8 27l12 14l-4 6l4 56l-4 6v26l4 5l-4 10v82l6 10l-6 102l4 158l6 25v77l12 25l-12 23v274l6 14l4 -4v10l-10 15v166l6 10l-6 10v10l-8 9l8 8l-20 14l-27 6l-6 -6l-14 6v10h-11l-26 -10l-27 25v12 l19 4l18 -6l16 10v21h-6l-4 18v15h-10v-15l6 -12l-14 -29l-21 21l19 22h-9l-8 19l45 10l8 -29l5 6v17h81v-23l-4 -2l11 -24l10 26v19l31 8q22 -2 32 -16l29 22l57 -14h17l8 -11l16 11h17v-8l24 -13v-63l-8 -11h-6l-14 -16h-23l-20 10v6h-15l-18 -18l-29 -10v-12l-16 -68 l6 -23l-4 -34l-8 -13l8 -18v-47l-6 -15l10 -45l-4 -16v-47l-12 -12v-56l-7 -6l11 -41l-11 -14v-17l27 -26v-14l6 -7l6 -20l35 27l23 6l8 24l20 27l33 31h14l13 20l8 4l8 29l25 24l14 9l31 47l16 12v8l21 17l24 4l6 12l-6 4l12 31h7l39 49l20 -8l4 28l12 15v8l56 63l6 -4 l10 9v32l12 11l25 -7v11l-27 6l-10 10h-37l-26 16l-13 64l35 35h21v-13h20l49 15l19 -15v-6h10q9 15 24 19l7 -6h55l20 8l27 -8h33l10 -7l10 7h31l31 -33v-8l-11 -7l17 -24l-45 -41l-29 8l-6 8l-45 -18h-45l-12 -21l-29 -30l-39 -27l-4 -14l-27 -11l-12 -34l-35 -37l-4 -13 l-25 -4l-6 11l-6 -7v-14l-8 10v-16l4 -4l-12 -31l-58 -71h-14l-8 -7l-12 11l-4 -17l18 -8l-18 -18l-21 -41l10 -25v-16l11 -11v-108l10 22l20 -10v-33l6 -20l9 20l20 -16l6 -31l15 -30v-31l-21 -4q13 -5 19 -17l14 21l20 -37l-14 -12l29 -8v-15l6 -6v-35l24 -24l7 -49l6 12 l10 -23l12 -12l8 -43l21 -33v-20l16 -21v-6l27 -24v-17l10 -10l10 -35l23 -35l6 -32l16 -21l17 6l61 -6l37 -12l8 -8v-62l-12 -27h-74l-12 -6q-1 4 -4 6t-8.5 4t-7.5 3l-9 -7l-6 7l-6 -7h-14l-19 -10l-75 10l-25 7l-29 -9l-73 9l-27 10v65l24 33l89 4l-9 8l15 9l12 18 l-12 27v10l-23 20v11l-20 47l-13 20l-28 82l-35 70l-12 8v16l-21 43l-8 29v16l-12 5v26l-9 10h-10l-12 31v21l6 10l-20 -4v20l-11 31v12h-18l-12 41l-7 8v17h-10v47h-16v-37l-14 10h-21l-10 -24l-31 4l4 -4l-10 -13v-41l-10 -8l-41 -47l-41 -53l-33 -31l-8 -35v-104l-12 -82 v-27l-7 -6l7 -4v-24l6 -13l-6 -14l6 -12v-72l-6 -25l12 -22v-25l8 -10h12l9 14l22 -12v-16l12 12l23 8h26l15 -20l-8 -13l8 -10v-20l-15 -17v-14l11 20v-28l-27 8h-31l-14 6l-6 -6h-21l-16 -14h-20l-41 8l-7 12l-4 -6v-14h-30l-11 20v-20l-47 4h-82v30l-12 -6h6l-6 -8v-12 h-20zM211 1337l4 13l-4 -7v-6zM236 1358l10 6v6h-10v-12zM238 1419l8 -8l6 14zM272 852l11 10l-7 6l-4 -6v-10zM276 1343l7 -30h6v14l4 16h-17zM283 1354h6v16l-6 4v-20zM365 47l10 -10l10 4l-4 20zM557 831h6v21l-6 -10v-11zM586 928l6 -33h6v14l12 21h-12v10h-6zM598 883 h6v6zM649 805l6 -4v-37l11 12v29h-17zM711 692h6v4h-6v-4zM711 713l6 4v6zM727 1038l10 15l-10 -9v-6zM737 1038h6v6zM748 662h10v4h-10v-4zM752 1116l12 6h-6zM868 1206l17 -10l-8 16zM903 1231l21 4v4h-11zM913 1282l5 4h-5v-4z" />
<glyph unicode="l" horiz-adv-x="1126" d="M96 31v51h21v16h-6l-2 -6h-7v33l27 4l2 -14h12l7 -13l8 7v20h53l14 10l21 21v248l8 16l-8 39l6 24v25l-6 4l10 27l-4 6v221l4 47v316l6 4v118l-6 7v24l-41 29l-4 8l-6 -6l-21 -2l-6 -15l-35 17l-12 22l-2 17l-10 -17h-8v37l12 8v27h20l21 10h20v-4l37 -6l53 8l9 -8l20 6 h33l12 6l37 -12h78l12 -10l4 10l21 -20l14 6l16 -17v-51l-14 -14h-27v14l-12 12l-14 -12l8 -16l-18 -10h-56v-15l-20 -14v-49l-6 -4v-68l6 -20v-43l-6 -3v-18l-6 -8l10 -84l-15 -135l11 -62l-6 -14v-68l6 -36l-6 -35l6 -15l-6 -28v-68l-15 -4l21 -6l-13 -72v-108l-4 -19 l4 -22l-2 -84l-6 -17l6 -28l-6 -6v-25h15l6 -6l20 10v-10h31l-4 -17v-20l18 37l27 6l12 -6h221l6 -10l37 10l19 -27v-10h12v10h14v-26l-18 8l-8 -6l12 -17l25 10v27l6 12l-17 9l-6 -7h-14l8 13h64v-37l10 14v14l37 15l22 -10l19 8l14 18l12 70l-6 10l6 10v68l8 31l13 10 l6 -4l4 12l51 -8l15 -14l6 -43l-6 -5l-5 -77l5 -11l-5 -14l5 -12v-99l-15 -20l-6 -21l-20 -20l-9 10l-47 -10h-41l-16 10h-37l-12 -12l-25 8h-49l-6 4l-6 -4h-21v21h-10l6 26l-6 8v-26l-16 -31l-21 10h-20l-11 6l-14 -10l-33 4l-6 -6l-18 6v27h-23v-31h-6l-8 21l-8 -21h-33 l-41 -8v18h-6l-4 -10l-39 13l-14 -9l-5 6h-30l-6 -10l-25 6l18 11l-20 8l-2 -8l-6 4l-6 -23l-48 10l-14 -8l-20 4v6l-17 -6h-55l-29 23l-10 -17l-2 27l-6 14l6 7v10h-12l-8 -58zM150 88l4 -6v6h-4zM336 176l2 -4v8zM336 305h2l-2 4v-4zM469 1360l6 4v12zM496 1380l14 4h-6z M604 35l4 -4h17l-7 4h-14zM680 35h10l-10 6v-6zM979 295l6 6h-6v-6zM985 279l6 6l-6 4v-10zM1018 176l4 -4v8zM1018 193h4v4h-4v-4z" />
<glyph unicode="m" horiz-adv-x="1470" d="M96 23v30l29 56l29 6h36l31 6l4 -10l6 4h15l6 20l20 6l-16 4v11l12 6l-16 14v12l4 5v22l8 23l-14 16l6 31h8l-12 26q9 3 18 21l13 -21v31l-21 -4v10l-10 21l10 10v20l-6 4l-4 19l10 8v14l6 7l-12 12l6 24v31l14 8v9h-14v4h-10v36l10 78l-8 25l8 43l-8 37l8 18v33l-10 20 v160l4 47l-4 56l4 77l6 7l-6 4v10l6 6v10h-6v72l-4 29l-21 12h-10l-16 16h-31l-10 6l-27 -6l-12 15l-16 -9l-9 48l9 45l22 10h125l16 -4l11 4l53 -4h45l27 -15l14 -32l31 -41l30 -62v-33l13 -8h8v-6l20 -20l13 -43l6 -4l2 -11l18 -16h6l9 -31l12 -10l-6 -16h14l61 -113 l23 -31v-33l27 -18l8 -27l12 7v-13l14 -4l9 10l6 -6l12 17l29 51h6l20 26v15l37 69l15 15l20 51l37 57l22 11v26l9 15v10l26 26l10 25h5l16 33v12l31 49h6l4 -12l16 6l-6 6l10 10v37l33 15l27 6h133l4 -17l6 7h31l10 10h23l20 -21l2 -43l-4 -18l8 -8l-12 -15h-14l-23 -10 h-51l-21 -6h-20v-14l-6 6l-4 -6v-31l-6 -10v-11l-7 -4l17 -24l-12 -70l8 -20v-152l-17 -14l11 -11v-61l-15 -47l8 -47l7 -10v-41l8 -35l-8 -12l8 -11l-8 -57l-11 -8h11l-9 -19h15v-61h-6v-25l6 -6v-94l-6 -2v-53l-7 -17l13 -30v-134l10 -57l20 -10l5 -6h77l6 -11h9v-14l6 10 l20 -28v-9q-6 -3 -7.5 -17t-6.5 -17l6 -6l-6 -13l-14 -2l-9 10q-16 -6 -22 -22h-33l-16 14v6l-10 13l-5 -19l-12 -12l-8 10l-6 -12h-23l-32 22l-17 -22l-8 8l-12 -8h-68l-16 6h-47l-9 6h-16l-23 23l13 22l-6 4l-9 -4l5 23l-5 18l15 17l65 6l13 -13l20 11l4 6h37l-6 55l6 62 v69l14 29l-14 6v182l8 29l-8 6v23l12 10l-6 14v45l-6 6l8 17l-12 22l14 60l-4 20l6 15l-12 32v95l-6 14l6 88v129l8 18l-14 19l-8 4l8 6v6h-14l-7 8l-4 -8h-16v-12l10 -4l-10 -6l-12 -25h-9v-16l-24 -47l-21 -25v-12l-39 -56l-8 -26l-12 -15l-2 -10l-23 -37l-14 -8l-10 -22 v-11l-23 -34l-22 -15l8 -8l-21 -6v-35l-16 -16l-16 -4l12 -11l-12 -20l-15 -10l-6 -17l-16 -12l-53 10l-39 39l-15 31l-10 10l-10 31v14l-37 39l-14 62v40l-13 11l-4 -27l-10 -10l-6 10v10l-8 17l6 14h-12l-7 16h-6l-20 25l-8 23l-7 4l-14 41h-6l-10 12v35h-17l-10 20 l-20 10l-11 21v12l-10 15h-22l8 -21l-6 -16v-35l6 -6l-17 -15v-57l11 -10v-99l-6 -20l6 -20v-156l-17 -35l11 -16l-7 -19l7 -18l6 -103l-6 -57l12 -20l-12 -150l-29 -10v-6l14 -6l-6 -5l12 -6l-18 -4l-4 -14l-19 18l-8 -26h8l11 8l12 -8l6 -25h14l7 -24l-21 -13v-20h6v-6 l-6 -4l16 -5l-8 -8l8 -8l5 -61l12 4l4 -4l10 4h37l16 -19l-6 -6l11 -16h10v18q1 0 4.5 2t4.5 2.5t3.5 2t3.5 3t2.5 4t1.5 5.5l4 -7h33l6 -41h-18l-4 -10h10v-4l12 -6v-6h-10l-8 -21l-15 -6l-6 -8l-4 8l-35 -2l15 23v32h-17l-10 -20v-20l-10 -21v76l-12 31l-11 -19l9 -16v-72 h-17l-14 8l-33 -2v35l-6 10q0 -6 -2 -9.5t-6.5 -8t-5.5 -6.5l12 -6v-19l-25 10l-8 35h-10l-4 -20h-6v-19l6 -2h-53v8l-11 13l-4 -19l-10 -8l-10 6l-11 -12h-53l-22 8zM129 66l8 -23h6v10zM221 33l19 12l-9 12h-10v-24zM272 422h11v20h-11v-20zM272 631h17v26l-17 -8v-18z M283 698h14v13h-14v-13zM289 217h14l6 -8l15 6v18l-35 3v-19zM309 111l29 4l-12 8l-11 24l15 21l-6 4h-15v-61zM309 332h6v6l-6 4v-10zM338 84l6 -6h12v-25l4 -30l17 8v53h8l6 6l-18 12l-8 -8l-15 6zM475 53l4 4h-4v-4zM731 782l6 11h-6v-11zM778 745l6 -4l7 4l-13 7v-7z M1042 1290l7 -6l4 10zM1042 1305h17l-6 6v14zM1042 1331l11 4h-11v-4zM1063 1346h16v6h-16v-6zM1163 670l8 20h-8v-20zM1165 735l23 6h-17zM1165 838l6 -2v-19h13v19l-13 8zM1255 31l13 14l-8 8l-5 -4v-18z" />
<glyph unicode="n" horiz-adv-x="1353" d="M96 1397l6 16l15 17h33l20 10l20 -6l9 6l16 -8l39 8l14 -10h21l4 4h63l9 6l6 -6l28 14l23 -25h16l21 -41h6l18 -36h9l12 -52l26 -24l35 -70l6 -41h13l8 -20l12 -15l8 -20l-4 -6l10 -21l-6 -10h13l14 -16l27 -52v-16h10l10 -41l25 -24l12 -17l16 -51l19 -33l16 -16l17 -68 l24 -14l16 -41l11 -8l-8 -11l8 -28l12 8l12 -33l17 -16l10 -21v-24l10 -10v-7h6l9 -10l-5 -14h11l10 -12v-15l16 -33l8 -8v-12h9l10 -14v-11l29 -30v-64l-5 -8l5 -6l12 -6q5 13 24 20h21l10 17h-4l4 26l-4 -6h-16v6l16 14l-12 21l12 12l-6 8v60l6 24l-6 11v57l-4 4v31l4 6 l-10 22l6 19v41l-10 -4l4 45l10 43l-4 4v37l-6 14v105l-4 82l4 47l6 6l-6 6l-6 49l6 21l-4 16l6 14l-6 23v86l-17 57l-14 6h-33l-14 -4l-23 23l-14 -8v6l-10 4v-17h-9l-12 33v14l6 7l-8 24l23 23l6 -17v-26l20 22v15l8 10h54l18 -8l25 12l92 10l16 -14l29 10h27l10 -10l4 10 l12 -10l8 6h27l16 -16v-27l-8 -12l23 -13l-27 -8l6 -8h6l7 -10l-27 -19l-72 -6l-6 4h-27l-8 -10v-20l-14 -56l8 -39l-12 -10v-51l12 -10l-6 -21l6 -14v-115l-6 -6v-119l-14 -8v-6l14 -6v-15l6 -12l6 -45v-98l-6 -4l6 -6v-15l-6 -6l6 -6l-12 -6l-6 -21l20 -32l-8 -43l8 -27 l-8 -4l-6 -47l14 -8v-25l-8 -8v-64l8 -47l-6 -24l12 -25l-6 -27l6 -12h-8l11 -33l-11 -59l8 -10v-37l-6 -4l6 -17l-10 -34l-71 -13l-27 6l16 7l-6 6h-14l-21 20v14l-12 11v10l-14 10l6 4l-12 13l-19 59l-8 -23l-14 35l-27 47v15l-25 26l-47 88v21l-10 20l-14 15l-6 28 l-23 15l-8 30l-23 50l-12 12v10l-18 27l-2 24l-13 -4l8 25q-1 0 -6.5 2.5t-8 4.5t-3.5 5h-8l-12 21v10l-17 16l-14 45l-14 15l-7 26l-16 33l-14 14l-21 33l4 4l-4 21l-16 16l-17 35l-10 10l-31 78l-6 4v16l-14 17h-8l-23 41v10l-33 43l-14 35v10l-10 21l-27 14l-10 16h-6 l-14 -67v-35l-9 -53v-52h9v-24l-7 -17l7 -16v-61l-9 -9l15 -12v-139l-15 -14l15 -7v-51l-6 -16v-31l-7 -6l13 -10q-6 -20 -15 -25l9 -12v-15l6 -6v-10l-13 -4l9 -6l-9 -25l17 -8l-10 -8l6 -37l-15 -29v-32l2 6h7v-17l-9 -8l21 -16q-5 -16 -19 -17l13 -36q-3 -2 -5.5 -5 t-4.5 -9t-3 -7v-20l19 -5l6 -71l-8 -72l6 -8l4 -21l37 17h41l20 -17l13 7l20 -13v-41l-6 -47h-27l-8 6h-22l-9 -14h-32l-27 6l-20 -6l-7 6l-8 -6h-35l-8 6l-14 -6l-10 18l-9 -26l-6 8l-12 6l-6 12l-19 -18h-77l-11 6h-14l-12 23v39l6 8l6 24l21 13l24 -11l16 7l41 4l11 10 h10l8 -8l12 24v35l4 12v68l-4 25l17 16l-17 6v19h4l7 16l-11 10l11 10l-11 11l15 6l-11 8l7 6l-15 47v29l4 43l-6 12l6 29l-4 47l-6 27v82l10 20v20l-10 17l6 51l-6 21v237l-8 23l8 34l-8 15l8 6v27l6 22q-7 23 -14 27l16 16l-8 43l-18 31h-74l-33 10l-6 6h-8q-12 5 -21 25 l7 24zM324 627l6 -11v11h-6zM365 1243h6v10h-6v-10zM1120 829l4 9l-4 -4v-5z" />
<glyph unicode="o" horiz-adv-x="1107" d="M96 961l15 24l2 21l12 22h-6l-8 -10h-7v6l7 4v16h-7l7 9v20l20 12h-20v41l12 27l-12 -6l2 24l6 13l-6 12l6 14v15l26 35l11 -25l10 10v31l14 16h13l28 49l23 9l14 14h14l7 20l12 7l8 26h20l33 15v-7h35l12 7v-13h25l6 13l4 -7h37v-14h6l10 12l11 -32v-33l14 16v35l20 8 l7 8h8l-2 -67l4 -29l-4 -12h-6v6l-21 4v23h-16l-17 -7h-14v-26h-27l-10 -4l-4 10l-10 -6v10l-6 -10l-4 6l-17 -10h-26l-19 6l-16 -27l-53 -37l-15 -20v-16l-10 -15l-27 -14l-4 -12h-6v-62h-10v-6l6 -4v-33l4 -8l6 -45l-10 -23l10 -6l-6 -8l8 -16l-12 -31l4 -6l-6 -29l12 -12 l-10 -10l4 -13l-10 -8v-61h6v-43l4 -4v-54l6 -24l-6 -21l8 -10l-12 -49v-14h10v-269l-10 -10l10 -31h4l17 -22v-8l22 -11l10 -24l29 -19v-18l29 -10l18 -19l6 -20h35l10 6l7 -6h51l53 8l12 -12l27 4l14 8l17 -14l41 8l22 -6l37 4l6 8l8 -8l7 6h26l8 10l35 4l23 39l51 49 l16 6l6 11h4v10l25 20l-4 11v41l4 12l-4 14l10 10v11h-6v41l6 12l-6 20l19 39l-7 13v20l-16 -10v20l10 4v7h-10v14l4 6v82l8 12l-10 23l18 12v6l-20 6l4 19v121l-4 28l4 17v166l-4 4l10 20l10 10l-20 9v59l-14 39l-80 76l-21 28l-41 19l-8 10l-6 -10l-12 10l-4 -12l-56 12 l-10 -8l-41 26l-8 -18h-8l-21 12v31l15 8l20 -6l21 10l-7 37l23 4l12 8l15 -10h14l27 8l4 -6h16l8 6h47l13 -6l26 -4l25 -24l10 -17l10 -4l6 -16h9v-13l36 -24l82 -80l23 -123l-12 -29v-41l6 -6l-6 -10v-67l6 -11v-37l-6 -28l6 -19l-6 -4l6 -4l-6 -6v-21l6 -6l-6 -8v-35 l-15 -6v-18h6l5 12v-68l-11 35l-10 -24l23 -64l-7 -14h9v-17l-9 -6l13 -10l-13 -12h9l-4 -33l4 -10l-4 -41l10 -10l-6 -7v-14l-7 -10l7 -6v-27l-4 -4l10 -22v-15l-6 -6v-25l-9 5v-15l-6 -6h15l8 -22l-17 -19h9v-65l-15 -33l-10 -6l-6 -13l-16 -8l-3 -8l-26 -16l-29 -43 l-33 -25l-12 -4l-4 -10l-10 -6l-33 -46l-31 -16h-55l-18 19l-15 -19l-22 10l-21 -12l-22 8l-21 -8l-43 18l-10 -16h-8l-6 6l-25 8l-37 -18l-74 10l-12 -8l-43 8l-8 -6l-2 10h-19v4l13 7l-6 6h-21l-14 14l-21 10l-39 43l7 25l-13 8l8 6h-16l-4 -20l-27 26l-16 25l-39 27 l-12 26l-15 17v51l15 14l-6 12l-9 -6v281l7 10l-11 31l11 43l-13 12l6 21l13 12l-13 14v17h9v61h-7l9 47h-11v62l21 4l-21 6zM131 723l6 -8l10 28h-14zM145 598l11 6v-18l16 -8v47l-16 -7zM352 25l10 10l-4 4l-6 -4v-10zM567 1397l6 14l13 6l14 -8l-10 -31zM616 1343l5 -6h6 v6h-11zM664 1364h8v6h-8v-6zM934 692h6v15z" />
<glyph unicode="p" horiz-adv-x="1183" d="M96 1409l19 25l108 14h119l10 -8l21 8h78q16 -4 22 -18l12 12h47v-8h33l6 14h29l31 -6l28 10l19 -10l27 -2l20 8h39l8 -14l14 14h115q10 -5 17 -27h14l31 -28v-27l30 -8l21 -29l37 -26l14 -25v-14l39 -11v-26l4 -6v-134l10 -20v-27l-6 -28l8 -39l-8 -10h-8l8 -17v-37 l-8 -8l8 -6v-68l-8 -30v-17l4 11h4v-15l-35 -37v-6l-20 -14v-10l-13 -7l-2 -8l-18 -12l-14 -20h-15l-6 6l-10 -6v-11l-14 -20l-7 -21l-20 -20l-27 -21h-34v15h-19l-2 -11l-18 -4l-15 6l-20 -8l-21 6l-10 -10l-74 -6l-6 6l-22 6l-6 -12l-9 8l-12 -8l-20 6h-58l-6 -6h-88 l-10 6l-10 -6v10l-15 -10h-12l-10 -8h-25l-6 -21l-4 4v-49l-21 -8v-6h15v-41l8 -49l-8 -12l6 -21l-6 -10v-33l-8 -14h14v-27l-12 -4l6 -20h10v-54l-4 -4l4 -4v-12l6 -4l12 -35l39 10l23 -20l8 14h35l22 -20l-4 -7l4 -20l4 20l7 -10v-20l6 -11l-13 -16l-8 -4v-16h-12l-14 -15 l-58 10l-8 9l-29 -15l-10 11h-14v-11h-82l-12 11l-25 -17l-6 6h-21l-16 6l-14 -6h-58l-20 17v10h-12v31l12 10l-14 10v4h6l8 19l8 -6v-7q14 13 19 27h65l33 8l8 -8l12 33l-6 22l-6 6l12 41l-6 37l6 6v35l-6 21l6 12v61l-10 19l14 6l-4 12v29l-14 29l16 32l-14 50l6 10v10h-6 l6 10v52l6 12l-6 35v47l-6 30l6 31l-10 72l6 33l-6 14v78l4 35v90l6 10v65l-10 13v47l10 8v27h-20l-6 10l-31 6h-27l-55 14l-6 7l-8 -11l-13 15v47l6 4zM326 1067h6l-6 2v-2zM342 1069l4 6h-4v-6zM360 1063l15 -14l-8 -25l6 -10v-172l6 -21l-6 -8v-70l6 -34l10 -27l10 -8h11 l8 -10l18 10l4 -6h58v-13l14 19h158l8 -6l12 6h15l12 -15l8 9l45 6l6 -23l6 11v12h82l27 22l6 17l8 -11l35 54h23v14l14 27h12l21 51v20h-11l7 19l-9 133l9 27l-7 8v26l5 -6l8 23l-13 24l7 17h-11v47l-22 35l-29 34h-14l-19 39h-20l-35 47l-12 -12l-45 23l-8 -11l-9 9 l-20 -19l-51 8l-13 -4l-67 4l-8 -4l-103 -6l-35 10l-8 -4h-33l-4 -6l-61 -16v-10h10l-22 -9v-20l8 -14l-8 -17l6 -10v-43l-11 -10v-21l11 -10v-53h-6v-21zM1016 1180h4l-4 6v-6zM1098 842l6 -4v4h-6z" />
<glyph unicode="q" horiz-adv-x="1107" d="M96 975l10 39l-6 18l9 15l-9 6v123l6 6v20l13 21h8v10l47 47l-6 6l27 21h10l14 26l6 2l8 19h7l41 35v6l26 24h27l6 -10h8l6 -10l11 10h10l10 10l72 6l6 -6h78l12 -12l14 12l64 13l18 -7h45l13 -10l43 15l12 -15h33l20 -10l4 -10l33 -39l14 -8v-9l33 -20l86 -90v-10 l10 -11v-12l6 -8l-6 -6l9 -33l-9 -8l6 -13v-102l-6 -4v-33l-4 -24l10 4v-187l-6 -20l9 -49l-9 -19l9 -26l-9 -11l9 -94l-9 -28v-41l9 -37l-9 -15l6 -12l-10 -4v-45h10v-12l-10 -9v-6h10l-6 -12v-106l-10 -13l-6 -22l-59 -58l-21 -8l-18 -14l10 -8l-29 -15l-14 -28l-39 -27 l-31 -31l-41 4l-10 -4h-74v11l-22 -13l-23 -35v-92l-6 -47l-10 -10l-45 -10l-27 14v27l-6 20l12 10l-12 7v14l-8 6v55l14 19l-12 8l-41 6l6 6l-51 4l-6 -10l-8 8l-23 6l-10 -10l-47 6v15l-35 6v22l-17 -6l-20 31l-20 14h-11l-10 21h-6l-8 16h-6l-33 31l-4 12l-45 43l-7 23 v67l-6 6v21l6 14v41l-6 17v108l6 10v17l-6 6v55h6l-8 55l15 13v30l-13 33l6 70v74l-6 12l6 24l-8 39l15 15l-7 8h-10zM106 1167l7 4h-7v-4zM199 907l6 -6h12l-8 -20l6 -25l-6 -20v-37l-6 -35l6 -10v-21l6 -6v-33l-6 -24v-101l-4 -2l10 -6v-6h-6v-6l8 -4l-8 -17v-55l6 -6v-14 l-14 -13l8 -24v-119l10 -27l17 -10l12 -33l24 -12l15 -16l41 -31l32 -49l15 8h31l10 -6l22 6h35l12 8v-8l15 14l6 21v180l20 23l21 -9v-22h20v26h31v-18l-16 -8v-17l16 -4l4 -47l-27 -10h13l14 -16l6 -17l-6 -4v-20l6 -11l-6 -6l10 -28l6 -7l-8 -14l8 -6v-6l11 6h30l15 -10 l53 14h14l7 4h20v21h10l6 12l41 35h11l18 37h6l21 26l6 25l10 18l-10 33l12 6l-12 12v35h6v11l8 4l-10 24l8 12l-12 17v10h6v27h-6l12 24l-6 17l-6 92l-6 6l6 14v41l6 6l-10 11l10 24l-14 64l8 20l6 62l-6 26l-6 82l6 12v82l6 45l-12 13v20l-15 21h-6l-4 6l4 4l-24 31l-11 6 l11 14h-17l-31 17l-20 20l-47 27h-35l-24 6l-23 -6h-78l-35 6l-12 -6h-14q-3 6 -21 8l-12 -8h-92v6h-6l-9 -10l-6 10l-6 -13h-4l-35 -47l-53 -34l-41 -70v-96l-6 -37l6 -15l-6 -59h-4v-29zM385 37h6l-6 6v-6zM500 49l8 -6l-2 10zM555 63h12l-6 7zM598 43h10l-6 6zM934 334 l6 8l-6 -4v-4z" />
<glyph unicode="r" horiz-adv-x="1196" d="M96 1352v41l15 16l59 10h55v-4h-4v-6l10 -6l7 16h71l23 -8l86 8l4 -12l-4 -25l-6 -6l20 -12l-16 -8l6 -35l10 -6l-4 -10h-27l-4 -5h-16l-21 -30v-33h-20l-4 -27l29 -2v-47l-5 -12l5 -4v-10h-5l7 -27l-11 -4v-27l9 6q0 -6 -4.5 -9.5t-8.5 -4.5t-12 -2v-4h25l6 -41v-166 l8 -80l-8 -20h6l12 -31l12 6l7 -6l4 6h16l6 -14l15 8h67l8 -10l43 16h129l6 -6h9l6 6h37l4 -6h43l10 6l49 4l27 47h10l39 41h6l23 33v76l6 51l-6 27h12v6l-8 8l8 6l-6 6l10 6l-16 5l6 10h-6v98l-9 31l-16 24h-4l-12 23l-21 10l-26 31l-21 16l-4 10l-29 23l25 8v10h-25 l-8 -16v-20l-98 10l-6 -10h-23l-12 6l-10 -6v10h-11v-10l-30 6l-17 -6h-90l-10 26l20 4l-6 17l4 24l-6 31l4 8l43 8l45 -4l33 4l4 -4h33l8 8l53 -12l27 8h92l6 -4l-6 -4h33l29 -22l37 -41l16 -11l14 -16l17 -10l16 -35l14 -6l39 -39l4 -96v-318l-26 -12v-12l-15 -6l-10 -25 l-29 -21l-36 -34h-7l-20 -43l-29 -11h-14l-12 -6l-6 6v-20h-29l-21 -6l-77 -2l8 -27l6 -6l-12 -6l22 -21l17 -30v-11l20 -36v-9l16 -18l21 -41l4 -21l18 -18l-8 -6h12l15 -53h14l6 -21l9 -8l6 -18l24 -31l8 -45l21 -10v-11l20 -26v-23l17 -24l14 6h31v-17q19 5 24 17h27 l33 -11v-6h4l10 -20l-14 -51h-6l-7 -21h-26l-2 4l-17 -12l-34 10l-29 -12q-16 6 -21 14l-24 -8h-166l-10 -6l-43 20l-8 15v61l24 19l57 4l5 -4l20 4l18 16l-12 35l-10 10v17l-16 30l-9 6v9l-12 20h-10v33l-10 -6v12l-15 14l-10 41l-12 6l-4 37l-11 15l-14 6l8 4l-16 31 l-19 6v6l-26 49v12l-35 51l8 11l-22 12l-17 31l-24 12l-8 -10h-41l-13 12l-2 -6h-33l-10 -6v12l-14 -10l-25 14l-14 -16l-31 16l-12 -12l14 -12l-16 -17v-20l-4 -31h-12v-6l6 -4v-37l8 -6l-14 -25l12 -12v-70l4 -16l-10 -10l10 -43v-62l-4 -14l6 -62l-6 -16l4 -6l-4 -4v-33 l24 -14l21 -4l10 -13l19 11l47 -17l-9 -14l7 -6l14 6l6 -29l-6 -12l-6 12h-8v-47l-68 -12l-20 6h-64l-14 -6h-156l-10 12h-33l-8 8l-6 39l-8 14l16 31h29l16 10l4 -6l4 6h23l6 -6l35 13h26l-6 45v288l-6 13v14l6 6v92l10 13l-4 4v108l-6 4l-6 37l6 10v31l-10 -4l10 37l6 4 l-6 10l-6 58l6 20l-6 4v23l6 4v10l10 10l-16 17v10h16v10l-18 19l14 14l-16 2v43l8 39l-8 18v113l-10 12v35l-21 21l-26 -5h-72v15h-14zM272 555h4l-4 10v-10zM377 1376l8 -8l-4 21zM432 1393q4 0 7 3t4.5 5t3 7.5t2.5 6.5h49q7 -22 16 -24l-12 -15v-45l-13 -10h-10l-4 -21 l-33 15l7 20l-11 21l13 20zM459 45l4 -14l16 6zM723 524l8 -10l6 4h15l10 21h-8l-11 -11l7 17l-27 -10v-11zM850 696l6 -32l8 18zM981 1051l10 12h-10v-12zM981 1077h10v6h-4z" />
<glyph unicode="s" horiz-adv-x="1058" d="M88 872v93l12 16l-12 25v227l41 63l45 23l12 24l27 31l31 21l24 24h6l11 13l37 4h129l10 -4l67 8l15 -15h32l-12 7l37 4h129l19 -19l8 15l6 -17l29 -10l6 -10l20 -11l35 -41l-6 -22h12l6 -8h19l8 -19l24 -14l27 -27l8 -43l-12 -57l8 -43l-10 -20v24l-16 -24l-7 -21h-45 l-16 10l-4 11l-10 4v16l-7 10v58l-4 26l-24 21l-41 49h-6l-17 12v10l-24 17h-17l-20 20h-27l-12 -14l-8 8l-6 -6h-43l-25 16h-20l-15 -16h-51l-10 12l-6 -6h-52l-8 8l-18 -18h-29l-6 4l-47 -41l-16 -6l-15 -29l-24 -18l-27 -39h-10v-47l4 -19l-4 -8l4 -8v-53l-4 -6v-35 l-6 -11h6v-30l-6 -10h6l4 -27l-4 -10v-31h16l27 -39l18 -14l29 -35h22l13 6l2 -6l6 6h14l8 -8l15 8v-8l16 8l4 -6l51 8l37 -14l11 6l10 -6l14 6h39l8 -6l12 12h187l-6 -12l6 -2l2 14h39l24 -27h11l20 -20l21 -10l36 -41h11v-11l10 -6v-10l10 -10h8l9 -17l4 -61l-4 -6v-14 l4 -7v-28l-27 -11l10 -22l-4 -4l15 -31l6 21v-41l-21 -6l-4 -17l25 -14v-21l-11 -12l7 -2v-12l8 -6l-4 -29l-11 -6l15 -21v-61l-4 -23l-4 6l-7 -14v-20l-61 -62l-31 -22l-6 -17l-47 -45h-14l-15 -26l-26 -11h-74l-25 -4l-34 4l-58 -4l-30 10v5l-13 -11l-78 -4v4h-10l-10 6 l-6 -14l-25 8h-57l-6 6l-2 -10l-6 4h-13l-8 11h-18l-27 34l-31 15l-28 43h-11l-10 18l-14 8l-27 33h-6l-20 25l-9 37v200l21 21l14 6h47l15 -16l20 -58v-123l-4 -6l4 -14l21 -10l6 -13l28 -22l15 -29l18 -10l37 -29l41 -6h35l18 -10l33 10l25 -12l28 14l21 -10l41 10l37 -10 l26 8h76l33 29l6 12l35 27l8 20l63 66v41l11 12l10 -12l8 24l-18 8l-19 -10l-8 25l6 78l6 10l-12 6v35l6 6l-6 37l12 4l-6 4l8 10l-14 8v29l14 -18l13 -9v33l-31 6l-8 33l-13 12l4 4v13h-28l-27 10l-26 25l-7 -13l-8 8h-57l-10 5l-11 -11h-10l-6 6h-31l-14 -6h-47l-21 6 l-84 5l-4 -5l4 -6h-55l-41 15l-6 -15l-20 6h-33l-6 9l-9 -9h-10l4 5h-30l-25 16l-68 76l-26 16l-17 25l-2 22zM377 774l6 -4v4h-6zM864 522h4v4h-4v-4zM866 455l8 -17l11 21v47l6 29l-6 8l-6 -17v-71h-13zM879 412l6 -27l4 6v21h-10zM889 479l6 -4l4 -26l8 34l-8 17z M899 516l6 6h-6v-6zM920 571h10l6 -2l6 9h8v14l-8 6l-22 -8v-19z" />
<glyph unicode="t" horiz-adv-x="1087" d="M49 1335l6 62l21 10l6 -14l24 24l78 6v-6l11 4h26l4 -4h31l25 13l10 -13h47l14 13l23 -9v-4h10l21 10h47l10 -10h10l10 10l6 -6l7 6h8l6 -6h20l15 6v-14h26v8l11 13h20q6 -16 16 -17l-6 -4v-6h17l10 10h-10v17h28l-10 -19l8 -14l9 33h6l6 -19l8 19l8 -9l25 11v-19h18 l8 17h66l16 6l27 -10l18 10h41l15 -21l32 21h68l16 -47v-33l-6 -21l6 -4v-37l11 -43l-6 -90l6 -6l-6 -20l8 -11l-15 -36h-28l-27 -17l-10 12l-25 7l-6 28v72l6 20l-6 7v67l-6 6l6 9l-18 32l-15 -6v6l-8 -10h-53l-10 10l-11 -10h-41l-18 8l-12 -14h-27l6 6l-30 6l-13 -14 l-18 8h-21l-6 -6h-10l-4 6l-12 -6l-5 10h-10v-47l10 -18l-16 -9l-14 -28l10 -13l-6 -8h6l14 -12v-387l6 -31v-57l5 -4l-9 -37l9 -72v-98l6 -47l-11 -10v-17l13 -12l-13 -14l5 -5v-41l-11 -10v-14l13 -14l-13 -13l6 -10v-27l7 -8l10 -80v-30l4 -41l51 -4h88l27 -23v-31l4 -6 l-4 -43l-17 -8l-71 -4l-41 -8l-51 8l-13 -6h-24l-15 8l-57 -8l-6 6l-47 -6l-19 -6l-32 6l-6 6l-11 -6l-10 6l-4 -6h-21l-10 47l-12 22l16 33h4v-4h7l8 16h84l12 7q15 -6 25 -17l10 25l12 12v76l8 6l-14 4v203l6 10l-6 14v17l-6 10l6 6l-8 129l8 15h-6v30l-6 31l6 6v64l-6 14 v115l6 20l-6 25v67l8 25l-10 14l8 55l-8 7l8 8v31l-6 20l-2 80l-13 61l-10 25l-10 -4h-35l-45 14l-45 -14h-47l-17 -10l-18 10h-27l-8 -6v6l-16 -6v6h-6l-15 -12v8l-20 -29l-6 -76l-6 -37l-9 -4v-12h13l-11 -20l13 -5l-6 -12l6 -24l-6 -11l-21 -6l-8 -18l-27 14h-22l-13 21 v36l2 -16h7l12 10h20v11h-28l-11 26v21h7v-6l12 12v20h-27v8h8l-2 19l9 2v6h-7l-2 6l11 10l-11 31l-6 6l6 9v22zM96 1081l6 6h-6v-6zM530 1235h11v12z" />
<glyph unicode="u" horiz-adv-x="1259" d="M35 1350l6 53l6 -6l29 26h41l18 -4l29 4l6 7h20v-11h11l20 -10l6 10l27 4h70l6 -4l20 11l10 -11h21l22 -8l15 8l24 -6v-16l15 -19l-8 -6l-7 -20l-8 -11l6 -14l-14 -12l-25 10h-26l-8 -14h-39l-19 -27v-172l-14 -14l-6 -21h6l8 -14l-8 -27l-6 6v9l-6 6l-9 -15l5 -22l30 -4 l-6 -12h-4l4 -41h-6l8 -39l-10 -13h-12l-7 -6l35 -43l-8 -59l-8 -15l8 -16v-31l6 -22l-6 -14v-15l6 8v-14l-10 -20l10 -48l-10 -10v-31l4 -6l-8 -16l8 -49l-4 4v-10l10 -33l-6 -45l6 -10v-37l-6 -21v-55l12 -33l-6 -6l6 -2v-23h15l6 -16h10l25 -24v-11h10v-26l16 -11l11 7 l14 -11l-4 -6l10 -16l33 -8l8 -7h20l13 7l24 -7h58l10 -10l10 10h92l27 7l6 -7l80 11l53 67h12l5 15l41 41l18 10l8 84l6 12l-6 18v27l-8 14l12 121l8 13l-12 12l4 26l-10 27l6 35v61l-6 17l10 26l-12 13l12 55l-4 82l4 6l-10 102v203l6 29l-6 22v37l-14 15h-31l-16 16 l-23 4l-14 -14h-15l-6 10h-10l-18 35l8 6v41l33 20l8 -4v-10h6l8 10l6 -6h33l8 10h17l20 -20l21 20l6 -4v-10h10l4 10l20 4l7 -4l10 4l16 -4h41l10 -10h11l10 10h86l16 -37v-59l-37 -16l-30 10l6 8h-21l7 -10l-17 -10h-31l-24 -31v-98l-6 -7l6 -10l-8 -6l10 -47l-8 -19 l-6 -63l12 -4l-6 -37l8 -41l-21 -31l-2 -20l-12 -10l6 -4l10 -23l19 6l-14 -24v-39l10 -19l-17 -26v-27h7v-10h-7v-31l7 -20v-74l-7 -4l7 -11v-26l10 -17l-19 -20l7 -6l-11 -12l23 -11l-19 -30l9 -9v-24l6 -17l-6 -22l6 -12v-58l-6 -10l6 -16v-35l-6 -17v-30l-15 -17l-18 -8 l-10 -24l-25 -13l-8 -10h-6l-37 -59l-15 -2l-6 -13l-61 -55h-12l-9 -6h-20l-16 -6h-37l-11 6h-10l-10 6l-14 -10v10h-7l-10 -12l-4 6h-6l-14 14l-27 -22l-55 14l-17 -8l-6 8l-12 -12l-29 6l-12 10h-21l-4 -10l-4 6l-18 -12l-35 6h-20l-15 31l-12 -4l-4 4v10l-21 14h-10 l-16 12v7q-18 8 -21 20h-6l-14 14l-6 21l8 8l-23 23l-14 -13l-23 23v16q-19 3 -20 15h-6l-15 20l11 6l-8 29l16 33h-14v104l-7 31l7 72l6 6v26l-6 25v362l6 27l20 -20h10l-4 24l-12 10v17l-8 -21h-12l-5 47v41l11 11l-6 4l-5 32l11 9l-11 6v6h5v51l6 4v6h-11v92l5 7l-15 26 l-10 8l-74 23l-10 -12l-16 6l-11 20zM231 213l5 -20l6 4l-6 16h-5zM236 176h6v6zM236 471h12l8 6l-8 27l-6 -6zM236 963l8 8l-8 8v-16zM274 995l9 -12h6l-6 16zM276 1063l13 4h-13v-4zM1022 735l6 -16l8 16h-14zM1034 745h6v11l-6 6v-17z" />
<glyph unicode="v" horiz-adv-x="1292" d="M31 1364l20 41l10 -8v-17l21 21h27l8 -15l14 21h70l10 6l4 -12l39 12h61l33 6l33 -18h16l17 18v-18l12 8l14 -20l9 -50l-7 -24l-14 -12l-53 12l-8 -17h-11v-10l-16 -8l6 -12l-8 -15l8 -12v-14l21 -84l12 -19l-19 -16l21 -21l6 -18l-10 -8h10l10 -6l4 -68l13 -20h6l2 -11 l18 -14v-20l37 -117l-12 -25v-14l4 10h6l14 -20v-41l13 -39h4l6 -29h6l8 -57l15 -15l6 -22l6 -4l14 -53v-27l13 -8v-27l8 -10v-10l-8 -11q5 -2 11.5 -13.5t14.5 -12.5v-27l10 -6l-10 -20l8 -15v-14h13l8 -21v-12l6 -4v-16l14 -15v-16q16 -5 17 -10l16 16l8 -10l6 24l-6 13 l13 24l14 47v27l16 29l6 57l15 53l6 8l-6 7l6 6l4 26l4 4v11l14 30l21 107l12 8l13 41l-7 12l11 56l10 10v20l14 33v29l17 37l-5 16l15 6v35l16 31v20h4v15l11 20l10 78l6 12l14 70l11 24l-9 2l15 27l-6 6v41l-5 6v-37h-20l-16 17l-5 35l-16 16l-10 -10l8 -8 q-2 -6 -14.5 -10.5t-14.5 -12.5l-10 4l-12 19l8 24l-12 4l12 4l8 21h12l5 12l26 8h31l10 -8h21l14 8h53v-8h31l6 14h21l12 -26h8l21 26l12 -28l-10 -19h24v17h-6v10l-6 6l12 8l6 -2l9 8l12 -6h14l17 -16l14 8q0 -1 1.5 -7.5t3 -9t5.5 -3.5l-6 -58h-14l-7 -10h-14l-18 -8 l-29 8l-6 10l-8 -16h-27l-12 6l-8 -22l-11 -5v-24h-16v-21l-10 -39v-26l-15 -25h4v-20l-4 -4l-16 -52v-20l-10 -20h6v-7l-12 -6v-6l-7 -4l-2 4h-26v-14l8 -10l-12 -7l-8 -14h6l14 16h18v-26l-12 -10v-33l-6 -8l-6 -60h-8l-6 -20v-25l-21 -61l-8 -13v-24l-17 -8v-52l-16 -8 l8 -14l-8 -27l-4 -30l-12 -31l-15 -6v-6l11 -5l-17 -8l-8 -75l4 -5v-16l-10 -10v-21l-10 -41h-7l-18 -108l-12 -10l-8 -21v-47l-23 -35l-4 -18v-29l-16 -16v-37l-27 -25h-25l-30 15l-17 -15h-30l14 4v11h-6l-2 -11l-6 6l-19 -8l-14 8l6 5l-6 6v12l-15 8l11 4l-17 17l-20 69 l6 23l-23 12l-14 41l-4 51l-6 11l10 22l-20 21l-11 2v6l27 8v18l-23 15l-12 -13l-8 19l-8 31v20l-12 12v25h-7l-8 63l-26 56v16l-11 21v32l-16 9v12l-14 28v41l-21 43v31l-6 10v15l-14 18v41l-7 4l-10 31v27l-26 16v41l-15 14v33l-10 25h16v32l-24 -8l-8 17v16l-9 31l-18 30 v17l-14 28v19l-21 8v12q-11 2 -16 15h-14l-7 -6h-12l-8 16l-10 -4v4h-4v-21l-25 -6l-14 11h-25zM512 496h4l6 12l-10 -6v-6zM543 184l4 -4v4h-4zM543 295l4 -27v-10l16 4l-4 17h14l-6 16l-14 -12h-6v6h6v6h-10zM868 1386h6v7zM920 1393h6l6 20h-12v-20zM952 1380l4 -4l-4 17 v-13zM1020 1255l8 -8l6 8v13h-10l4 -13h-8zM1106 1386l6 -10h10l-10 10h-6z" />
<glyph unicode="w" horiz-adv-x="1992" d="M31 1356v61l26 25h72l6 -4l10 4h82l6 -6l17 6h147l35 -10l6 -15l13 4l-7 -14v-51l-18 -27l-70 -6l-22 6l-10 -37l8 -37v-20l4 -8v-23l20 -55v-47l11 -33v-20l10 -9v-12l-6 -6l12 -29l10 -10v-33q1 -2 2 -8.5t2.5 -10.5t5.5 -5v-78l15 -14l6 -17l-6 -6v-14l18 -9l2 -100h6 v-20l13 6l2 -23l10 -8l10 -39v-20l6 -15l-6 -6q15 -16 19 -26l-6 -9v-18l6 12l8 -41v-61l6 -12v-15l10 -6l-4 -4l8 -6l6 -27l17 -28v-33l10 -10l14 -52h23l8 15h6v20l15 17v36l12 35v12l14 21v20l13 7l-7 10v20l15 4l-6 5v16l22 4l10 12h-26l6 6l-6 2v7l16 6l21 -6l4 6l-4 8 v22l-11 17l7 55l12 23l16 102h12v14h15v37l10 6v17l16 8l13 35l-23 12l4 10h-4v6l15 15v20l16 58v-45l10 -13l10 17v37l-18 20l8 10v31l21 66h6l14 84h6l8 61l13 49l-13 19l-22 20l-80 6l-12 12l-10 -14l-9 29l-6 55l27 27h51l12 -4l41 6l47 -6l4 -13l17 17h24v-4h48l14 -7 l18 9l15 -15l8 13v-17l6 -6l6 6v17h27l4 -7l16 -6l15 13l18 -9l12 9h72l14 -37l-6 -27l8 -10v-17l-8 -14h-26l-15 6q-3 -13 -22 -18l-11 6l-30 6v10l-23 -6l-14 -57l10 -41v-21l-8 -6l8 -14l-6 -4l6 -6h10l11 -35l6 -6l10 -47v-41l4 -11l-4 -4l10 -6l4 -51l6 -6v-41l11 14 l4 -35l20 -34l6 -43l7 -4v-23l26 -51l2 -64l12 -41l9 -6l8 -47l10 -18v-21l14 -31v-24l7 -6l4 -62l10 -12v-25l10 5l-10 -21v-14h14l6 -27l11 -10l-4 -6l4 -4l10 -60l20 -8l-12 -12l12 -19l11 6l8 -16h22l11 86l12 12v21l14 47v25l12 12v24l15 17v35l6 6v30l29 134l12 8l4 8 l-4 6v14l8 21v27l10 26l6 45l27 92l4 50l17 30v15l10 32l10 9v20l6 21v26l4 6l11 35l12 23l2 82l10 10l-10 43h-8l-9 14h-12l-12 -12h-25l-6 12l-4 -12l-20 12l-11 27v20l4 4v27l17 14h24l17 6l45 7l6 -7h21l-7 7h19l4 -7h57l4 -6l11 13h71l27 -17l6 10h27l14 -16l10 -4 l10 -16l-6 -5v-55l-28 -14l-95 -2l-30 -27l-6 -35l-25 -6v-12h14v-21l-10 -10v-20l-14 -15v-32l-15 -11l9 -16l-7 -8h-8v-88l-26 -78l-13 -14v-27l-6 -8l-22 -123l-6 6l-7 -6v-25l-8 -69l-16 -8l14 -9l-10 -6l-8 -20l4 -6l-10 -11h-11v-53l-6 -8l6 -21l-10 -32l-10 -9h-23 l6 -18h21v-8h-10v-33l-11 -20l-18 -19l10 -20l-8 -7l-8 35h-19l13 -20l-13 -15l7 -6v11h12v-11l16 -10l-16 -10l-16 10v-10l-11 -10l11 -11v-20l10 -12v-35h-15v-47l-16 -90l-10 -15v-8l-6 -6l-21 -62l-31 -6l-16 13h-14l-8 -15l-56 8l-20 21l-27 18l-8 33l-6 47l-8 11l2 26 l-9 31l-14 31l14 4l-16 6l-16 55v33h10l-23 26l13 15l-21 20l10 9l-14 8v30l-12 19l-8 45l-6 2v22l-35 115v47h-13l11 13l-15 10l6 37l-16 32l-14 13l-13 75l-8 9l-6 39l-12 45l12 10l8 20h-28v7l-7 4l-14 57v51l-22 17l16 30h-10v11l-31 -5l-16 5l-4 -21l-7 16l-4 -26l4 -6 l-10 -21v-29l-20 -32h-6v-11l6 -10l-6 -37l-15 -4v-10l-6 -10l6 -6v-21l-6 -4l-4 -33l-16 -28l-7 -27h-14l-8 -6l2 -41l-8 -31v-61l-13 -13l-4 -53l-24 -45v-35l-15 -12l11 -18l-23 -52h-10v-59l-21 -61l-6 -5v-16l-14 -16l-12 -27l8 -27q-6 -20 -23 -28v-10l-14 10l-8 -31 l-12 16v25h14v10h-27l-6 -18l6 -33l13 -10v-6l14 -4l10 4l4 -11l-14 -30l-12 30l-2 -14l-15 -26h8l7 -7l-13 -14l15 6v-20l-9 -13v-47l-12 -8h-14l-15 -20h-26l-6 4l-21 -11l-10 7l-4 -7h-23l-8 11l-26 4l-13 12v21l-16 24l-10 49l-15 39l6 10l-8 9l-18 102v41q-4 23 -10 33 l6 8l-4 4l-7 47l-20 21v20l-10 12l-6 35l-5 47l5 11l-5 4v43h-12l-8 28v21l-16 18l-7 45l7 11h6l4 6l-10 8v37h-11l-18 16l8 17l-6 20l-8 -6q2 12 14 14l-6 6v45l-14 9l-13 14l-2 27l13 26l-11 8l-2 -14l-12 21l-14 86l-6 6l-11 37l-4 41l-12 26v10l-4 4l-10 48l-7 6l-8 47 l-16 8l-10 -6l-52 18l-36 -6l-17 6zM332 729l4 10l-4 -4v-6zM346 936l21 10v10h-21v-20zM389 489h4l-4 7v-7zM397 522l13 6v9h-13v-15zM397 553l6 -4l7 14l-13 10v-20zM397 627l6 -13l11 21l-4 6zM403 475l13 27h-13v-27zM403 662h7v6zM410 600h4l-4 10v-10zM414 549l10 4 h-10v-4zM424 420h14l-8 20l-6 -6v-14zM424 563h6l-6 6v-6zM424 580h6v10l-6 -6v-4zM430 475l6 -6v6h-6zM430 614l14 17h-6zM438 455h6v6h-6v-6zM672 403h6l-6 5v-5zM713 580l6 14l-6 -10v-4zM776 797l4 -11h6v11h-10zM809 891l8 -17l14 15h-14l6 12h-6zM817 817l6 10h4v7 h-10v-17zM856 915l8 -26l6 12v14h-14zM858 874l6 -6l6 13zM864 987l8 10l-8 -4v-6zM952 1194l6 -6l9 6h-15zM956 1204l11 10h-11v-10zM973 1184l10 10h-10v-10zM1038 1116h13v12h-7zM1044 1049l13 6v6l-13 -6v-6zM1051 1028l6 6l-6 6v-12zM1069 1176l8 -13h8l7 11l-7 6 l-6 20zM1077 1044l15 11l-13 -6v12l-2 -6v-11zM1077 1116l2 -6l6 -8l7 6l8 25zM1079 1133l13 4v6l-13 6v-16zM1092 883l6 -2v-13h4v33h-10v-18zM1112 862l6 6v13l-6 -7v-12zM1204 1427l13 -6v6h-13zM1292 242l6 12h-6v-12zM1540 424l12 -10v10h-12zM1546 455l6 -6v6h-6z M1552 496l4 -7v13zM1763 1276h6v6z" />
<glyph unicode="x" horiz-adv-x="1193" d="M31 76l14 33l31 24l22 -16l11 12h20v-12h27l14 6l-4 6v18l37 54l14 37l27 24l30 62l21 26v12l24 46l23 16v10l14 35h6l29 59h12l11 15v10l30 59l7 -28h6l2 16l-6 8l12 13v20l6 10v11l6 6l4 -6l6 18l31 22l-12 7v8h6v18l8 13l-8 12l6 4l-12 33h-4l-17 24l-14 60l-39 26 l10 11l-12 6l-12 18v8l-21 21v16l-30 70l-15 -8v12l-6 4l-14 31v14l-13 12v21l-14 20h-10l-37 68v20l-14 17h-6l-9 8v20l-55 29l-14 -6l6 16q-9 -3 -19 -20l-12 14h-57l-15 21v61l9 16h12l4 11l4 -4h17l16 -7l6 9l8 -9l6 7l25 4v-17l16 17l4 -4l13 4h194v-11h21l6 -6l6 6h21 l14 -16l-6 -41l-8 -10l-7 6l-6 -6l13 -10l-13 -11l-49 -20l-27 -16v-21l11 -20v-11l10 -10v-6l14 -21v-10l39 -51v-10h8v-15l-6 -12l13 -8v-21l14 9v-9h8l12 -26v-17l27 -26v-14l-10 -11l10 -10h18l11 -20l-9 -7l21 -34h10q6 -3 12.5 -16.5t14.5 -16.5v-10l10 -21h25l8 31 l24 12l33 82l17 6l22 55l25 -6l8 9l-6 14l6 8l-6 21l16 38h10l4 -6h11l12 21v20l20 41l9 47l6 -4l14 8l16 21l-10 33v14h-26l12 -4v-4l-19 -12l-2 16l-18 16q-16 -6 -23 -14l-28 25l6 14l-4 10v31l18 35l11 -9l10 -38l16 32l14 13h39l9 -17q3 8 20 21h43l21 -11l67 13v-6 l-12 -7v-6h18l8 13h17l22 -23l11 19l39 -25l8 -14l-8 -56l-25 -12h-16v6l8 6l-19 8l-4 -8l-12 -6l-8 -10l-53 -10h-27l6 -13l-6 -2l-14 -41l-17 -22l-20 -41l-11 -6l-4 -10l-6 6l-10 -11l-8 -45l-13 -14h-20l-4 6l-6 -6v-8h14v-15l-14 -18h-13v-45h-8l-20 -20l8 -11l-14 -10 v-12l-27 -29h-8v-18l-14 -4l-9 -37l-10 -9v-26l-31 -10l-18 -86l-10 -11l14 -18v-14l18 -45l27 -29l10 -21l6 -4l58 -102v-39l8 -8h14l25 -37v-6l20 -27l4 -37l-4 -12h21l41 -59l10 -35h10v-27l17 -4l8 -33l-4 -8h14l39 -61l43 12l8 -18h8l7 8h26l15 -29v-47h-11l-22 14 l-8 -41h-31l4 6v15h-14l8 -15l-15 -6l-8 6l-12 -12l-55 6l-19 11l-18 -11l-21 -4h-53l6 4h-26l-9 -4l-47 4l-32 11h-15l-6 43l-8 6l18 28l23 21l8 -8l6 8h10l11 6l6 -6l26 6l9 6l6 -12h20v41h-10v12l-16 14l-35 84h-6l-11 21l-10 8v14l-20 31v8l-19 19l-18 39l-4 20l-27 27 l-24 49l-13 12v47h-26l-15 62l6 4v16h-20l-12 -20h-4v16l-11 8h-10v-24l-20 -37l-7 -4l-16 -37h-24v-43l-11 -8l-16 -33l-6 -4v-10l-21 -41l-24 -19l-11 -28l-14 -17l4 -8l-16 -18l-23 -68l-22 -25l-21 -55v-12l-6 -4l-6 -23l6 -8h84l6 -20l29 -9v-28l8 -9l-8 -22l-6 10 l-4 -20l-17 -11h-20l-25 -10l-37 10h-4l-12 11l-4 -17h-62l-6 25l-24 -19h-17v9l-49 -19l-8 10h-10l-6 21l-4 -16l-17 -15l-26 25l-9 -10h-6v10h-8l-6 33zM125 35l4 -4v4h-4zM125 1339l10 -4v4h-10zM451 1376l6 4v6zM485 651h7l-7 4v-4zM498 635l4 6h-4v-6zM750 1024h20v10 h-8zM791 41l14 25l-14 16v-41zM791 1028h12l6 6l-18 10v-16zM791 1044l6 5h-6v-5zM797 1339h12v4zM1030 25l8 6h-2zM1057 55h4l-4 6v-6z" />
<glyph unicode="y" horiz-adv-x="1146" d="M31 1343v74l20 10l6 -16h6l7 16h22l6 -10l6 10h56l14 -14l6 14l23 7v-13h14l23 9l12 -9v-4h18l6 17h29v-13l14 15l11 -19l22 4l6 -6l9 6h26l17 -10v-20l4 -5l-4 -6v-37l-13 -8h-14l-18 -14l-23 8l6 12l-29 -12h-14v-53l6 -41l8 -10v-41h13l10 6v-14l49 -93l-8 -8l6 -10 v-16l21 -7l4 -47l16 9v-27h8v-27l19 -8l8 -24l6 -74l21 -6l20 -31l-6 -16l12 -5l14 -16l-6 -6l-4 6q-1 -3 -3 -5t-4 -2.5t-5.5 -2t-5.5 -2.5l8 -8l31 -7l16 -8h14l23 25l14 31l6 -5l9 21v22l20 33v19l12 8v14l62 137l6 4l8 43l6 3l27 53v20l14 17v20l11 10v11l16 14l10 41h6 v41l-20 22h-23l-16 -18l-39 20v35l-18 17l6 14l14 6l6 14l23 11h20v-11l10 7h17l6 -11l8 15l10 -4l93 6l8 -17l8 19l8 -8l8 14l4 -6l21 -4l10 4l6 -4l6 6l21 -12l35 8l20 -8l4 -41l6 -5l-8 -6v-10l-6 -6l-12 22v-30h12v-17l-12 4v-14h-8l-7 6l-26 6l-8 -18l-11 10l-6 -16 l-6 12l-35 -6v-12l-32 -17l-15 -39v-41h-14v-14h-6l-6 -16l6 -4l-35 -78v-12l-6 -3l-6 -18l-15 -8v-14q-7 -3 -10 -4t-6.5 -5t-3.5 -10l4 -10l-12 -33l-17 -16l8 -6l-16 -9v-12l-20 -53v-21h-11v-20l-28 -57h-11l9 -15l-37 -47v-14l-6 -6l-9 -41l-12 -21l-24 -78l-5 -120 l5 -5l-5 -26v-62l5 -10v-51l-5 6l-6 -6v-12l11 -9v-16h-5l-6 -16h-20l-10 6l4 -21h12q7 -11 20 -16v-4h-12v-10l19 -9l-9 -20l23 -29l8 4l19 -8l2 -20l6 20h6v-12h14l8 8l9 -8l4 6h12l4 -10l19 8l26 -10l10 -45l-14 -21l6 -4v-6h-43q-2 -12 -14 -14l-10 4l-21 -11 q-2 7 -16 11v30h-15l7 -10l-13 -24l-22 -15l-25 8h-41l-10 -6l-35 6l-6 -6h-59l-15 27v-14l-8 4l-14 -13l-13 9h-20l-10 -7v7l-17 14v31h-4l10 37l15 10h33l34 14l13 -12l24 8l21 27v30l14 13l-10 8l6 26v62l-6 31l6 24l-6 6l-4 193l-17 78l-8 4l-6 10v21l-14 12l-6 35v39 l-33 16v16l12 6l-6 21l-8 -8l-19 8l-39 84l-16 18v17l-8 22l8 8v7h-10v4h-6l-11 10v16l-4 25l-16 16v29l16 6l-26 21l-15 -13l-6 25l-22 33l-25 75l-12 4l-19 48l7 8l-23 24l-4 21l-10 20l-11 -6l-6 6l-26 -20l-50 2l-6 18l-8 -8zM319 1065h7v10l-7 6v-16zM410 817h4v21 l4 -4h12l-20 14v-31zM434 780h4l6 11l-10 6v-17zM438 760h6v10h-6v-10zM477 797l8 20h7v4h-7l-8 -10v-14zM502 764l4 6l-4 6v-12zM852 1221l8 -9l12 23h-20v-14zM858 1427l12 -10l2 4zM967 1417l20 4l-20 9v-13zM977 1360l6 4h-6v-4zM1018 1350h12v14l-6 6v10l-6 -4v-26z " />
<glyph unicode="z" horiz-adv-x="1056" d="M57 61l6 7v14l-6 6l6 27l48 71l24 52l21 20l57 104l16 15q13 27 30 56t37 62.5t32 53.5l14 14l10 27l15 10l16 21l10 30l10 4l21 41l16 19l31 61l6 4l6 23l15 14l88 139l14 31l27 27v20h10l25 47h10v9l16 20l33 64h12q13 9 21 24l-2 16l8 7l-6 4l12 6h12l-6 14l8 23l6 -6 v20l7 6l-9 41h-18l-12 -6l-9 6h-14l-10 -16l-37 4l-22 20v6h-15v-28l-39 14l-28 -12h-11l-16 18h-27l-12 -22l-63 4l-29 16l-19 -20h-71l-6 4l-29 -4l-21 6l-36 -8l-23 12h-20v-10h-11l-34 18v-49l-7 -27l7 -20l-7 -25l7 -6l-13 -10l-8 4l8 -49l13 -6l-7 -35h-6l-8 -10 l-6 12h-6q-3 -12 -21 -20l-20 6l6 6l-12 8v6l-15 12v123l6 25v27l7 10v24l-7 13v51l21 24l20 -6v-39h11v17l20 20l-10 4l18 11l9 -15l12 13l8 -13l25 15h16l4 -11l12 4v-8l9 8l36 -4l23 11l14 -11l6 4h15l8 -6l12 6h47l4 -8h27l27 4l20 11l8 -11h19l20 11l2 -7h21l12 7h47 l10 -7h15l10 -8q1 1 7.5 3.5t9 5t4.5 6.5h6v-11l10 11h55l19 -7v-45l8 -10h16l-6 25l6 16l17 21h24v-7l27 -4l10 -10l14 14h23v-16l24 -8l-4 10l15 10h24l11 -30v-33h-13l-8 -15l-20 -8l-5 -18l17 12l24 -10l-16 -6h-20v-31l8 -8l-17 -12l-6 -11l-6 6l-14 -16l-17 -6l17 -14 h10v-7l-31 -12v23h-16v-21l16 -14l13 6l-17 -35l-31 -14l9 -10l-4 -9l-7 2l-10 -8l-4 15l12 14l-12 6v6l14 6l-14 25l-12 -4l-4 -53l4 -27l-6 8l-13 -10l15 -27l-4 -32l-17 -15l-4 -16l-27 -25v-22h-12l6 -8l-26 -7v-14l-17 -20l11 -9q-17 -31 -86 -143l-15 -14l-12 -33 l-25 -29l-18 -14l-12 -18v-27l-27 -25h-14l-6 -41l-11 -16h-16v-21l-6 -6l-10 -28l-66 -111h-4l-6 -14l-27 -27l-4 -20l-51 -78l-12 -31l-21 -20l-10 -47l8 -25h41l8 -6h47l8 -6l54 8l10 -12l10 10h98l9 -6l39 12l6 -6h24l11 6v-6l49 -4l8 -17q11 1 14 17h6v-6h7l12 14 l28 -14l21 10l31 6l10 -10h10l10 10l39 10l13 31v20h6l6 11h8v10l-10 22l6 13h-10l-6 32l6 5v6h-8l8 24l6 6l8 27h14l-10 -27h31l6 17l-8 4l12 6l33 -6l4 -31v-145l8 -10l-8 -41l-2 -89l-43 -12l-51 6l-49 -10l-17 14l-43 -16l-71 8l-70 -6l-25 10l-20 -8l-25 4l-12 -4h-119 v4l-24 -4v4l-15 -14l-78 10h-77l-23 14h-10l-4 -20l-10 6h-54l-26 8l-11 -10l-18 10h-12q1 15 -13 19l11 8zM72 1143l12 -13l6 19v20l-12 -6v11l-6 -5v-26zM90 1225l8 -11h8l11 21l-21 6l8 14l-6 7l-8 -17v-20zM90 1296l2 -20h19v16l-7 4l13 15l-13 12l-6 -20zM135 1210l4 4 v17l-4 -6v-15zM485 694l13 -12v-20h8l-2 34zM621 1337l10 -2l6 2h-16zM709 1081l10 -12h6l-6 21h-10v-9zM733 1110l6 -2h6v8zM745 1143h7v6h-7v-6zM827 1241l11 21l-11 -17v-4zM834 1190h14l-4 4h-10v-4zM885 1317l6 -4l4 4h-10zM885 1358h6l4 12h-10v-12zM885 1384l6 -4 l29 17zM891 1262l20 20h-16v-10l-4 -4v-6zM911 1356l4 8h-4v-8zM920 186h12v11h-12v-11zM932 172h4v4h-4v-4zM946 176l6 -4v8h-6v-4z" />
<glyph unicode="{" horiz-adv-x="745" d="M96 690v41l13 10l49 7l16 8l16 12l25 51l21 21l12 20l8 27l6 4v10l10 21l4 112l-4 19l4 65l-4 10v74l17 8v43l-17 17l-4 14l8 10v41l19 21l-12 12l6 14l-6 7l-7 -13l-4 39l11 8v17l-11 10v16l11 15v12l14 14h8l31 35l4 12l14 9l8 20l29 12h21v25l63 16v-20l14 16l7 -6 l14 6h74v-22h34v-21l-4 13l-8 -17l-8 10l-12 -26h-62l-35 16l-22 6l-8 -28h-17v-15l-30 -14v6l-11 -22l-24 -31l-21 -14v-37l-12 -13l-4 7l-12 -13l24 -8l-12 -27l-10 13v-19l6 -2v-26l8 41v-62h-4v-12l16 -6v-60l-14 -75l14 -46v-41l-12 -40h12v-84l-8 -5l8 -16v-35 l-12 -20l-4 -17l-31 -47l-12 -4v-16l-21 -51h-8q-4 -18 -18 -29l26 -74l15 -14l-8 -6l14 -27l12 6v-20h8q7 -22 19 -27l-6 -6l10 -14l-4 -17h8v-20l-20 -21v-10h36v-72l-4 -12l4 -20v-88l-4 -5l4 -6v-75l-4 -19l-16 -29v-36l10 4l8 -37l-18 -68l10 -2v-20l-10 -23l-16 -10 h41l12 -21v-12l20 -8l15 -16l10 -4l6 -37h47l14 -7l33 7l33 -7l10 -20h23l10 6l12 -6l17 8l-9 -26l-10 10l-18 -33h-23l-4 6l-22 10l-25 -10h-33l-4 -6h-16l-6 8l-11 -6l3 -2h-7l4 2l-8 10h-10l-16 9l-4 14l-11 6l-6 16l-10 4l-16 17l-11 -6l-10 16l-20 17l-35 40l-13 21 l7 10l6 113h8v6l-21 16l19 25h20l-14 12l-12 -6v10l-6 6v21l6 4v45l-15 14l9 60l6 6v25l-13 20v47h19v12l8 2l-6 19l-10 -16l-11 10v26l13 4l-17 11v61l-24 49l-23 21l-18 57l-23 8l-10 17h-10l-6 10h-49v10h-13zM313 78h4l9 14l-9 8zM317 2l13 -12l6 26v27h-19v-41z M317 1243l7 10h-7v-10zM330 -96h6v4zM426 -154l6 -22h10l-4 18l4 4h-16zM489 1610l7 6h-7v-6zM541 1585l6 -4v21z" />
<glyph unicode="|" horiz-adv-x="280" d="M96 -135v352l6 143l7 13l-7 22v51l7 15l-7 45l4 43l7 6l-7 14l7 68l-7 14v76l-4 16l4 31l9 8l-11 52l7 51v108l-5 11l7 24l-7 21v30l5 6l-13 37l8 8l-4 31l9 8l6 33h-11v203l11 20l8 35l6 -8v-8l33 16l18 -10l6 -33l-12 -24l8 -13l-10 -26l19 -19l-9 -20v-174l-20 -21 v-10h12l12 -37v-217l-10 -12v-29l6 -12v-76l-8 -27l8 -18l4 -61l-4 -48v-178l-6 -20v-25l-6 -20l12 -11v-61l-6 -41l6 -55l-12 -21v-41l12 -20l-6 -35l6 -6v-55l-10 -19l10 -37v-39l-6 -4v-30l6 -15l-8 -41h-24l-15 -16l-26 6l6 4l-11 10l-8 21l8 16z" />
<glyph unicode="}" horiz-adv-x="745" d="M96 -160l13 10l-7 11h35l43 8l15 -12h20l6 4l25 -4l16 4l27 24l4 -4q11 9 16 25h8l13 22l20 11l6 -11h4q3 12 17 17v4h-6l-11 10l11 10v72l-6 43l6 14l-6 6v103l12 31l-12 6v67l6 15l-6 41l6 6v88l-6 12l6 55l10 21v18l20 27l5 12l16 21l39 78l8 30l6 4v13q-6 2 -10 7.5 t-7.5 12t-8.5 8.5v17l-11 -4v16l-20 29l-6 22l-11 8v21h-10l-14 33v61l-6 4v88l-6 27v151l12 21l-17 4l5 25l6 6l-6 6v31l10 24l-10 27l12 20l-6 10v64l-39 25l-8 30l-9 10l-12 7l-10 -7l-25 27l-22 10l-35 -10v21l-21 -17l-12 12h-14l-6 -6l12 -6h-33l-28 15l-9 20l11 25 h32l31 8l10 -6h31l16 8l15 -8h37l20 -21l12 6l21 -20l20 -31l33 -14l10 -47l-10 -15l12 -12l11 35l10 -8h8l19 -39v-113l-11 -10v-92h-10v-6l21 -21v-27l-7 -20v-66l-16 -18q0 -1 1.5 -5t2 -5t1.5 -4t2.5 -4.5t3.5 -3t5 -1.5v-59l-4 -8l11 -6v-78l10 -25l4 -37l24 -12 l35 -61l-6 -8l41 -21l14 -12h27l20 -8v-43l-14 -15l-39 -6l-28 -14l-13 -12l-2 -15l-33 -41h-10v-26l-16 -15v-33l-14 -14v-151l-11 6v-21h11v-10l-11 -10l4 -17l-4 -10l4 -4v-27l-4 -6v-41l11 -14v-33l-7 -4v-119l11 -18l-11 -8v-15l11 -18l-15 -8l-10 -17l10 -8v-16 l-32 -31l-5 6h-10v-18l-10 -8v-13h-41l-4 -28l-12 -7l-7 -10h-22l-19 -30l-20 -7l-8 9l-8 -15l-47 17l-9 -11h-14l-20 19l-13 -19l-26 7l-9 10l7 4v6l-13 -6v16zM356 -82v-16l15 -11v11zM385 1481l6 -6v6h-6zM389 1395l8 -15h9v33h-9v-12zM391 420h10v4zM401 471h5v10l-5 -6 v-4zM438 1401h4v6h-4v-6z" />
<glyph unicode="~" horiz-adv-x="774" d="M98 721l49 55l7 -6l2 10l8 -12l33 18l28 -8l21 6h24l25 -22l6 14l12 -12l9 6v-14h40l7 -6l45 -7l-11 -61l-18 -6l16 -14h-12l-27 12l-8 8l-14 8l-12 19h-6v-21h-9l-24 23l-13 28v-16l-10 -27l-43 6l-4 13h-4l-6 -13h-14l-7 7h-20l-12 -7h-35v-14h-6l-6 23zM317 715l11 2 h-6zM322 729l6 6v8l-6 -8v-6zM428 674l6 35l6 6l2 -10l15 22l24 -8l8 -25l13 11l24 4v-4l21 10h53l14 -6l21 16h20v-41l-6 -27l-28 -6l-29 -18l-12 8l-13 -10l-35 -4l-16 10l-6 14h-8l-6 6l10 5v6h-21v-27h-10l-8 8l-12 -8v6zM506 678l4 6h-4v-6z" />
<glyph unicode="&#xa2;" horiz-adv-x="985" d="M96 473l10 90v180l9 7v6h-9v24l7 17v20l8 21v14l-8 10v53h8v-16l6 -16l6 16l2 57h-8l-6 -6h-15v27l9 10l-9 103l7 20v20l8 13l-6 6v14l20 15v12h12v-12l15 16v25l26 16l48 53l16 8l8 13h74l6 -17h20l15 17l20 6l29 -12l22 14l21 47h12v27l-12 6l18 10l35 -6l15 -21v-16 l12 -29l20 -20h86l6 -6h62l33 -17l45 -51v-27l14 7l33 -17l31 -61v-41h-5l5 -21l-5 -6h-12l-8 -20q8 -4 14 -17h11v-26l-5 -4v-21h-32l-11 10h11v27h-21l-10 -12v-25l-21 17v20l-6 4l-4 94l-16 15h-8l-27 37v24l8 23h-22v-31l-39 20l-29 11l-12 -7l-4 7l-58 -13l-18 6 l-18 -4l-7 4l-8 -10h-20l-17 8l-71 -10l-64 10l-69 -16l-17 -22l-10 -5v-8l-16 -10l-21 -29h-6l-10 -12l10 -8l-4 -105h-10v-6l14 -4v-51l-12 -12l10 -27l-8 -8l6 -6v-15l-10 -10l10 -22l-8 -19l8 -6v-68l4 -6v-92l-4 -10h4v-4l-10 -6l10 -11v-84l-14 -6v-8h10v-10l-17 -8 v-31l21 -10v-54l-12 -16l8 -16l10 -9l10 -18l15 -8l6 -27h14l37 -37l-4 -4v-16l4 10h10l6 10l6 -6l15 6l6 -20l20 6l9 10h43l14 -6l39 8l18 -18l11 6l6 -6l28 10l70 6l10 -6h51l31 10l8 17h29l23 47h10l8 20h6l8 9l-4 18l4 8l6 -4l7 10l-17 6l10 9l-8 45l19 18v27l-17 14v14 l6 -8h7v21l24 14h10v-6l11 6h28l9 -14v-41l4 -13v-34l-4 -6l-5 -37h9v-4l-15 -7v-18l11 -10l-11 -54l-10 -10l-8 -24l-51 -49l-23 -11l-6 -24l-35 -25l-37 -16l-49 14l-8 -10h-88l-21 -19l-4 -57l-12 -6l6 -6l-8 -6l8 -9l-14 -10v-20h-23l-10 10v10l-10 10l4 31l-4 31 l-10 33l-17 8l-12 -6l-47 14l-8 25l-9 -13v-14h-26l-19 8l-18 -8h-16l-9 10h-12l-8 10l-33 15l-14 33h-17v14h-14l-6 20v21l-33 8l-14 14l-15 7v81l-6 25l6 37zM121 1018l6 6l-6 4v-10zM135 743l12 13l-6 2l-6 -8v-7zM135 848l12 4v10h-6zM158 604h10v10zM160 922l18 -7l4 7 l-4 41l-10 -13zM168 874l6 -12v-4l4 4v17l10 10h-20l6 -6zM182 817h6v4h-6v-4zM412 252l4 -4v10h-4v-6zM479 1356l8 4h-4zM555 1282h6v10zM649 1235l4 10l-4 -4v-6zM721 1231h6v4h-6v-4zM819 1055l19 -8l10 22h-12zM860 502h6l-6 4v-4z" />
<glyph unicode="&#xa3;" horiz-adv-x="1148" d="M96 68v41l15 20h6v-27l-8 -10l-7 -37zM109 719l22 24h12l15 9l28 -15q22 4 29 19l21 -19h6l6 -16l8 29l12 10v166l27 18l-12 33l-7 -35l-12 12l10 9l-6 24l4 47l9 17l-9 10l4 4v65h-4v7l11 6v31l10 20l4 20l-14 11l6 10h-13l17 14l-10 19v14q8 16 26 21v12l15 20l12 2 l6 11l8 -11l6 19l17 22l28 13l15 20l33 6l10 10l8 -16l22 10h35l33 6h47l14 -16l-4 -4v-23l41 43h15l16 -16h25l32 16l11 -6l-4 -4h24l25 6l39 -8l14 -18l10 -6l-6 -11l35 -12l39 -59l12 -27h16l7 -27l6 13l6 -15l-12 -43v-67l8 -15l-12 -20l-5 2v18l-12 -22l27 -10v-29 l-31 -8l16 -15l-16 -14l27 -6l-9 -39l-14 -14l-35 12l-14 -8l-10 20l18 13l-6 20h-25v10l21 15l-21 10l5 12l-11 25l11 10h16v33l-10 8l6 6v17l-6 4l-11 32l5 4l-15 31l-84 84h-28l-17 -8l-4 8l-14 -6l-25 6l-24 -8l-58 8l-4 6l-82 -6l-65 -12l-15 -25l-45 -47l-12 -31v-106 l-8 -31l10 -30l-6 -125v-121l-12 -13l12 -28l16 -17v-34h11v28h14l10 6l86 -6l12 6l48 -8h172l8 -6h33v-12h10l10 -29v-20l-6 4l-8 -17l-33 -4h-115l-4 4l-16 -6l-68 13l-18 -7h-33l-25 13l-10 -13h-43l-14 13l-8 22l-9 6v-8l-10 -12v-23l-14 -8l-12 -14l14 -15l-8 -6 l-6 -37l6 -4l-6 -6l-5 -20l5 -21l8 -8l-8 -12l6 -17v-129l-9 -22l13 -19l-13 -141l35 -39h41l4 -14l35 14l19 -6h34l13 6l4 -6h20l6 6l119 -8l45 8l17 -6h41l10 -12l88 6l16 14h17l18 105v41l-6 12l6 4l10 37l31 10l12 -10h21l14 -14l8 -84l-12 -123v-43l-6 -21l-4 4 l-10 -14l10 -6v-4h-14l-7 -17h-20l-12 11h-15l-12 -11h-14l-6 6l-5 -8l-24 13h-12l-13 -15l-8 10l-22 -12l-19 6l-14 31l-13 -25l-14 21l-20 -21h-13l-10 15l-6 -15h-8l-8 -10l-7 10l-8 -8l-39 13l-6 -11h-41l-33 6l-98 -10l-49 19l-16 -9l-21 5l-14 10v-12l-21 8l-12 -11 h-20l-9 15h-26l-19 6l-14 -6l-4 6l-21 -10l-6 28l8 31l-8 19l-20 -15v-18l10 -15l-10 -20v-10h-27l-16 18q6 3 16 23l-4 10l4 27l6 6v8l21 14l10 -2l25 10l-9 11l17 14v74l14 8l14 16l-24 8l4 78l-4 25l4 110l12 13l-12 8v84l6 41l-6 10h-4l-4 51l-17 -8l-10 -20h-43l-12 -9 l-47 25zM115 82l14 27v12l29 14l12 -47h-12l-8 -16l6 -19l-6 -22q-2 1 -27 14v23zM236 702l12 13l-12 2v-15zM248 61l8 7h12v-17h8l-4 37l-18 -10zM268 109l4 -7l11 21v14l6 13l-13 6l-8 -6v-41zM272 842l4 -4v4h-4zM276 1004h7l-7 4v-4zM283 109l6 8l-6 -2v-6zM283 164l6 6 l-6 6v-12zM283 631h14v24h-8v-10l-6 -4v-10zM289 672h4l8 16h-12v-16zM289 729l14 -8l-6 14zM297 176h18v14zM297 190h12l6 7zM297 1223l18 8l-6 4v10l-12 -4v-18zM344 705l6 -13h10v23zM356 55l9 6h-5zM360 756l11 8h-6zM557 1343l6 -6v6h-6zM666 92l4 -10v10h-4zM903 1128 h6l-6 2v-2zM909 1081l6 4h-6v-4z" />
<glyph unicode="&#xa5;" horiz-adv-x="1187" d="M96 1397l13 14l8 -6h20l13 -35l8 8v27h37l10 -35h18l19 -27l10 -47l20 -10l17 -14v-35l24 -8l37 -51l8 -41h13l20 -41v-11l6 -6l-8 -12l8 -18h9l6 10l10 -4l-4 -6l16 -9l25 -49l-6 -8l20 -18l-4 -9q10 -3 16 -24l-12 -41l10 -12h6l5 51q10 -12 22 -15v-32l8 -11l35 -12 l23 8l4 15h16l16 26v23l25 39h25l-9 20l21 21v30l27 17l12 39l24 24l9 25l41 18v13l-21 14h21v33l28 45l29 37h10l6 6l-6 4l6 6l6 27h9l12 34l20 21h41l11 12h14l16 -18l-10 -15l10 7l4 -17l-20 -4v-33l-10 -30h-21v-29l-20 -6l-15 -62h-16l-31 -63h-6v-10l-26 -27v-18 l-29 -15v-33l-14 -26l-19 -14l-24 -54l-21 -30l-16 -17l-13 -35h-8q-1 -2 -3.5 -6t-4 -6.5t-5 -4.5t-7.5 -3v-27l-25 -30v-7l-14 -18l-13 -31v-12q-1 -1 -4.5 -2.5t-5 -2.5t-3 -3.5t-1.5 -5.5l-6 6h-12l26 -27v-47l6 -10l7 10l8 -16l20 -11h-14l-6 -10h26v-26h17v12l-8 6 l43 18h67l21 -4l12 4h49l8 -6l13 6h26v-10h6l5 10h10l10 7l6 -17h14l13 6l24 -10v-27l-12 -24l-55 -6h-72l-10 -6l-35 6l-6 6l-8 -14l-39 14l-31 4l-16 -10h-21l-20 20h-21l-4 6l-6 -6v-20q-12 -6 -14 -15l4 -14l-37 -6q4 -12 20 -21v-12l6 -6v-8l-12 -12v-15l6 -6v-14 l6 -11v-57l-6 -4l19 -14l-13 -6v-9l27 17h55v-21l27 -6l-6 12l6 11h10l15 -17l16 17l25 10l12 -6l14 6l33 -6l6 -8l14 14h56l20 -10l13 6l34 -17v-20l-4 8l-12 -24l12 -5l-37 -6l-10 -10h-104l-27 12l-22 -12l-19 4l-8 -4l-6 4l-15 -6l-45 16l15 7l-6 18l-17 -8v6h-10v-33 h-21l-14 12h-12l-4 -16h-11l-12 -10h12v-21l-14 -14v-16l12 -7l-10 -14h6l6 -16l-8 -27l8 -14l-6 -37l-8 -14l-6 8h-12v-35l6 -6l-8 -4v-11h-21l8 7l-6 4l-8 4l12 6l9 14h-13l-8 13l-29 -37l-12 16l4 29l-10 10l16 27l-6 24l4 13l-8 10v10l4 -4l21 10h10v4l-27 -4 q-8 2 -14 14l-10 -4l10 31l10 10v15l-16 16q14 9 16 25h10l13 14l-19 18v35l33 -4v31l-16 -15l-11 31l-14 21l-6 -11l-6 5v81l6 7v32l-21 2v13l-10 14h-6v-14l8 -15l-45 17l-14 -8h-31l-6 6l-8 -6l-6 12l-15 -19h-100l-53 19l-21 -6l-22 6l-15 -8l-8 22v29l74 18h41l14 -16 v10h43l4 -4h17l14 10h78l35 -10l16 10h10l17 27l4 96l-15 25v18l-6 4l-4 25l-24 12l-9 66l13 16h-17v-10l-16 -17v-10l-20 17l-15 45v39l6 8h-12l-14 -29l-6 41l-7 2l-6 -18l-16 37v24l-19 16l-4 41l-10 -10v-10h-10v35h-21l-6 22h-12l-14 62h-9v-23l-32 39v25l10 8l-14 12 v10l-17 -10l-8 27l-12 -6l-8 59l12 10l-12 8h-13v11h6l7 10h-19l-8 -10v-11l-6 -6l-6 21h-9v26zM117 1370h6l-6 14v-14zM152 274v48l38 8l7 -13l14 -8v17l65 4l50 -8l28 10l8 -19q15 15 33 19l6 -6h21l4 -4l-4 -13h8l8 17l21 4l35 12l10 -59l-10 -9v-24l-66 12l-12 14 l-19 -22h-53l-6 4l-8 -4l-21 8l-6 12h-6v-12l-8 6l-6 -6h-11l-10 12l-18 -18l-54 6l-14 -12zM205 283h6v18l-6 -6v-12zM231 1210l5 2v19l-5 -12v-9zM246 289l6 -6h10l-6 6h-10zM246 1239h16v6h-16v-6zM266 301l6 2h-6v-2zM289 289l8 20h-8v-20zM289 1130l14 13l-14 14v-27z M344 1079l6 -10v-4l8 20v21h-14v-27zM358 268l7 -6v12h-7v-6zM358 301l13 -12v12h-13zM371 557h20v12zM401 289l11 6h-6zM401 303h5l-5 6v-6zM412 283h6l4 6h-4zM510 817l20 -12v12h-20zM516 428h25v-45h10v41l-16 16l6 25l4 -10h6l14 28l-28 -16l-7 -18l-6 6l-8 -15v-12z M524 672h6l11 10v6h-17v-16zM524 756h13v35l-7 -11zM535 203l10 -13h6v31h-10zM537 238l4 20h-4v-20zM537 543l14 -33h12l2 43zM551 301l6 2v12h-6v-14zM557 82l21 16h-15zM571 129l13 -10v-4l8 4l14 18l-28 23l-7 -4v-27zM578 176l8 -8l6 8h-14zM578 350l8 -24v30l-8 11 v-17zM586 424l6 10l-6 -6v-4zM586 444l18 11h-18v-11zM592 530l12 7l2 -7l6 7v12h-20v-19zM606 227l6 6l-6 5v-11zM625 289l8 -6h12v14zM639 590l6 -6l4 6l-4 4zM752 295l6 6h-6v-6zM834 322h6v4h-6v-4zM866 1292h6l-6 4v-4zM913 590l11 -6v10l-6 6zM948 1358l6 -21v21h-6z " />
<glyph unicode="&#xad;" horiz-adv-x="499" d="M25 705v51l28 20l19 -10l8 10h43l57 8l25 -18l53 10h70l22 -6l21 10l4 -4h12l4 -6l45 6l13 -33l-7 -34l-10 -11l-14 -4h-58l-20 8v7l-12 -11h-35l-8 -4v8h-19l-4 -8h-24l-11 -6l-37 12l-16 -6h-115z" />
<glyph unicode="&#xb4;" horiz-adv-x="688" />
<glyph unicode="&#x2000;" horiz-adv-x="828" />
<glyph unicode="&#x2001;" horiz-adv-x="1657" />
<glyph unicode="&#x2002;" horiz-adv-x="828" />
<glyph unicode="&#x2003;" horiz-adv-x="1657" />
<glyph unicode="&#x2004;" horiz-adv-x="552" />
<glyph unicode="&#x2005;" horiz-adv-x="414" />
<glyph unicode="&#x2006;" horiz-adv-x="276" />
<glyph unicode="&#x2007;" horiz-adv-x="276" />
<glyph unicode="&#x2008;" horiz-adv-x="207" />
<glyph unicode="&#x2009;" horiz-adv-x="331" />
<glyph unicode="&#x200a;" horiz-adv-x="92" />
<glyph unicode="&#x2010;" horiz-adv-x="499" d="M25 705v51l28 20l19 -10l8 10h43l57 8l25 -18l53 10h70l22 -6l21 10l4 -4h12l4 -6l45 6l13 -33l-7 -34l-10 -11l-14 -4h-58l-20 8v7l-12 -11h-35l-8 -4v8h-19l-4 -8h-24l-11 -6l-37 12l-16 -6h-115z" />
<glyph unicode="&#x2011;" horiz-adv-x="499" d="M25 705v51l28 20l19 -10l8 10h43l57 8l25 -18l53 10h70l22 -6l21 10l4 -4h12l4 -6l45 6l13 -33l-7 -34l-10 -11l-14 -4h-58l-20 8v7l-12 -11h-35l-8 -4v8h-19l-4 -8h-24l-11 -6l-37 12l-16 -6h-115z" />
<glyph unicode="&#x2012;" horiz-adv-x="499" d="M25 705v51l28 20l19 -10l8 10h43l57 8l25 -18l53 10h70l22 -6l21 10l4 -4h12l4 -6l45 6l13 -33l-7 -34l-10 -11l-14 -4h-58l-20 8v7l-12 -11h-35l-8 -4v8h-19l-4 -8h-24l-11 -6l-37 12l-16 -6h-115z" />
<glyph unicode="&#x2013;" horiz-adv-x="1212" d="M31 705l10 47l-8 8l12 4h45l10 -4q9 11 29 16l51 -6l51 6l23 -6l57 8l6 -18l11 -4l10 8l41 12h74l10 -6h61l31 -6l10 6h88l21 6h33l10 -6l20 6h82l53 -6l33 6l19 -6h108l10 6l41 -6l21 -10l20 4l37 -10l4 -45l-24 -27l-49 8l-19 -12l-41 10l-20 -6h-207l-27 6l-20 -6h-41 l-23 6h-180l-10 -6h-25l-12 12h-21l-8 -12h-43l-10 6h-47l-19 6l-22 -12h-64l-40 12h-35l-11 -6v6l-6 -6h-55zM127 729h25l-5 31l-10 -21zM168 735h4l-4 15v-15z" />
<glyph unicode="&#x2014;" horiz-adv-x="1843" d="M31 735v35l12 21h49l12 -7h31l4 7h27l4 -7h20v-20h-4v-14l17 6l4 14l16 -14l4 35h25l6 -11l12 4v-28l17 16l8 -8l4 12h16l7 -37l14 17v20l16 8l10 -4v-4h11l6 -8l18 16l17 7l20 -7l23 -14l8 8l53 8l4 -8l45 10l17 -8l12 4l4 -4l10 4l6 -4l9 4l12 -14h14l13 6v-6l8 -6v16 h78l20 -10l21 10h36l11 -10l12 10h45l10 -10l10 6h68l10 -12v-6l11 -8l-11 -7l-6 -20h14l9 31l-11 16h15l14 6l8 -18h15l8 12h18l8 -12h13v12l24 6l4 -20h13l4 8l20 12h47v-12l21 -8l20 8v-8h13l20 20h14l11 -6h10l10 -6l8 10l9 -16l4 12l10 -10l26 10h72l27 -12l20 12h21 l-13 -29l7 -6l6 2v33l14 -6h14l9 -27l4 27h10l25 10l16 -10h74l8 -6l43 8l16 -8l33 -4l12 -35l-20 -6v-21h-25l-16 -16h-31l-33 8l-41 -10l-14 8h-88l-10 14h-6l-4 -14h-17l-8 6h-27l-12 -6h-66l-30 10l-8 -8l-19 8h-16l-4 -10l-9 14h-8v-8l-6 -6l-2 6h-47l-25 6l-16 -8 l-27 6h-98l-31 6l-6 -6l-28 6l-13 -6l-6 4l-6 -4l-35 4l-6 6l-6 -8l-39 11l-31 -15l-14 6l-12 -4v10h-21l-10 7l-8 -17l-39 4l-64 -4l-30 4l6 21v26h-6l-15 -20v-16l-20 6l-6 -17h-25l-10 13h-21l-10 -13h-47l-33 13l-12 -15l-29 15l-14 -13h-27l-8 13v8h-12l-10 -21l-31 13 v26h-21v-26h-10l-6 -13l-4 17l-10 -11h-127l-8 21h-5v-14l-6 -7l-4 21l-10 -21q-12 5 -21 21l-12 -6l6 -4q-11 -3 -16 -13l-19 13h-24zM270 723l2 20l-2 -14v-6zM291 735h4l-4 15v-15zM637 735h6v8zM1085 729l13 -6l4 12h-10zM1356 737l10 -2v8h-10v-6zM1407 750l10 -15 l-6 21zM1473 735h6v8l-6 -6v-2z" />
<glyph unicode="&#x2018;" horiz-adv-x="374" d="M96 1372l10 74l21 18l27 6l2 -6h32l15 -8v-57l-6 -41h6l14 -25h6v-12l-6 -4l19 -23v-34h6l18 -70l-10 -12v-25l8 -25l-8 -6v-20l-12 10h-21l-12 41l-31 45l-18 41l-15 21l-20 57v20h-6v11l6 10h-8zM174 1286l8 10h-6zM182 1307h13v6z" />
<glyph unicode="&#x2019;" horiz-adv-x="374" d="M96 1122l13 11l4 38l-4 35l14 15h8v6l-8 6v8l6 6v10l-12 -4l14 29l-4 21l14 12l-10 10v10l6 -6l6 6v21l7 20l-9 6l9 15v43l8 8h12l4 -6l39 -4l8 4h21l4 -15v-51l6 -10l-10 -6v-10l12 -7l-18 -45l-21 -10v-31l-25 -67l-16 -10h-10v-15l-10 -12v-35l-17 -16l-6 -19l-8 9 l-8 -7l-6 7v10zM137 1268l6 -6v6h-6z" />
<glyph unicode="&#x201c;" horiz-adv-x="608" d="M96 1370v21l6 16v25l7 6l2 20l16 15l61 -13l11 -12l-4 -6v-15l10 -20l-6 -6l6 -10v-27l10 -21v-34l8 -31l-8 -23l10 7l6 -15v-20l11 -23v-24l-9 -9l9 -16l-9 -22h13v-25h-21l-4 8h-24l-13 39l11 29h-5l-16 -31l-10 31l6 10l-8 8l-19 49l-6 4l-8 33l-12 8l12 7l-6 6h-14v8 l-7 6l9 33zM121 1440q10 -13 10 -29l-8 -4l12 -12l8 22l7 4v6h-13l-6 25zM143 1309h7v-6l4 -9l10 2v21h-21v-8zM215 1231h6v10h-6v-10zM330 1339l6 21l2 55l18 39h29l21 8v-4h12l14 -16v-25l-10 -37l-4 -4v-20l6 6l8 -6h10l-4 -33h13l-13 -27l-6 19h-14v-33l8 -6v-23l-18 -8 l18 -18l10 6l-10 8l6 6l6 35l11 -8l10 2v-96l4 -6l6 10l4 -21l-10 -10l10 -20v-11l6 -6l-8 -14h-22l-11 10l-12 4v12l-20 35l-9 27h-6l-10 41l-37 53l-6 45zM356 1288l2 -12l7 12h-9zM371 1303l10 12l-10 8v-20zM371 1360h6l4 31h-10v-31z" />
<glyph unicode="&#x201d;" horiz-adv-x="608" d="M96 1083v25l13 -6v14h-7v37l7 10v37l14 62v14l8 20v39l6 29v33l6 14v25l15 6l12 -12l20 18l5 -6h10l6 -10l20 6l11 -4l10 -33v-51l-4 -11v-24l-12 -21l-5 -18l-20 -8l8 -19l-20 -43l-15 -6l11 -6l-25 -37l8 -8l-20 -6v-19l-25 -41l-22 -8zM143 1116l7 6h-7v-6zM143 1163 l15 27v10l-15 -10v-27zM143 1317h7l-7 6v-6zM154 1153l4 4h-4v-4zM164 1411l12 -14l8 14l-10 6zM213 1382l8 -6h4l-4 21zM330 1102q7 18 8 20l-8 11l6 30l8 84l6 15v20l31 53v56l10 18l-12 25l35 10l8 18l6 -4l45 -12l6 -39l-10 -37l14 -14l-8 -13v-26l-14 -35h-8l6 -20 l-31 -62h-10v-20l-35 -70l-27 -20l-18 -3zM360 1137l17 12l-6 4l-11 -4v-12zM377 1128l4 5v10l-4 -6v-9zM397 1407l4 10h-4v-10z" />
<glyph unicode="&#x2022;" horiz-adv-x="661" d="M96 752l6 24l7 2l-13 27l6 6v10l7 4l2 31l41 27l6 -11l12 17v10l23 39l38 27l15 6l12 -10l23 6l12 -11h16l17 -10l24 25h62l10 -10l14 -7l6 -16l21 -14h6l16 -41l25 -4l-6 -13h18l19 -24l6 -37h-8l6 -14l-4 -27v-98l6 -21l-6 -14l-4 -37l-37 -31v-12l-27 -25l-31 -4v-12 l-4 -4v-10l-20 -7l6 -6l-35 -10l-33 8l-20 -12h-43l-10 12l-35 -14l-23 22h-14v21l-6 -8l-10 4v10l-25 8l-18 19v8l-25 18l10 13l-28 8v35h-7v6l7 4l-7 4v84zM137 625l6 -7v7h-6zM137 791l8 -15l9 23l-4 18h24v8h-4v6h-12l-8 7l-13 -13v-34zM141 680l11 -18l-9 -7v-4h15 l6 21l-14 14zM158 709l12 -7h4l-10 11zM174 754l4 10l-4 -6v-4zM195 584h10v10l-6 4zM231 682l5 -6v10l6 6h-11v-10zM231 733h15v10l-15 15v-25zM254 637l8 -6h10v14l-6 6zM256 702h6v7h-6v-7zM313 686h11v23l-7 8l-4 -4v-27zM449 639l10 6l-6 6zM459 625l4 -7l-4 13v-6z " />
<glyph unicode="&#x2026;" horiz-adv-x="1361" d="M96 33l21 86h6l6 12l-8 14h16l13 -6l10 6h10l12 9l25 -15v-41l14 -8v-27l-4 -6l4 -6l-4 -28l-33 -7l-4 -16l-33 -10l-18 6v16l-14 11v4zM143 84h7l-7 6v-6zM184 31h6v12zM621 72l4 32l24 35h13l8 -14h6l8 8l29 8l4 -16l12 -14l6 8l2 -29h-8l6 -12l-10 -17l12 -34l-10 -41 h-25l-26 -6l-31 8v8l-16 16l28 45h-12q-11 16 -24 15zM1143 -10v106l14 8l27 27h26l4 -14l13 20l16 -45h12l17 -14v-62l-6 -6v-20l-11 -10l-45 -15l-49 4z" />
<glyph unicode="&#x202f;" horiz-adv-x="331" />
<glyph unicode="&#x205f;" horiz-adv-x="414" />
<glyph unicode="&#x20ac;" horiz-adv-x="1134" d="M96 850l13 10l34 12h43l19 29v53l6 31l10 10v21l-8 8l12 12v23h-14v67l4 9v41l10 26l27 27h8l8 24l41 27v6l31 35l20 12l11 21l30 14h9l41 51l38 -4h41l13 10l30 -16l15 6l51 6l6 -12h23l28 10l47 -14h21v8l20 6h70l8 -4h21l6 4h88l16 -14l6 -35l-12 -12h-6v-25h-14v21 h-11v-33l7 -14l-17 -7h-192l-37 15l-8 -8h-19v8l-14 -8l-8 8h-23l-4 -8l-12 6l-8 -6v26l-13 21h-6l8 26l-14 -24l-29 -8l6 -11v-16h-16l-6 14l-19 -28h-36l-15 -25l-22 -12l-21 -21h-16l-4 -4h-27v-6l19 -18l-74 -70l-6 -68l-6 -16v-14l-7 -11l13 -6v-131l22 -33h45l19 -18 l33 18l6 -6h49l12 -10h27l8 10l22 -6l5 -4l10 10h10l6 -6h17l8 6h59l14 -6l39 8l21 -14l12 6l6 -4l4 10h11l16 -30l10 14l15 -21l-9 -10l-36 -10h-31l-23 -10q-15 2 -24 16l-8 -16h-80l-4 10h-13l-4 -6l6 -6l-63 10l-21 -8l-37 4l-6 6l-10 -6l-18 6l-15 -12l-18 18l-14 -16 h-21l-6 4h-31l-10 -8l-16 -45v-29l6 -21v-36h-13l-2 -11l15 -4l-6 -10q15 -5 22 -25l55 13l-6 -23l6 -8h11v20l18 -16l12 12h7l18 15l8 -15l8 4l6 -4l13 4l2 -20h6l6 12h10v15h41l17 -11l4 11h6l14 -21v-10l-4 -4v-19h17l4 39l20 8l49 9l8 -9l52 -6v-18l-4 -4v-33h-109 l-31 8l-8 -16l-72 8l-4 20l-12 9l-10 -9l-4 -28h-185v-47l-6 4l-6 24l-8 13v20h-12v-20l6 -13l-17 -14h-10v-6l14 -21l9 -6l-9 -8h25l8 14h8l-2 -14l9 -16v-47l-9 -7l9 -8l-7 -12l13 -14v-21l-13 -20h-14v-52l21 5v-11l6 -4l10 -24l22 -11l-12 -22l6 -6h19l26 -21l-4 -6h11 v-8h12l18 -27l17 -14v-33l8 -24l-14 10v-37l6 -20l8 6l12 45l-6 22l27 8l6 -10h24l11 6v-6h118v-6l15 6l6 -4h20l6 -6l7 10h34l7 -4l4 6l30 -10l25 12l6 -14h27v-10h6l6 16l117 10l37 -12v-8l6 -6l-13 -11q14 -4 21 -20l-8 -33v-20l-33 -8h-45l-21 8l-26 -15h-53l-9 7h-12 l-4 8q-1 -3 -3 -6t-4.5 -4t-6.5 -2.5t-6 -2.5l-27 7l-8 8l-33 -8h-53l-11 -7l-65 13l-10 -6l-11 6l-8 -8l-28 16l-29 -19l2 -2h-6l4 2l-6 5h-27l-37 6l-16 14l-45 55v15l-17 -9l-4 11l-16 14l10 27h-6l-4 6l-25 6l-26 14l-21 35l21 31v22h-13l-4 -14h-20l-8 -18h-13l-10 12 v6l-6 4v41l-4 10l4 25l-4 12l4 15v131l10 16l-14 14l25 25v59h-11v-6l-12 -12l-8 20l-12 -22l-9 8h-14v6l8 6l-8 8v17l-16 -10v-27h-31l-25 25l11 8v24l8 11h20l17 -9l24 15l12 14h21v27l-10 18l10 27v45l-16 22l6 13l-6 8l-5 -10l-69 12l-12 14zM201 596h10v6h-10v-6z M221 575l15 7v26h-15v-33zM225 375h23l-12 8h-11v-8zM242 256l6 -12l24 12l-16 10l16 4l7 21h12l-8 16l6 25l-13 22l9 39l-9 8l-14 -18v-66l6 -10l-6 -10v-10h-20v-31zM295 375l8 6l-8 14v-20zM301 240l8 -21l21 14v17l-6 -10h-23zM309 197l6 -2l-6 8v-6zM344 162h12v6 l-12 8v-14zM381 1321l6 -6l14 6l-4 33zM391 74l10 -11v11h-10zM391 115l10 -11h7v31h-7zM391 152l8 -9l9 9l-17 4v-4zM422 1300l6 7l-6 6v-13zM475 1315l6 6h-6v-6zM481 575l2 -6v19zM481 1300l2 -6v19zM522 1315l4 6h-4v-6zM578 70h10v-33l10 -4l10 10v14h-10l-8 25z M621 1384h4l-4 11v-11zM645 569l10 6l-6 13h-4v-19zM709 567l4 -6v6h-4zM801 2h6v6zM856 8l6 8l12 -6v27l-18 -14v-15z" />
<glyph unicode="&#x2122;" horiz-adv-x="1069" d="M96 1393l21 4l6 10l18 12l9 -12v-49l-21 8l-6 6h-19zM160 1378l12 41h49l4 -12h17l10 12l45 4l12 -10h35l21 8l6 -8h39l10 -16l-8 -31h-41l8 -8l-8 -8l-56 10l-20 -12l-10 -70l10 -31v-94l-6 -31l6 -8l-12 -12l-7 -27l13 -4l-13 -4l-20 -20v-7h33l6 -18l-12 -18l-7 12 l-30 -12l6 -21l-4 -10l20 -17l-18 -8l2 -2h-4l2 2l-8 8l-11 7v45l-10 -4l10 63l17 -12l8 6v20h-14l-6 6l-11 -6l6 99h7l-7 26h-6l6 35l5 6l-5 35l-6 6l6 27l-6 14v33l-20 -6l-4 10l-15 -14l-8 14l-8 -6v12zM195 1386h6v11h-6v-11zM231 895v20l5 -10h6v17l10 10h10l14 -17 v-20l-10 -6l8 -21l-12 -26h-10l-4 18l-10 14l10 15zM236 1092l12 20l4 -20l4 26l6 4l-6 11h-4v6l18 10l-28 4v-20l-6 -15v-26zM371 1386l6 -6v6h-6zM506 928l10 18v27l-6 10l8 25l-10 8l14 33l2 26l-4 23l6 16l-10 19l8 10l-8 6l6 4l-10 61l10 29l-6 35v41l6 6v68l21 20 l49 6l26 -26v-21l9 -37l-9 -20l27 -33l4 -20l-14 -15l12 -6l15 -31l20 -96v-59l6 -35l8 4v-8l19 -10l-27 -23l2 -4l12 4l9 -4l10 6l8 -6v-16h21l8 20h-8l-7 -10l-6 26l27 9v16l10 10l-12 53l18 9l-6 6v24l17 7v41l4 6l10 75l26 64v10l19 12l-14 15l6 16v29l14 18l53 2l21 -8 h10v-57l4 -10v-99l-4 -6l6 -29l-6 -32l4 -6v-93l-6 -8l6 -6v-74l-8 -14l4 -6l-4 -6l4 -15l-4 -6q2 -15 14 -24l-20 -88h-25l-8 20h-8v14l-6 17l6 12l-6 18l6 11v16l-15 12l21 21l-18 18v15l12 12v27l-6 4l8 45l-8 6v10l-17 23l15 16l-13 8h-16l-4 -20l8 -6l-4 -5l10 -6 q-21 -2 -35 -14v-12h7l-9 -25l-10 -63h-10v-29l-21 -70v-47h-10l-16 -8l6 -6v-14h-14l-13 -7h-20l-29 15l-18 32v31l12 4v6h-12l-8 31l-13 21l-22 112l-9 13h11v10h-15l-10 20v11h-6v36l-10 11v10l16 -4l-26 24v-30l-11 -6l8 -15l-22 -8l14 -12v-21l-12 -12l8 -10h15v-21 l-23 -35l16 -6l7 -10l-7 -4l9 -19l-11 -24l9 -51l-7 -11v-53l-10 -24h-31l-14 16v31zM655 983h21l-12 14zM688 862l8 6h-6zM688 895l2 -6l10 16h-10zM770 881h4v4h-4v-4z" />
</font>
</defs>
</svg>
